<svg id="Caja_1" xmlns="http://www.w3.org/2000/svg" viewBox="0 0 449.1 546.71"><defs><style>.cls-1{fill:#8c6239;}.cls-2{fill:#c69c6d;}.cls-3{fill:#a67c52;}.cls-4{fill:#b3b3b3;}.cls-5{fill:#ccc;}.cls-6{fill:#999;}.cls-7,.cls-8{fill:none;stroke:#000;stroke-linecap:round;stroke-linejoin:round;}.cls-7{stroke-width:0.5px;}.cls-8{stroke-width:0.25px;}</style></defs><polygon class="cls-1" points="392.73 389.42 391.55 390.85 391.48 390.62 356.47 370.41 356.89 368.89 392.5 389.45 392.73 389.42"/><polygon class="cls-2" points="433.72 153.86 448.85 185.9 448.63 185.93 448.33 186.21 445.96 186.82 431.51 156.23 433.72 153.86"/><polygon class="cls-2" points="448.85 185.9 392.73 389.42 392.5 389.45 391.09 387.51 446 188.43 448.33 186.21 448.63 186.13 448.85 185.9"/><polygon class="cls-3" points="448.33 186.21 446 188.43 324.94 118.54 324.94 116.95 445.96 186.82 448.33 186.21"/><polygon class="cls-2" points="446 188.43 391.09 387.51 357.16 367.92 406.95 187.38 324.94 140.03 324.94 118.54 446 188.43"/><polygon class="cls-3" points="431.51 156.23 445.96 186.82 324.94 116.95 324.94 98.5 322.06 100.18 322.06 93.03 431.51 156.23"/><polygon class="cls-2" points="433.72 153.86 431.51 156.23 322.06 93.03 322.06 89.39 433.72 153.86"/><polygon class="cls-4" points="406.95 187.38 357.16 367.92 356.89 368.89 356.47 370.41 356.29 371.09 352.05 386.46 218.83 309.55 193.59 294.97 194.52 291.57 315.33 221.04 283.87 202.88 324.94 178.9 324.94 140.03 406.95 187.38"/><polygon class="cls-3" points="391.09 387.51 392.5 389.45 356.89 368.89 357.16 367.92 391.09 387.51"/><polygon class="cls-3" points="391.48 390.62 391.55 390.85 322.45 454.25 322.39 454.02 323.44 450.46 389.21 390.11 391.48 390.62"/><polygon class="cls-3" points="391.48 390.62 389.21 390.11 356.29 371.09 356.47 370.41 391.48 390.62"/><polygon class="cls-2" points="389.21 390.11 323.44 450.46 320.13 448.55 320.13 371.3 216.65 311.56 218.83 309.55 352.05 386.46 356.29 371.09 389.21 390.11"/><polygon class="cls-4" points="324.94 140.03 324.94 178.9 283.87 202.88 172.13 268.11 172.13 187.71 214.63 162.9 232.96 152.2 262.38 135.02 322.06 100.18 324.94 98.5 324.94 116.95 324.94 118.54 324.94 140.03"/><polygon class="cls-3" points="323.44 450.46 322.39 454.02 320.13 452.71 320.13 448.55 323.44 450.46"/><polygon class="cls-5" points="322.06 93.03 322.06 100.18 262.38 135.02 241.09 122.73 170.12 81.76 170.12 1.36 322.06 89.08 322.06 89.39 322.06 93.03"/><polygon class="cls-3" points="320.13 452.9 320.13 454.47 162.54 546.46 162.54 463.29 320.13 371.3 320.13 448.55 320.13 452.71 320.13 452.9"/><polygon class="cls-3" points="320.13 371.3 162.54 463.29 162.52 463.28 162.52 460.51 246.09 411.73 315.33 371.31 185.93 296.59 185.93 296.59 188.31 295.19 188.31 295.2 216.65 311.56 320.13 371.3"/><polygon class="cls-6" points="315.33 221.04 194.52 291.57 188.31 295.19 185.93 296.59 163.4 309.73 162.52 310.25 139.74 297.1 137.34 295.7 8.89 221.55 45.59 200.59 157.72 265.34 157.72 184.94 115.6 160.62 163.4 133.32 214.63 162.9 172.13 187.71 172.13 268.11 283.87 202.88 315.33 221.04"/><polygon class="cls-3" points="315.33 371.31 246.09 411.73 163.41 363.99 163.4 363.98 163.4 309.74 163.4 309.73 185.93 296.59 185.93 296.59 315.33 371.31"/><polygon class="cls-6" points="262.38 135.02 232.96 152.2 241.09 122.73 262.38 135.02"/><polygon class="cls-2" points="246.09 411.73 162.52 460.51 79.38 412.51 163.41 363.99 163.41 363.99 246.09 411.73"/><polygon class="cls-3" points="163.41 363.99 163.41 363.99 79.38 412.51 8.89 371.81 139.74 297.1 162.52 310.25 163.4 309.73 163.4 309.74 163.4 363.98 163.41 363.99"/><polygon class="cls-3" points="162.52 463.28 162.54 463.29 162.54 546.46 4.08 454.98 4.08 371.8 162.52 463.28"/><polygon class="cls-2" points="162.52 460.51 162.52 463.28 4.08 371.8 137.34 295.7 139.74 297.1 8.89 371.81 79.38 412.51 162.52 460.51"/><polygon class="cls-4" points="157.72 184.94 157.72 265.34 45.59 200.59 4.09 176.63 4.09 166.68 4.09 96.24 65.43 131.65 115.6 160.62 157.72 184.94"/><polygon class="cls-5" points="154.76 0.25 154.76 80.65 65.43 131.65 4.09 96.24 4.09 166.68 0.25 168.87 0.25 88.47 154.76 0.25"/><line class="cls-7" x1="163.4" y1="133.32" x2="115.6" y2="160.62"/><line class="cls-7" x1="137.34" y1="295.71" x2="4.08" y2="371.8"/><line class="cls-7" x1="4.08" y1="454.98" x2="4.08" y2="371.8"/><polyline class="cls-7" points="352.05 386.46 356.29 371.09 356.47 370.41 356.89 368.89 357.16 367.92 406.95 187.38"/><polyline class="cls-7" points="193.59 294.97 218.83 309.55 352.05 386.46"/><line class="cls-7" x1="194.52" y1="291.57" x2="193.59" y2="294.97"/><line class="cls-7" x1="241.09" y1="122.73" x2="232.96" y2="152.2"/><line class="cls-7" x1="406.95" y1="187.38" x2="324.94" y2="140.03"/><line class="cls-7" x1="389.21" y1="390.1" x2="391.48" y2="390.62"/><line class="cls-7" x1="322.39" y1="454.02" x2="323.44" y2="450.46"/><line class="cls-7" x1="320.13" y1="448.55" x2="323.44" y2="450.46"/><line class="cls-7" x1="389.21" y1="390.1" x2="356.29" y2="371.09"/><line class="cls-7" x1="320.13" y1="452.9" x2="322.46" y2="454.25"/><line class="cls-7" x1="320.13" y1="452.71" x2="322.39" y2="454.02"/><line class="cls-7" x1="218.83" y1="309.55" x2="216.65" y2="311.56"/><line class="cls-7" x1="356.47" y1="370.41" x2="391.48" y2="390.62"/><line class="cls-7" x1="391.55" y1="390.85" x2="391.48" y2="390.62"/><line class="cls-7" x1="322.46" y1="454.25" x2="391.55" y2="390.85"/><line class="cls-7" x1="322.46" y1="454.25" x2="322.39" y2="454.02"/><line class="cls-7" x1="323.44" y1="450.46" x2="389.21" y2="390.1"/><polyline class="cls-7" points="448.63 186.13 448.33 186.21 445.96 186.82"/><line class="cls-7" x1="324.94" y1="116.95" x2="445.96" y2="186.82"/><line class="cls-7" x1="431.51" y1="156.23" x2="322.06" y2="93.03"/><line class="cls-7" x1="433.72" y1="153.86" x2="322.06" y2="89.39"/><line class="cls-7" x1="445.96" y1="186.82" x2="431.51" y2="156.23"/><line class="cls-7" x1="433.72" y1="153.86" x2="431.51" y2="156.23"/><line class="cls-7" x1="448.85" y1="185.9" x2="433.72" y2="153.86"/><line class="cls-7" x1="448.85" y1="185.9" x2="448.63" y2="186.13"/><polyline class="cls-7" points="446 188.43 448.33 186.21 448.63 185.93"/><line class="cls-7" x1="392.5" y1="389.45" x2="391.09" y2="387.51"/><line class="cls-7" x1="357.16" y1="367.92" x2="391.09" y2="387.51"/><line class="cls-7" x1="446" y1="188.43" x2="324.94" y2="118.54"/><line class="cls-7" x1="356.89" y1="368.89" x2="392.5" y2="389.45"/><line class="cls-7" x1="448.85" y1="185.9" x2="448.63" y2="185.93"/><line class="cls-7" x1="392.73" y1="389.41" x2="448.85" y2="185.9"/><line class="cls-7" x1="392.73" y1="389.41" x2="392.5" y2="389.45"/><line class="cls-7" x1="391.09" y1="387.51" x2="446" y2="188.43"/><line class="cls-7" x1="157.72" y1="265.34" x2="157.72" y2="184.94"/><polyline class="cls-7" points="4.09 176.63 45.59 200.59 157.72 265.34"/><polyline class="cls-7" points="4.09 176.63 4.09 166.68 4.09 96.24"/><polyline class="cls-7" points="157.72 184.94 115.6 160.62 65.43 131.65 4.09 96.24"/><line class="cls-7" x1="170.12" y1="81.76" x2="170.12" y2="1.36"/><polyline class="cls-7" points="262.38 135.02 241.09 122.73 170.12 81.76"/><polyline class="cls-7" points="322.06 100.18 322.06 93.03 322.06 89.39 322.06 89.08"/><line class="cls-7" x1="170.12" y1="1.36" x2="322.06" y2="89.08"/><polyline class="cls-7" points="324.94 178.9 324.94 140.03 324.94 118.54 324.94 116.95 324.94 98.5"/><polyline class="cls-7" points="172.13 268.11 283.87 202.88 324.94 178.9"/><line class="cls-7" x1="172.13" y1="268.11" x2="172.13" y2="187.71"/><polyline class="cls-7" points="324.94 98.5 322.06 100.18 262.38 135.02 232.96 152.2 214.63 162.9 172.13 187.71"/><line class="cls-7" x1="0.25" y1="168.87" x2="0.25" y2="88.47"/><line class="cls-7" x1="4.09" y1="166.68" x2="0.25" y2="168.87"/><line class="cls-7" x1="154.76" y1="80.65" x2="65.43" y2="131.65"/><line class="cls-7" x1="154.76" y1="80.65" x2="154.76" y2="0.25"/><line class="cls-7" x1="0.25" y1="88.47" x2="154.76" y2="0.25"/><line class="cls-7" x1="214.63" y1="162.9" x2="163.4" y2="133.32"/><line class="cls-7" x1="315.34" y1="221.04" x2="283.87" y2="202.88"/><polyline class="cls-7" points="162.52 310.25 163.4 309.73 185.93 296.59 188.31 295.19 194.52 291.57 315.33 221.04"/><polyline class="cls-7" points="8.89 221.55 137.34 295.7 139.74 297.1 162.52 310.25"/><line class="cls-7" x1="45.59" y1="200.59" x2="8.89" y2="221.55"/><line class="cls-7" x1="163.41" y1="363.99" x2="79.38" y2="412.51"/><polyline class="cls-7" points="246.09 411.73 163.41 363.99 163.4 363.98"/><polyline class="cls-7" points="315.33 371.31 246.09 411.73 162.52 460.51"/><line class="cls-7" x1="163.4" y1="363.98" x2="163.4" y2="309.74"/><line class="cls-7" x1="8.89" y1="371.81" x2="139.74" y2="297.09"/><polyline class="cls-7" points="162.52 460.51 79.38 412.51 8.89 371.81"/><line class="cls-7" x1="185.93" y1="296.59" x2="315.34" y2="371.31"/><polyline class="cls-7" points="320.13 371.3 216.65 311.56 188.31 295.2"/><line class="cls-7" x1="162.54" y1="463.29" x2="320.13" y2="371.3"/><polyline class="cls-7" points="320.13 454.47 320.13 452.9 320.13 452.71 320.13 448.55 320.13 371.3"/><line class="cls-7" x1="162.54" y1="546.46" x2="320.13" y2="454.47"/><polyline class="cls-7" points="4.08 371.8 162.52 463.28 162.54 463.29"/><line class="cls-7" x1="162.54" y1="546.46" x2="162.54" y2="463.29"/><line class="cls-7" x1="4.08" y1="454.98" x2="162.54" y2="546.46"/><polyline class="cls-7" points="162.52 540.91 162.52 463.28 162.52 460.51"/><line class="cls-7" x1="164" y1="362.76" x2="163.93" y2="362.54"/><line class="cls-8" x1="391.55" y1="390.85" x2="392.73" y2="389.41"/></svg>