<svg id="Caja_2" xmlns="http://www.w3.org/2000/svg" viewBox="0 0 459.53 546.13"><defs><style>.cls-1{fill:#8c6239;}.cls-2{fill:#a67c52;}.cls-3{fill:#c69c6d;}.cls-4{fill:#b3b3b3;}.cls-5{fill:#c7b299;}.cls-6{fill:#ccc;}.cls-7{fill:#0067a9;}.cls-8{fill:#003da9;}.cls-9{fill:#1b1464;}.cls-10{fill:#999;}.cls-11{fill:none;stroke:#000;stroke-linecap:round;stroke-linejoin:round;stroke-width:0.5px;}</style></defs><polygon class="cls-1" points="322.12 453.77 319.79 453.99 319.79 452.42 322.12 453.77"/><polygon class="cls-2" points="322.12 453.77 319.79 452.42 319.79 448.07 323.09 449.98 322.05 453.54 322.12 453.77"/><polygon class="cls-3" points="433.26 153.7 448.37 185.7 448.15 185.73 447.85 186.02 445.49 186.63 431.05 156.07 433.26 153.7"/><polygon class="cls-3" points="448.37 185.7 446.22 193.5 444.37 192.43 444.37 192.42 445.52 188.24 447.85 186.02 448.15 185.94 448.37 185.7"/><polygon class="cls-3" points="447.85 186.02 445.52 188.24 324.59 118.42 324.59 116.83 445.49 186.63 447.85 186.02"/><polygon class="cls-2" points="431.05 156.07 445.49 186.63 324.59 116.83 324.59 98.4 321.72 100.08 321.72 92.94 431.05 156.07"/><polygon class="cls-2" points="444.37 192.43 324.59 123.27 324.59 118.42 445.52 188.24 444.37 192.42 444.37 192.43"/><polygon class="cls-3" points="433.26 153.7 431.05 156.07 321.72 92.94 321.72 89.3 433.26 153.7"/><polygon class="cls-3" points="388.01 390.41 323.09 449.98 319.79 448.07 319.79 370.91 216.42 311.23 230.5 298.3 246.43 307.49 246.14 308.51 388.01 390.41"/><path class="cls-4" d="M516.09,272.87l.07,0,3.63,2.1,0,.18a.5.5,0,0,0,0,.36c-.07,0-.15,0-.18.12h0l-3.78-2.18h0l-.07,0c-.24-.14,0-.57.26-.6A.11.11,0,0,1,516.09,272.87Z" transform="translate(-169.05 -28.34)"/><path class="cls-5" d="M515,253.83l.1-.06a2.67,2.67,0,0,1,.89-.35c1.08-.16.87.66,1.38,1.15a3,3,0,0,0,1.75.8l.21,0c1-.15,1.19.77,1.19,1.56l-.07,0a.09.09,0,0,0-.09,0c-.24,0-.49.45-.25.59l.07.05c-.49.28-1.22.62-1.73.09-.23-.24-.24-.57-.46-.81a2.5,2.5,0,0,0-.75-.55,2.11,2.11,0,0,0-.87-.34c-.31,0-.61.12-.93,0-.62-.23-.67-1-.67-1.51a.49.49,0,0,1,0-.12A.43.43,0,0,1,515,253.83Z" transform="translate(-169.05 -28.34)"/><path class="cls-4" d="M511.62,288.87a.09.09,0,0,1,.09,0l.07.05,3.63,2.09,0,.18a.5.5,0,0,0,0,.36c-.07,0-.15,0-.17.13h0l-3.79-2.19-.07,0C511.13,289.33,511.38,288.9,511.62,288.87Z" transform="translate(-169.05 -28.34)"/><path class="cls-5" d="M510.64,269.84l.1-.06a2.48,2.48,0,0,1,.89-.35c1.08-.15.87.66,1.38,1.15a3,3,0,0,0,1.75.81l.21,0c1-.15,1.19.78,1.19,1.56l-.07,0a.11.11,0,0,0-.08,0c-.25,0-.5.46-.26.6l.07,0c-.49.27-1.22.62-1.73.1-.23-.24-.24-.57-.46-.81a2.76,2.76,0,0,0-.75-.57,2.25,2.25,0,0,0-.87-.33c-.32,0-.61.12-.93,0-.62-.23-.67-1-.67-1.51v-.11A.42.42,0,0,1,510.64,269.84Z" transform="translate(-169.05 -28.34)"/><path class="cls-6" d="M507,305.48c-.24-.14,0-.56.25-.6a.13.13,0,0,1,.09,0l.07,0L511,307l0,.18a.68.68,0,0,0,0,.37c-.07,0-.14,0-.17.12h0l-3.79-2.18h0Z" transform="translate(-169.05 -28.34)"/><path class="cls-6" d="M507,323.71c-.06.09-.1.14-.21.15s-.13,0-.15-.05a.28.28,0,0,1,0-.22.52.52,0,0,1,0-.37l0-.18,4.2-15.34h0c0-.1.1-.09.17-.12a.68.68,0,0,1,0-.37l0-.18,4.2-15.33h0c0-.1.1-.1.17-.13a.5.5,0,0,1,0-.36l0-.18,4.19-15.34h0c0-.09.11-.08.18-.12a.5.5,0,0,1,0-.36l0-.18L524,259.67l-3.78-2.18-.07-.05c-.24-.14,0-.56.25-.59a.09.09,0,0,1,.09,0l.07,0,4,2.3a.17.17,0,0,0-.12,0,.42.42,0,0,0-.26.33.94.94,0,0,0,.37.11c.06,0,.12,0,.17,0l-17.5,64C507.16,323.77,507.07,323.74,507,323.71Z" transform="translate(-169.05 -28.34)"/><path class="cls-5" d="M506,286.38a.5.5,0,0,1,.23-.53l.1-.05h0a2.37,2.37,0,0,1,.89-.35c1.08-.16.87.65,1.38,1.14a3,3,0,0,0,1.75.81l.21,0c1-.15,1.19.78,1.19,1.57l-.07-.05a.09.09,0,0,0-.09,0c-.24,0-.49.46-.25.6l.07,0c-.49.28-1.22.63-1.73.1-.23-.24-.24-.57-.46-.82a2.69,2.69,0,0,0-.75-.55,2.1,2.1,0,0,0-.87-.33c-.31,0-.6.11-.93,0C506.08,287.66,506,286.92,506,286.38Z" transform="translate(-169.05 -28.34)"/><path class="cls-6" d="M505.71,248.34l5.4,3.11h0l4,2.31-.1.06a.43.43,0,0,0-.24.41.49.49,0,0,0,0,.12h0l-4-2.31h0l-5.13-3a4.86,4.86,0,0,0,.07-.74Z" transform="translate(-169.05 -28.34)"/><path class="cls-6" d="M502.61,321.5c-.24-.14,0-.57.26-.61H503l.07.05,3.63,2.09,0,.18a.52.52,0,0,0,0,.37.28.28,0,0,0,0,.22l-3.95-2.27Z" transform="translate(-169.05 -28.34)"/><path class="cls-5" d="M501.65,302.4v-.12a.43.43,0,0,1,.24-.42l.1-.05a2.64,2.64,0,0,1,.88-.36c1.08-.15.87.67,1.39,1.15a2.92,2.92,0,0,0,1.74.81l.21,0c1-.14,1.19.78,1.19,1.56l-.07,0a.13.13,0,0,0-.09,0c-.24,0-.49.46-.25.6l.07,0c-.49.28-1.22.63-1.73.1-.23-.24-.24-.57-.46-.81a2.42,2.42,0,0,0-.75-.56,2.1,2.1,0,0,0-.87-.33c-.31,0-.6.11-.93,0C501.7,303.67,501.65,302.93,501.65,302.4Z" transform="translate(-169.05 -28.34)"/><path class="cls-7" d="M498.43,252.14a3.15,3.15,0,0,1-2.18-.42,3.39,3.39,0,0,1,1.18-6.29l1.51-.22,1.08-.16.25,0,1.14-.16a2.59,2.59,0,0,1,2.54,1.61,3.94,3.94,0,0,1,.34,3.13,2.51,2.51,0,0,1-1.91,2l-1.14.16Z" transform="translate(-169.05 -28.34)"/><path class="cls-8" d="M503.84,245.78a2.78,2.78,0,0,0-2.3-1.29l.81-.11a2.89,2.89,0,0,1,2.8,1.77,4.49,4.49,0,0,1,.56,2.19,4.86,4.86,0,0,1-.07.74c0,.17-.07.33-.12.51a2.78,2.78,0,0,1-2.1,2.17l-.77.11h0a2.88,2.88,0,0,0,1.88-2.14A4.77,4.77,0,0,0,503.84,245.78Z" transform="translate(-169.05 -28.34)"/><path class="cls-6" d="M501.33,264.35l5.4,3.12h0l4,2.31-.1.06a.42.42,0,0,0-.23.42v.11h0l-4-2.31h0l-5.13-3A3.78,3.78,0,0,0,501.33,264.35Z" transform="translate(-169.05 -28.34)"/><path class="cls-9" d="M501.41,244.86l-1.14.16a2.13,2.13,0,0,1,1.27-.53,2.78,2.78,0,0,1,2.3,1.29,4.77,4.77,0,0,1,.69,3.95,2.88,2.88,0,0,1-1.88,2.14,2.09,2.09,0,0,1-1.41-.14h0l1.14-.16a2.51,2.51,0,0,0,1.91-2,3.94,3.94,0,0,0-.34-3.13A2.59,2.59,0,0,0,501.41,244.86Z" transform="translate(-169.05 -28.34)"/><path class="cls-5" d="M497.51,317.88l.1-.06a2.43,2.43,0,0,1,.88-.35c1.08-.16.87.66,1.38,1.15a3,3,0,0,0,1.75.8l.21,0c1-.15,1.19.77,1.19,1.56l-.07-.05h-.08c-.25,0-.5.47-.26.61l.07,0c-.48.27-1.22.62-1.73.09-.23-.23-.24-.57-.46-.81a2.78,2.78,0,0,0-.75-.56,2.25,2.25,0,0,0-.87-.33c-.31,0-.6.12-.93,0-.62-.24-.67-1-.67-1.51v-.12A.41.41,0,0,1,497.51,317.88Z" transform="translate(-169.05 -28.34)"/><path class="cls-7" d="M494.05,268.15a3.15,3.15,0,0,1-2.18-.42,3.39,3.39,0,0,1,1.18-6.29h.1l1.41-.21,1.08-.15.25,0,1.14-.16a2.6,2.6,0,0,1,2.54,1.62,3.91,3.91,0,0,1,.34,3.12,2.51,2.51,0,0,1-1.91,2l-1.13.16h0l-2.75.4Z" transform="translate(-169.05 -28.34)"/><path class="cls-8" d="M499.46,261.79a2.73,2.73,0,0,0-2.32-1.28l.83-.12a2.89,2.89,0,0,1,2.8,1.77,4.52,4.52,0,0,1,.56,2.19,3.78,3.78,0,0,1-.07.74,4.7,4.7,0,0,1-.12.51,2.75,2.75,0,0,1-2.1,2.17l-.76.11a2.94,2.94,0,0,0,1.88-2.13A4.84,4.84,0,0,0,499.46,261.79Z" transform="translate(-169.05 -28.34)"/><path class="cls-9" d="M497,260.87l-1.14.16a2.19,2.19,0,0,1,1.25-.52,2.73,2.73,0,0,1,2.32,1.28,4.84,4.84,0,0,1,.7,4,2.94,2.94,0,0,1-1.88,2.13,2,2,0,0,1-1.41-.14l1.13-.16a2.51,2.51,0,0,0,1.91-2,3.91,3.91,0,0,0-.34-3.12A2.6,2.6,0,0,0,497,260.87Z" transform="translate(-169.05 -28.34)"/><path class="cls-6" d="M497,280.36l5.39,3.12,4,2.32-.1.05a.5.5,0,0,0-.23.53h0l-4-2.31-5.13-3A4.65,4.65,0,0,0,497,280.36Z" transform="translate(-169.05 -28.34)"/><polygon class="cls-10" points="324.59 123.27 324.59 178.72 273.75 208.4 253.15 220.43 171.94 267.82 171.94 187.51 262.1 134.88 321.72 100.08 324.59 98.4 324.59 116.83 324.59 118.42 324.59 123.27"/><path class="cls-7" d="M489.67,284.16a3.2,3.2,0,0,1-2.18-.41,3.4,3.4,0,0,1,1.18-6.3h.1l1.41-.2,1.09-.16.24,0,1.14-.16a2.62,2.62,0,0,1,2.55,1.62,4,4,0,0,1,.33,3.12,2.51,2.51,0,0,1-1.9,2l-1.15.17-2.75.4Z" transform="translate(-169.05 -28.34)"/><path class="cls-8" d="M495.08,277.8a2.77,2.77,0,0,0-2.29-1.28l.8-.12a2.9,2.9,0,0,1,2.8,1.78,4.47,4.47,0,0,1,.57,2.18,4.65,4.65,0,0,1-.08.74c0,.17-.07.34-.11.51a2.81,2.81,0,0,1-2.11,2.18l-.76.11h0a2.92,2.92,0,0,0,1.88-2.13A4.84,4.84,0,0,0,495.08,277.8Z" transform="translate(-169.05 -28.34)"/><path class="cls-6" d="M497.63,300.07l-5.13-2.95a4.91,4.91,0,0,0,.08-.74l5.39,3.11h0l4,2.31-.1.05a.43.43,0,0,0-.24.42v.12h0l-4-2.32Z" transform="translate(-169.05 -28.34)"/><path class="cls-9" d="M491.51,277a2.18,2.18,0,0,1,1.28-.52,2.77,2.77,0,0,1,2.29,1.28,4.84,4.84,0,0,1,.7,4,2.92,2.92,0,0,1-1.88,2.13,2.1,2.1,0,0,1-1.42-.13l1.15-.17a2.51,2.51,0,0,0,1.9-2,4,4,0,0,0-.33-3.12,2.62,2.62,0,0,0-2.55-1.62Z" transform="translate(-169.05 -28.34)"/><polygon class="cls-2" points="389.94 391.53 322.12 453.77 322.05 453.54 323.09 449.98 388.01 390.41 389.94 391.53"/><polygon class="cls-4" points="321.72 89.3 321.72 92.94 321.72 100.08 262.1 134.88 169.94 81.67 169.94 1.36 321.72 88.99 321.72 89.3"/><path class="cls-6" d="M490.36,239.48l5.4,3.11h0l4.25,2.45-1.08.16-3.51-2h0l-5.13-3A3.75,3.75,0,0,0,490.36,239.48Z" transform="translate(-169.05 -28.34)"/><polygon class="cls-3" points="319.79 452.42 319.79 453.99 162.37 545.88 162.37 462.8 319.79 370.91 319.79 448.07 319.79 452.42"/><path class="cls-2" d="M488.84,399.25,331.42,491.14,173.13,399.75l159.16-90.89,53.18,30.71Zm-61.55,33.14,56.76-33.14L332.28,311.62,177.94,399.76l57.39,33.14,96.08,55.46Z" transform="translate(-169.05 -28.34)"/><path class="cls-7" d="M485.29,300.17a3.14,3.14,0,0,1-2.18-.41,3.39,3.39,0,0,1,1.19-6.29l.08,0,1.42-.2,1.09-.16.24,0,1.14-.16a2.62,2.62,0,0,1,2.55,1.62,4,4,0,0,1,.33,3.13,2.51,2.51,0,0,1-1.91,2l-1.14.16h0l-2.75.4Z" transform="translate(-169.05 -28.34)"/><path class="cls-8" d="M488.41,292.53l.8-.12a2.89,2.89,0,0,1,2.8,1.78,4.62,4.62,0,0,1,.57,2.19,4.91,4.91,0,0,1-.08.74c0,.17-.07.33-.12.51a2.78,2.78,0,0,1-2.1,2.17l-.76.11h0a2.88,2.88,0,0,0,1.88-2.13,4.81,4.81,0,0,0-.7-3.95,2.76,2.76,0,0,0-2.29-1.29Z" transform="translate(-169.05 -28.34)"/><path class="cls-6" d="M488.2,312.39l5.39,3.11h0l4,2.31-.1.06a.41.41,0,0,0-.24.41v.12h0l-4-2.31h0l-5.13-3A4.91,4.91,0,0,0,488.2,312.39Z" transform="translate(-169.05 -28.34)"/><path class="cls-9" d="M488.27,292.89l-1.14.16a2.14,2.14,0,0,1,1.28-.52,2.76,2.76,0,0,1,2.29,1.29,4.81,4.81,0,0,1,.7,3.95,2.88,2.88,0,0,1-1.88,2.13,2.11,2.11,0,0,1-1.42-.13l1.14-.16a2.51,2.51,0,0,0,1.91-2,4,4,0,0,0-.33-3.13A2.62,2.62,0,0,0,488.27,292.89Z" transform="translate(-169.05 -28.34)"/><path class="cls-7" d="M483.08,243.28a3.15,3.15,0,0,1-2.18-.43,3.38,3.38,0,0,1,1.18-6.28l.1,0,1.41-.2,1.08-.15.25,0,1.14-.17a2.61,2.61,0,0,1,2.54,1.62,3.94,3.94,0,0,1,.34,3.13,2.51,2.51,0,0,1-1.91,2l-1.14.16-2.75.4Z" transform="translate(-169.05 -28.34)"/><path class="cls-8" d="M486.2,235.63l.8-.11a2.89,2.89,0,0,1,2.8,1.77,4.46,4.46,0,0,1,.56,2.19,3.75,3.75,0,0,1-.07.73c0,.17-.07.34-.12.52a2.77,2.77,0,0,1-2.1,2.17l-.78.12h0a2.88,2.88,0,0,0,1.89-2.14,4.8,4.8,0,0,0-.69-4,2.79,2.79,0,0,0-2.29-1.28Z" transform="translate(-169.05 -28.34)"/><path class="cls-6" d="M485.91,256.23a3.78,3.78,0,0,0,.07-.74h0l5.39,3.11h0l4.25,2.46-1.08.15-3.51-2h0Z" transform="translate(-169.05 -28.34)"/><path class="cls-9" d="M486.06,236l-1.14.17a2.11,2.11,0,0,1,1.28-.53,2.79,2.79,0,0,1,2.29,1.28,4.8,4.8,0,0,1,.69,4,2.88,2.88,0,0,1-1.89,2.14,2.11,2.11,0,0,1-1.4-.14l1.14-.16a2.51,2.51,0,0,0,1.91-2,3.94,3.94,0,0,0-.34-3.13A2.61,2.61,0,0,0,486.06,236Z" transform="translate(-169.05 -28.34)"/><path class="cls-7" d="M480.91,316.19a3.15,3.15,0,0,1-2.18-.42,3.39,3.39,0,0,1,1.19-6.29H480l1.41-.21,1.09-.16.24,0,1.14-.17a2.64,2.64,0,0,1,2.55,1.62,4,4,0,0,1,.34,3.12,2.52,2.52,0,0,1-1.92,2l-1.14.16-2.75.4Z" transform="translate(-169.05 -28.34)"/><path class="cls-8" d="M484,308.54l.81-.11a2.85,2.85,0,0,1,2.79,1.77,4.65,4.65,0,0,1,.57,2.19,4.91,4.91,0,0,1-.08.74c0,.17-.07.33-.12.51a2.75,2.75,0,0,1-2.1,2.17l-.77.11h0a2.88,2.88,0,0,0,1.89-2.14,4.85,4.85,0,0,0-.69-3.95A2.82,2.82,0,0,0,484,308.54Z" transform="translate(-169.05 -28.34)"/><polygon class="cls-1" points="315 370.91 258.23 404.05 163.23 349.2 163.23 283.29 315 370.91"/><path class="cls-9" d="M482.75,309.07a2.16,2.16,0,0,1,1.28-.53,2.82,2.82,0,0,1,2.3,1.29,4.85,4.85,0,0,1,.69,3.95,2.88,2.88,0,0,1-1.89,2.14,2.14,2.14,0,0,1-1.41-.14l1.14-.16a2.52,2.52,0,0,0,1.92-2,4,4,0,0,0-.34-3.12,2.64,2.64,0,0,0-2.55-1.62Z" transform="translate(-169.05 -28.34)"/><path class="cls-8" d="M481.82,251.64l.8-.12a2.89,2.89,0,0,1,2.8,1.79,4.35,4.35,0,0,1,.56,2.18,3.78,3.78,0,0,1-.07.74c0,.17-.07.33-.11.51a2.81,2.81,0,0,1-2.11,2.18l-.76.1a2.91,2.91,0,0,0,1.87-2.13,4.79,4.79,0,0,0-.69-4A2.78,2.78,0,0,0,481.82,251.64Z" transform="translate(-169.05 -28.34)"/><path class="cls-6" d="M481.61,271.5l5.39,3.12h0l4.26,2.46-1.09.16-3.51-2h0l-5.13-2.95A5,5,0,0,0,481.61,271.5Z" transform="translate(-169.05 -28.34)"/><path class="cls-9" d="M481.68,252l-1.14.17a2.11,2.11,0,0,1,1.28-.53,2.78,2.78,0,0,1,2.29,1.29,4.79,4.79,0,0,1,.69,4,2.91,2.91,0,0,1-1.87,2.13,2.11,2.11,0,0,1-1.42-.14l1.14-.16a2.51,2.51,0,0,0,1.91-2,3.94,3.94,0,0,0-.34-3.13A2.61,2.61,0,0,0,481.68,252Z" transform="translate(-169.05 -28.34)"/><path class="cls-7" d="M478.7,259.29a3.39,3.39,0,0,1-1-6.71h.1l1.41-.21,1.08-.16.25,0,1.14-.17a2.61,2.61,0,0,1,2.54,1.62,3.94,3.94,0,0,1,.34,3.13,2.51,2.51,0,0,1-1.91,2l-1.14.16-2.75.4Z" transform="translate(-169.05 -28.34)"/><path class="cls-7" d="M474.32,275.3a3.15,3.15,0,0,1-2.18-.42,3.39,3.39,0,0,1,1.19-6.29h.08l1.42-.21,1.09-.15.24,0,1.14-.16a2.6,2.6,0,0,1,2.54,1.62,4,4,0,0,1,.35,3.12,2.53,2.53,0,0,1-1.92,2l-1.14.16h0l-2.75.4Z" transform="translate(-169.05 -28.34)"/><path class="cls-8" d="M477.44,267.66l.8-.12a2.89,2.89,0,0,1,2.8,1.77,4.62,4.62,0,0,1,.57,2.19,5,5,0,0,1-.08.75q0,.24-.12.51a2.76,2.76,0,0,1-2.1,2.16l-.76.11h0a2.9,2.9,0,0,0,1.88-2.13,4.84,4.84,0,0,0-.7-4,2.74,2.74,0,0,0-2.29-1.28Z" transform="translate(-169.05 -28.34)"/><path class="cls-6" d="M477.23,287.51l5.39,3.12h0l4.26,2.46-1.09.16-3.51-2h0l-5.13-3A4.78,4.78,0,0,0,477.23,287.51Z" transform="translate(-169.05 -28.34)"/><path class="cls-9" d="M477.3,268l-1.14.16a2.14,2.14,0,0,1,1.28-.52,2.74,2.74,0,0,1,2.29,1.28,4.84,4.84,0,0,1,.7,4,2.9,2.9,0,0,1-1.88,2.13,2.06,2.06,0,0,1-1.42-.14l1.14-.16a2.53,2.53,0,0,0,1.92-2,4,4,0,0,0-.35-3.12A2.6,2.6,0,0,0,477.3,268Z" transform="translate(-169.05 -28.34)"/><path class="cls-6" d="M474.94,231.36a3.88,3.88,0,0,0,.07-.75h0l5.39,3.12h0l4.25,2.47-1.08.15-3.51-2h0Z" transform="translate(-169.05 -28.34)"/><path class="cls-4" d="M460.92,241l3-10.87.08,0a3.41,3.41,0,0,0,1.58,3.84,3.14,3.14,0,0,0,2.18.41h.06l2.75-.4a2.1,2.1,0,0,0,1.42.13l.76-.1a2.78,2.78,0,0,0,2.1-2.17q.07-.27.12-.51l5.13,3h0l3.51,2-1.41.2-.1,0a3.38,3.38,0,0,0-1.18,6.28,3.15,3.15,0,0,0,2.18.43h.06l2.75-.4a2.11,2.11,0,0,0,1.4.14h0l.78-.12a2.77,2.77,0,0,0,2.1-2.17c.05-.18.09-.35.12-.52l5.13,3h0l3.51,2-1.51.22a3.39,3.39,0,0,0-1.18,6.29,3.15,3.15,0,0,0,2.18.42l2.81-.41h0a2.09,2.09,0,0,0,1.41.14h0l.77-.11a2.78,2.78,0,0,0,2.1-2.17c.05-.18.09-.34.12-.51l5.13,3h0l4,2.31h0c0,.54.05,1.28.67,1.51.32.13.62,0,.93,0a2.11,2.11,0,0,1,.87.34,2.5,2.5,0,0,1,.75.55c.22.24.23.57.46.81.51.53,1.24.19,1.73-.09l3.78,2.18L519.79,275l-3.63-2.1c0-.78-.19-1.71-1.19-1.56l-.21,0a3,3,0,0,1-1.75-.81c-.51-.49-.3-1.3-1.38-1.15a2.48,2.48,0,0,0-.89.35l-4-2.31h0l-5.4-3.12a4.52,4.52,0,0,0-.56-2.19,2.89,2.89,0,0,0-2.8-1.77l-.83.12a2.19,2.19,0,0,0-1.25.52l-.25,0-4.25-2.46h0L486,255.49h0a4.35,4.35,0,0,0-.56-2.18,2.89,2.89,0,0,0-2.8-1.79l-.8.12a2.11,2.11,0,0,0-1.28.53l-.25,0L476,249.75h0l-5.39-3.11h0a4.49,4.49,0,0,0-.56-2.19,2.88,2.88,0,0,0-2.8-1.77l-.8.11h0a2.16,2.16,0,0,0-1.28.53l-.25,0Z" transform="translate(-169.05 -28.34)"/><path class="cls-7" d="M469.94,291.31a3.15,3.15,0,0,1-2.18-.42A3.39,3.39,0,0,1,469,284.6H469l1.41-.2,1.09-.16.24,0,1.14-.17a2.62,2.62,0,0,1,2.55,1.62,4,4,0,0,1,.34,3.12,2.52,2.52,0,0,1-1.92,2l-1.14.17-2.75.4Z" transform="translate(-169.05 -28.34)"/><path class="cls-8" d="M473.06,283.67l.8-.12a2.89,2.89,0,0,1,2.8,1.78,4.58,4.58,0,0,1,.57,2.18,4.78,4.78,0,0,1-.08.74,4.7,4.7,0,0,1-.12.51,2.78,2.78,0,0,1-2.1,2.18l-.76.11a2.92,2.92,0,0,0,1.88-2.14,4.87,4.87,0,0,0-.69-4A2.79,2.79,0,0,0,473.06,283.67Z" transform="translate(-169.05 -28.34)"/><path class="cls-6" d="M472.77,304.26a4.65,4.65,0,0,0,.08-.73l5.39,3.11h0l4.26,2.45-1.09.16-3.51-2h0Z" transform="translate(-169.05 -28.34)"/><path class="cls-9" d="M472.92,284l-1.14.17a2.16,2.16,0,0,1,1.28-.53,2.79,2.79,0,0,1,2.3,1.28,4.87,4.87,0,0,1,.69,4,2.92,2.92,0,0,1-1.88,2.14,2.18,2.18,0,0,1-1.42-.14l1.14-.17a2.52,2.52,0,0,0,1.92-2,4,4,0,0,0-.34-3.12A2.62,2.62,0,0,0,472.92,284Z" transform="translate(-169.05 -28.34)"/><path class="cls-7" d="M467.73,234.41a3.14,3.14,0,0,1-2.18-.41,3.4,3.4,0,0,1,1.18-6.3h.1l1.41-.2,1.08-.16.25,0,1.14-.16a2.62,2.62,0,0,1,2.54,1.61,3.94,3.94,0,0,1,.34,3.13,2.48,2.48,0,0,1-1.91,2l-1.14.17-2.75.4Z" transform="translate(-169.05 -28.34)"/><path class="cls-8" d="M473.14,228.05a2.77,2.77,0,0,0-2.29-1.28l.8-.12a2.9,2.9,0,0,1,2.8,1.78,4.37,4.37,0,0,1,.56,2.18,3.88,3.88,0,0,1-.07.75q0,.24-.12.51a2.78,2.78,0,0,1-2.1,2.17l-.76.1a2.87,2.87,0,0,0,1.87-2.13A4.8,4.8,0,0,0,473.14,228.05Z" transform="translate(-169.05 -28.34)"/><path class="cls-6" d="M470.64,246.63l5.39,3.11h0l4.25,2.45-1.08.16-3.51-2h0l-5.13-3a3.85,3.85,0,0,0,.07-.74Z" transform="translate(-169.05 -28.34)"/><path class="cls-4" d="M459.51,246.15l.08,0a3.41,3.41,0,0,0,1.58,3.84,3.2,3.2,0,0,0,2.18.42h.06l2.75-.4a2.1,2.1,0,0,0,1.42.13h0l.76-.11a2.77,2.77,0,0,0,2.1-2.17c.05-.17.09-.35.12-.51l5.13,3h0l3.51,2-1.41.21h-.1a3.39,3.39,0,0,0,1,6.71h.06l2.75-.4a2.11,2.11,0,0,0,1.42.14l.76-.1a2.81,2.81,0,0,0,2.11-2.18c0-.18.08-.34.11-.51l5.13,3h0l3.51,2-1.41.21h-.1a3.39,3.39,0,0,0-1.18,6.29,3.15,3.15,0,0,0,2.18.42h.06l2.75-.4h0a2,2,0,0,0,1.41.14l.76-.11a2.75,2.75,0,0,0,2.1-2.17,4.7,4.7,0,0,0,.12-.51l5.13,3h0l4,2.31h0c0,.53,0,1.28.67,1.51.32.13.61,0,.93,0a2.25,2.25,0,0,1,.87.33,2.76,2.76,0,0,1,.75.57c.22.24.23.57.46.81.51.52,1.24.17,1.73-.1h0l3.78,2.18L515.41,291l-3.63-2.09c0-.79-.19-1.72-1.19-1.57l-.21,0a3,3,0,0,1-1.75-.81c-.51-.49-.3-1.3-1.38-1.14a2.37,2.37,0,0,0-.89.35h0l-4-2.32L497,280.36a4.47,4.47,0,0,0-.57-2.18,2.9,2.9,0,0,0-2.8-1.78l-.8.12a2.18,2.18,0,0,0-1.28.52l-.24,0L487,274.62h0l-5.39-3.12a4.62,4.62,0,0,0-.57-2.19,2.89,2.89,0,0,0-2.8-1.77l-.8.12h0a2.14,2.14,0,0,0-1.28.52l-.24,0-4.26-2.46h0l-5.39-3.11h0a4.45,4.45,0,0,0-.56-2.18,2.87,2.87,0,0,0-2.8-1.78l-.8.11a2.11,2.11,0,0,0-1.27.53h0l-.24,0-4-2.33h0Z" transform="translate(-169.05 -28.34)"/><path class="cls-9" d="M470.71,227.13l-1.14.16a2.1,2.1,0,0,1,1.28-.52,2.77,2.77,0,0,1,2.29,1.28,4.8,4.8,0,0,1,.69,4,2.87,2.87,0,0,1-1.87,2.13,2.1,2.1,0,0,1-1.42-.13l1.14-.17a2.48,2.48,0,0,0,1.91-2,3.94,3.94,0,0,0-.34-3.13A2.62,2.62,0,0,0,470.71,227.13Z" transform="translate(-169.05 -28.34)"/><path class="cls-7" d="M465.56,307.33a3.2,3.2,0,0,1-2.18-.42,3.39,3.39,0,0,1,1.19-6.29l.09,0,1.42-.2,1.08-.16.24,0,1.15-.16a2.62,2.62,0,0,1,2.54,1.62,4,4,0,0,1,.33,3.13,2.52,2.52,0,0,1-1.9,2l-1.14.16h0l-2.75.4Z" transform="translate(-169.05 -28.34)"/><path class="cls-8" d="M468.68,299.68l.8-.12a2.89,2.89,0,0,1,2.8,1.78,4.48,4.48,0,0,1,.57,2.19,4.65,4.65,0,0,1-.08.73c0,.17-.07.34-.11.52a2.79,2.79,0,0,1-2.11,2.17l-.76.11h0a2.87,2.87,0,0,0,1.88-2.12,4.89,4.89,0,0,0-.69-4,2.77,2.77,0,0,0-2.3-1.28Z" transform="translate(-169.05 -28.34)"/><path class="cls-9" d="M467.4,300.2a2.21,2.21,0,0,1,1.28-.52A2.77,2.77,0,0,1,471,301a4.89,4.89,0,0,1,.69,4,2.87,2.87,0,0,1-1.88,2.12,2.08,2.08,0,0,1-1.41-.13l1.14-.16a2.52,2.52,0,0,0,1.9-2,4,4,0,0,0-.33-3.13,2.62,2.62,0,0,0-2.54-1.62Z" transform="translate(-169.05 -28.34)"/><path class="cls-7" d="M466.33,243.14a2.61,2.61,0,0,1,2.54,1.62,4,4,0,0,1,.35,3.13,2.53,2.53,0,0,1-1.92,2l-1.14.16-2.75.4h-.06a3.2,3.2,0,0,1-2.18-.42,3.39,3.39,0,0,1,1.19-6.29l.08,0,1.42-.2,1.08-.15.25,0Z" transform="translate(-169.05 -28.34)"/><path class="cls-8" d="M466.47,242.78l.8-.11a2.88,2.88,0,0,1,2.8,1.77,4.49,4.49,0,0,1,.56,2.19,3.85,3.85,0,0,1-.07.74c0,.16-.07.34-.12.51a2.77,2.77,0,0,1-2.1,2.17l-.76.11h0a2.86,2.86,0,0,0,1.87-2.13,4.8,4.8,0,0,0-.69-4,2.79,2.79,0,0,0-2.29-1.28Z" transform="translate(-169.05 -28.34)"/><path class="cls-6" d="M466.18,263.38a3.78,3.78,0,0,0,.07-.74h0l5.39,3.11h0l4.26,2.46-1.09.15-3.51-2h0Z" transform="translate(-169.05 -28.34)"/><path class="cls-4" d="M455.13,262.16l.08,0a3.39,3.39,0,0,0,1.58,3.83,3.15,3.15,0,0,0,2.18.42H459l2.75-.4h0a2.17,2.17,0,0,0,1.42.13l.76-.11a2.75,2.75,0,0,0,2.1-2.17c.05-.18.09-.34.12-.51l5.13,3h0l3.51,2-1.42.21h-.08a3.39,3.39,0,0,0-1.19,6.29,3.15,3.15,0,0,0,2.18.42h.06l2.75-.4h0a2.06,2.06,0,0,0,1.42.14h0l.76-.11a2.76,2.76,0,0,0,2.1-2.16q.07-.27.12-.51l5.13,2.95h0l3.51,2-1.41.2h-.1a3.4,3.4,0,0,0-1.18,6.3,3.2,3.2,0,0,0,2.18.41h.06l2.75-.4a2.1,2.1,0,0,0,1.42.13h0l.76-.11a2.81,2.81,0,0,0,2.11-2.18c0-.17.08-.34.11-.51l5.13,3,4,2.31h0c0,.54.05,1.28.67,1.51.33.13.62,0,.93,0a2.1,2.1,0,0,1,.87.33,2.69,2.69,0,0,1,.75.55c.22.25.23.58.46.82.51.53,1.24.18,1.73-.1l3.79,2.19L511,307l-3.63-2.1c0-.78-.18-1.7-1.19-1.56l-.21,0a2.92,2.92,0,0,1-1.74-.81c-.52-.48-.31-1.3-1.39-1.15a2.64,2.64,0,0,0-.88.36l-4-2.31h0l-5.39-3.11a4.62,4.62,0,0,0-.57-2.19,2.89,2.89,0,0,0-2.8-1.78l-.8.12h0a2.14,2.14,0,0,0-1.28.52l-.24,0-4.26-2.46h0l-5.39-3.12a4.58,4.58,0,0,0-.57-2.18,2.89,2.89,0,0,0-2.8-1.78l-.8.12a2.16,2.16,0,0,0-1.28.53l-.24,0-4.26-2.46h0l-5.39-3.12a4.47,4.47,0,0,0-.57-2.18,2.9,2.9,0,0,0-2.8-1.78l-.8.12h0a2.14,2.14,0,0,0-1.28.52l-.24,0-4-2.33Z" transform="translate(-169.05 -28.34)"/><path class="cls-9" d="M465.19,243.31a2.16,2.16,0,0,1,1.28-.53,2.79,2.79,0,0,1,2.29,1.28,4.8,4.8,0,0,1,.69,4,2.86,2.86,0,0,1-1.87,2.13,2.1,2.1,0,0,1-1.42-.13l1.14-.16a2.53,2.53,0,0,0,1.92-2,4,4,0,0,0-.35-3.13,2.61,2.61,0,0,0-2.54-1.62Z" transform="translate(-169.05 -28.34)"/><path class="cls-6" d="M464.75,225c.07-.12.19-.22.32-.15l4.25,2.46-1.08.16-3.13-1.81h0l-.17-.09a.71.71,0,0,1-.27-.39A1.26,1.26,0,0,1,464.75,225Z" transform="translate(-169.05 -28.34)"/><path class="cls-4" d="M466.73,227.7a3.41,3.41,0,0,0-2.76,2.46l-.08,0,1.22-4.46,3.13,1.81-1.41.2Z" transform="translate(-169.05 -28.34)"/><path class="cls-7" d="M459,266.44a3.15,3.15,0,0,1-2.18-.42,3.39,3.39,0,0,1,1.19-6.29l.09,0,1.41-.2,1.09-.15.24,0h0l1.13-.17a2.64,2.64,0,0,1,2.55,1.62,4,4,0,0,1,.33,3.13,2.51,2.51,0,0,1-1.91,2l-1.14.16-2.75.4Z" transform="translate(-169.05 -28.34)"/><path class="cls-8" d="M462.09,258.79l.8-.11a2.87,2.87,0,0,1,2.8,1.78,4.45,4.45,0,0,1,.56,2.18,3.78,3.78,0,0,1-.07.74c0,.17-.07.33-.12.51a2.75,2.75,0,0,1-2.1,2.17l-.76.11a2.87,2.87,0,0,0,1.87-2.13,4.82,4.82,0,0,0-.68-4A2.82,2.82,0,0,0,462.09,258.79Z" transform="translate(-169.05 -28.34)"/><path class="cls-6" d="M466.93,282.35l-5.13-3a4.78,4.78,0,0,0,.08-.74l5.39,3.12h0l4.26,2.46-1.09.16-3.51-2Z" transform="translate(-169.05 -28.34)"/><path class="cls-9" d="M460.82,259.32a2.11,2.11,0,0,1,1.27-.53,2.82,2.82,0,0,1,2.3,1.29,4.82,4.82,0,0,1,.68,4,2.87,2.87,0,0,1-1.87,2.13,2.17,2.17,0,0,1-1.42-.13h0l1.14-.16a2.51,2.51,0,0,0,1.91-2,4,4,0,0,0-.33-3.13,2.64,2.64,0,0,0-2.55-1.62Z" transform="translate(-169.05 -28.34)"/><path class="cls-6" d="M460.29,241.21c.07,0,.53-.25.62-.2h0l4,2.34-1.08.15-3.13-1.81-.16-.09A.65.65,0,0,1,460.29,241.21Z" transform="translate(-169.05 -28.34)"/><path class="cls-6" d="M460.17,241.18l4.39-16.06s.07.06.11.08a.71.71,0,0,0,.27.39l.17.09h0l-1.22,4.46-3,10.87h0c-.09,0-.55.17-.62.2Z" transform="translate(-169.05 -28.34)"/><path class="cls-4" d="M462.36,243.72a3.4,3.4,0,0,0-2.77,2.45l-.08,0,1.22-4.46,3.13,1.81-1.42.2Z" transform="translate(-169.05 -28.34)"/><path class="cls-4" d="M450.83,278.2a3.39,3.39,0,0,0,1.58,3.83,3.15,3.15,0,0,0,2.18.42h.06l2.75-.4h0a2,2,0,0,0,1.41.14h0l.76-.11a2.78,2.78,0,0,0,2.11-2.16c0-.18.09-.35.11-.52l5.13,3h0l3.51,2-1.41.2H469a3.39,3.39,0,0,0-1.19,6.29,3.15,3.15,0,0,0,2.18.42H470l2.75-.4a2.18,2.18,0,0,0,1.42.14l.76-.11a2.78,2.78,0,0,0,2.1-2.18,4.7,4.7,0,0,0,.12-.51l5.13,3h0l3.51,2-1.42.2-.08,0a3.39,3.39,0,0,0-1.19,6.29,3.14,3.14,0,0,0,2.18.41h.06l2.75-.4h0a2.11,2.11,0,0,0,1.42.13h0l.76-.11a2.78,2.78,0,0,0,2.1-2.17c.05-.18.09-.34.12-.51l5.13,2.95h0l4,2.32h0c0,.53.05,1.27.67,1.51.33.12.62,0,.93,0a2.1,2.1,0,0,1,.87.33,2.42,2.42,0,0,1,.75.56c.22.24.23.57.46.81.51.53,1.24.18,1.73-.1h0l3.79,2.18L506.65,323,503,321c0-.79-.18-1.71-1.19-1.56l-.21,0a3,3,0,0,1-1.75-.8c-.51-.49-.3-1.31-1.38-1.15a2.43,2.43,0,0,0-.88.35l-4-2.31h0l-5.39-3.11a4.65,4.65,0,0,0-.57-2.19,2.85,2.85,0,0,0-2.79-1.77l-.81.11a2.16,2.16,0,0,0-1.28.53l-.24,0-4.26-2.45h0l-5.39-3.11a4.48,4.48,0,0,0-.57-2.19,2.89,2.89,0,0,0-2.8-1.78l-.8.12h0a2.21,2.21,0,0,0-1.28.52l-.24,0-4.26-2.46h0l-5.39-3.12a4.5,4.5,0,0,0-.57-2.18,2.88,2.88,0,0,0-2.8-1.78l-.8.12a2.17,2.17,0,0,0-1.28.52h0l-.24,0-4-2.33,3-10.88Z" transform="translate(-169.05 -28.34)"/><path class="cls-7" d="M454.59,282.45a3.15,3.15,0,0,1-2.18-.42,3.39,3.39,0,0,1,1.19-6.29h.09l1.42-.21,1.08-.15.24,0,1.14-.16a2.61,2.61,0,0,1,2.54,1.61,3.94,3.94,0,0,1,.34,3.13,2.51,2.51,0,0,1-1.9,2l-1.14.16h0l-2.75.4Z" transform="translate(-169.05 -28.34)"/><path class="cls-8" d="M457.71,274.81l.8-.12a2.9,2.9,0,0,1,2.8,1.78,4.47,4.47,0,0,1,.57,2.18,4.78,4.78,0,0,1-.08.74c0,.17-.07.34-.11.52a2.78,2.78,0,0,1-2.11,2.16l-.76.11h0a2.92,2.92,0,0,0,1.88-2.13,4.86,4.86,0,0,0-.69-4,2.75,2.75,0,0,0-2.3-1.28Z" transform="translate(-169.05 -28.34)"/><path class="cls-6" d="M457.42,295.41a4.9,4.9,0,0,0,.08-.75l5.39,3.12h0l4.26,2.46-1.08.16-3.52-2h0Z" transform="translate(-169.05 -28.34)"/><path class="cls-4" d="M442.8,236.74l50.85-29.68V151.61l119.77,69.15,1.86,1.08,13.05,7.54L573.49,428.24,559,419.87l-1.93-1.12L415.2,336.85l.28-1,.18-.68.42-1.52.27-1Zm4.35,52.51c0,.1-.06.19.06.26l3.51,2-1.41.21h-.09a3.4,3.4,0,0,0-1.19,6.3,3.2,3.2,0,0,0,2.18.41h.06l2.75-.39h0a2.14,2.14,0,0,0,1.41.14h0l.77-.12a2.78,2.78,0,0,0,2.11-2.16c0-.18.08-.35.11-.51l5.13,3h0l3.52,2-1.42.2-.09,0a3.39,3.39,0,0,0-1.19,6.29,3.2,3.2,0,0,0,2.18.42h.06l2.75-.4h0a2.08,2.08,0,0,0,1.41.13h0l.76-.11a2.79,2.79,0,0,0,2.11-2.17c0-.18.09-.35.11-.52l5.13,3h0l3.51,2-1.41.21h-.09a3.39,3.39,0,0,0-1.19,6.29,3.15,3.15,0,0,0,2.18.42H481l2.75-.4a2.14,2.14,0,0,0,1.41.14h0l.77-.11a2.75,2.75,0,0,0,2.1-2.17c.05-.18.09-.34.12-.51l5.13,3h0l4,2.31h0c0,.53.05,1.27.67,1.51.33.13.62,0,.93,0a2.25,2.25,0,0,1,.87.33,2.78,2.78,0,0,1,.75.56c.22.24.23.58.46.81.51.53,1.25.18,1.73-.09l3.95,2.27s.06.07.15.05.15-.06.21-.15.17.06.2-.07l17.5-64h0c.06-.07-.05-.09-.1-.13s0-.24-.06-.26h0l-4-2.3c0-.79-.19-1.71-1.19-1.56l-.21,0a3,3,0,0,1-1.75-.8c-.51-.49-.3-1.31-1.38-1.15a2.67,2.67,0,0,0-.89.35l-4-2.31h0l-5.4-3.11h0a4.49,4.49,0,0,0-.56-2.19,2.89,2.89,0,0,0-2.8-1.77l-.81.11a2.13,2.13,0,0,0-1.27.53l-.25,0-4.25-2.45h0l-5.4-3.11a4.46,4.46,0,0,0-.56-2.19,2.89,2.89,0,0,0-2.8-1.77l-.8.11h0a2.11,2.11,0,0,0-1.28.53l-.25,0-4.25-2.47h0L475,230.61h0a4.37,4.37,0,0,0-.56-2.18,2.9,2.9,0,0,0-2.8-1.78l-.8.12a2.1,2.1,0,0,0-1.28.52l-.25,0-4.25-2.46c-.13-.07-.25,0-.32.15s-.12,0-.17,0,0,.05,0,.06l-4.39,16.06-4.38,16-4.38,16-4.36,15.93C447,289.21,447.11,289.22,447.15,289.25Z" transform="translate(-169.05 -28.34)"/><path class="cls-9" d="M457.57,275.17l-1.14.16a2.14,2.14,0,0,1,1.28-.52,2.75,2.75,0,0,1,2.3,1.28,4.86,4.86,0,0,1,.69,4,2.92,2.92,0,0,1-1.88,2.13,2,2,0,0,1-1.41-.14l1.14-.16a2.51,2.51,0,0,0,1.9-2,3.94,3.94,0,0,0-.34-3.13A2.61,2.61,0,0,0,457.57,275.17Z" transform="translate(-169.05 -28.34)"/><path class="cls-6" d="M456.35,257.7l-.16-.09a.66.66,0,0,1-.28-.38c.07,0,.52-.25.62-.21h0l4,2.33-1.09.15Z" transform="translate(-169.05 -28.34)"/><path class="cls-6" d="M456.53,257c-.1,0-.55.17-.62.21l-.12,0,4.38-16,.12,0a.65.65,0,0,0,.28.39l.16.09-1.22,4.46-3,10.88Z" transform="translate(-169.05 -28.34)"/><path class="cls-4" d="M455.13,262.16l1.22-4.46,3.13,1.81-1.41.2-.09,0a3.41,3.41,0,0,0-2.77,2.46Z" transform="translate(-169.05 -28.34)"/><path class="cls-7" d="M450.72,291.53l1.09-.15.24,0h0l1.14-.16a2.64,2.64,0,0,1,2.55,1.62,4,4,0,0,1,.34,3.12,2.52,2.52,0,0,1-1.91,2l-1.15.17-2.75.39h-.06a3.2,3.2,0,0,1-2.18-.41,3.4,3.4,0,0,1,1.19-6.3h.09Z" transform="translate(-169.05 -28.34)"/><path class="cls-8" d="M453.33,290.82l.8-.12a2.88,2.88,0,0,1,2.8,1.78,4.5,4.5,0,0,1,.57,2.18,4.9,4.9,0,0,1-.08.75c0,.16-.07.33-.11.51a2.78,2.78,0,0,1-2.11,2.16l-.77.12h0a2.89,2.89,0,0,0,1.89-2.14,4.84,4.84,0,0,0-.7-4A2.76,2.76,0,0,0,453.33,290.82Z" transform="translate(-169.05 -28.34)"/><path class="cls-9" d="M453.19,291.18l-1.14.16a2.17,2.17,0,0,1,1.28-.52,2.76,2.76,0,0,1,2.29,1.28,4.84,4.84,0,0,1,.7,4,2.89,2.89,0,0,1-1.89,2.14,2.14,2.14,0,0,1-1.41-.14h0l1.15-.17a2.52,2.52,0,0,0,1.91-2,4,4,0,0,0-.34-3.12A2.64,2.64,0,0,0,453.19,291.18Z" transform="translate(-169.05 -28.34)"/><path class="cls-6" d="M452.16,273h0l4,2.33-1.08.15-3.14-1.8-.16-.1a.62.62,0,0,1-.28-.39c.07,0,.52-.24.62-.2h0Z" transform="translate(-169.05 -28.34)"/><path class="cls-6" d="M452.15,273c-.1,0-.55.17-.62.2l-.12,0,4.38-16,.12,0a.66.66,0,0,0,.28.38l.16.09-1.22,4.46-3,10.88h0Z" transform="translate(-169.05 -28.34)"/><path class="cls-4" d="M450.75,278.17l1.22-4.45,3.14,1.8-1.42.21h-.09a3.41,3.41,0,0,0-2.77,2.46Z" transform="translate(-169.05 -28.34)"/><path class="cls-6" d="M447.05,289.13l4.36-15.93.12,0a.62.62,0,0,0,.28.39l.16.1-1.22,4.45-3,10.88,4,2.33-1.09.15-3.51-2c-.12-.07-.08-.16-.06-.26S447,289.21,447.05,289.13Z" transform="translate(-169.05 -28.34)"/><polygon class="cls-2" points="273.75 208.4 247.3 304.32 232.38 295.71 253.15 220.43 273.75 208.4"/><polygon class="cls-4" points="258.23 404.05 162.35 460.02 66.28 404.56 163.23 349.2 258.23 404.05"/><polygon class="cls-3" points="247.03 305.29 246.61 306.81 232.77 298.82 233.79 297.64 247.03 305.29"/><polygon class="cls-2" points="232.38 295.71 247.3 304.32 247.03 305.29 233.79 297.64 232.38 295.71"/><polygon class="cls-2" points="232.77 298.82 246.61 306.81 246.43 307.49 230.5 298.3 232.77 298.82"/><polygon class="cls-1" points="163.23 283.29 163.23 349.2 66.28 404.56 8.88 371.42 163.23 283.29"/><polygon class="cls-3" points="162.37 462.8 162.37 545.88 4.07 454.49 4.07 371.41 162.37 462.8"/><polygon class="cls-10" points="157.56 184.74 157.56 265.05 4.09 176.45 4.09 166.51 4.09 96.14 65.36 131.51 157.56 184.74"/><polygon class="cls-4" points="154.59 0.25 154.59 80.56 65.36 131.51 4.09 96.14 4.09 166.51 0.25 168.7 0.25 88.39 154.59 0.25"/><line class="cls-11" x1="294.91" y1="237.72" x2="294.15" y2="237.83"/><line class="cls-11" x1="293.03" y1="230.45" x2="293.84" y2="230.34"/><line class="cls-11" x1="322.12" y1="453.77" x2="389.94" y2="391.53"/><line class="cls-11" x1="322.12" y1="453.77" x2="322.04" y2="453.54"/><line class="cls-11" x1="323.09" y1="449.98" x2="388.01" y2="390.41"/><path class="cls-11" d="M456.79,266a3.39,3.39,0,0,1-1.58-3.83" transform="translate(-169.05 -28.34)"/><polyline class="cls-11" points="448.15 185.94 447.85 186.02 445.49 186.63"/><line class="cls-11" x1="324.59" y1="116.83" x2="445.49" y2="186.63"/><line class="cls-11" x1="310.25" y1="246.58" x2="309.5" y2="246.69"/><line class="cls-11" x1="431.05" y1="156.07" x2="321.72" y2="92.94"/><polyline class="cls-11" points="310.16 224.02 306.65 221.99 306.63 221.99 301.5 219.03"/><polyline class="cls-11" points="301.58 218.29 306.98 221.4 306.99 221.41 311.24 223.86"/><line class="cls-11" x1="433.26" y1="153.7" x2="321.72" y2="89.3"/><line class="cls-11" x1="445.49" y1="186.63" x2="431.05" y2="156.07"/><line class="cls-11" x1="433.26" y1="153.7" x2="431.05" y2="156.07"/><line class="cls-11" x1="448.37" y1="185.7" x2="433.26" y2="153.7"/><line class="cls-11" x1="448.37" y1="185.7" x2="448.15" y2="185.94"/><polyline class="cls-11" points="445.52 188.24 447.85 186.02 448.15 185.73"/><line class="cls-11" x1="308.38" y1="239.32" x2="309.19" y2="239.2"/><line class="cls-11" x1="233.79" y1="297.65" x2="232.38" y2="295.71"/><path class="cls-11" d="M477.13,274.89l-2.75.4h-.06a3.15,3.15,0,0,1-2.18-.42" transform="translate(-169.05 -28.34)"/><line class="cls-11" x1="309.22" y1="246.39" x2="308.08" y2="246.55"/><path class="cls-11" d="M472.14,274.88a3.39,3.39,0,0,1-1.58-3.83" transform="translate(-169.05 -28.34)"/><line class="cls-11" x1="232.38" y1="295.71" x2="247.3" y2="304.32"/><path class="cls-11" d="M470.56,271.05a3.39,3.39,0,0,1,2.77-2.46h.08l1.42-.21,1.09-.15.24,0,1.14-.16" transform="translate(-169.05 -28.34)"/><line class="cls-11" x1="445.52" y1="188.24" x2="324.59" y2="118.42"/><line class="cls-11" x1="233.79" y1="297.65" x2="247.03" y2="305.29"/><line class="cls-11" x1="253.15" y1="220.43" x2="232.38" y2="295.71"/><line class="cls-11" x1="321.22" y1="271.46" x2="320.47" y2="271.57"/><line class="cls-11" x1="319.35" y1="264.19" x2="320.16" y2="264.07"/><polyline class="cls-11" points="314.54 208.01 311.02 205.98 311.02 205.98 305.89 203.01"/><polyline class="cls-11" points="305.96 202.27 311.36 205.39 311.37 205.39 315.62 207.86"/><line class="cls-11" x1="448.37" y1="185.7" x2="448.15" y2="185.73"/><line class="cls-11" x1="446.22" y1="193.5" x2="448.37" y2="185.7"/><path class="cls-11" d="M488.1,299.77l-2.75.4h-.06a3.14,3.14,0,0,1-2.18-.41" transform="translate(-169.05 -28.34)"/><line class="cls-11" x1="320.19" y1="271.27" x2="319.05" y2="271.43"/><path class="cls-11" d="M483.11,299.76a3.4,3.4,0,0,1-1.58-3.83" transform="translate(-169.05 -28.34)"/><line class="cls-11" x1="444.36" y1="192.42" x2="445.52" y2="188.24"/><path class="cls-11" d="M481.53,295.93a3.39,3.39,0,0,1,2.77-2.46l.08,0,1.42-.2,1.09-.16.24,0,1.14-.16" transform="translate(-169.05 -28.34)"/><line class="cls-11" x1="157.56" y1="265.05" x2="157.56" y2="184.74"/><line class="cls-11" x1="4.09" y1="176.45" x2="157.56" y2="265.05"/><polyline class="cls-11" points="4.09 176.45 4.09 166.51 4.09 96.14"/><polyline class="cls-11" points="157.56 184.74 65.36 131.51 4.09 96.14"/><line class="cls-11" x1="169.94" y1="81.67" x2="169.94" y2="1.36"/><line class="cls-11" x1="262.1" y1="134.88" x2="169.94" y2="81.67"/><polyline class="cls-11" points="321.72 100.08 321.72 92.94 321.72 89.3 321.72 88.99"/><line class="cls-11" x1="169.94" y1="1.36" x2="321.72" y2="88.99"/><polyline class="cls-11" points="324.59 178.72 324.59 123.27 324.59 118.42 324.59 116.83 324.59 98.4"/><polyline class="cls-11" points="171.94 267.82 253.15 220.43 273.75 208.4 324.59 178.72"/><line class="cls-11" x1="171.95" y1="267.83" x2="171.95" y2="187.51"/><polyline class="cls-11" points="324.59 98.4 321.72 100.08 262.1 134.88 171.94 187.51"/><line class="cls-11" x1="0.25" y1="168.7" x2="0.25" y2="88.39"/><line class="cls-11" x1="4.09" y1="166.51" x2="0.25" y2="168.7"/><line class="cls-11" x1="154.59" y1="80.56" x2="65.36" y2="131.51"/><line class="cls-11" x1="154.59" y1="80.56" x2="154.59" y2="0.25"/><line class="cls-11" x1="0.25" y1="88.39" x2="154.59" y2="0.25"/><path class="cls-11" d="M501.41,244.86a2.59,2.59,0,0,1,2.54,1.61,3.94,3.94,0,0,1,.34,3.13" transform="translate(-169.05 -28.34)"/><path class="cls-11" d="M504.29,249.6a2.51,2.51,0,0,1-1.91,2" transform="translate(-169.05 -28.34)"/><path class="cls-11" d="M502.35,244.38a2.89,2.89,0,0,1,2.8,1.77,4.49,4.49,0,0,1,.56,2.19,4.86,4.86,0,0,1-.07.74c0,.17-.07.33-.12.51" transform="translate(-169.05 -28.34)"/><line class="cls-11" x1="290.53" y1="253.73" x2="289.76" y2="253.84"/><path class="cls-11" d="M505.52,249.59a2.78,2.78,0,0,1-2.1,2.17" transform="translate(-169.05 -28.34)"/><path class="cls-11" d="M500.27,245a2.13,2.13,0,0,1,1.27-.53,2.78,2.78,0,0,1,2.3,1.29,4.77,4.77,0,0,1,.69,3.95" transform="translate(-169.05 -28.34)"/><line class="cls-11" x1="288.66" y1="246.47" x2="289.46" y2="246.35"/><path class="cls-11" d="M504.53,249.73a2.88,2.88,0,0,1-1.88,2.14,2.09,2.09,0,0,1-1.41-.14" transform="translate(-169.05 -28.34)"/><line class="cls-11" x1="163.23" y1="349.2" x2="66.28" y2="404.56"/><line class="cls-11" x1="258.23" y1="404.05" x2="163.23" y2="349.2"/><polyline class="cls-11" points="459.28 201.03 446.22 193.5 444.37 192.43 324.59 123.27"/><path class="cls-11" d="M470.71,227.13a2.62,2.62,0,0,1,2.54,1.61,3.94,3.94,0,0,1,.34,3.13" transform="translate(-169.05 -28.34)"/><path class="cls-11" d="M457.4,282l-2.75.4h-.06a3.15,3.15,0,0,1-2.18-.42" transform="translate(-169.05 -28.34)"/><line class="cls-11" x1="289.49" y1="253.54" x2="288.35" y2="253.7"/><path class="cls-11" d="M473.59,231.87a2.48,2.48,0,0,1-1.91,2" transform="translate(-169.05 -28.34)"/><path class="cls-11" d="M471.65,226.65a2.9,2.9,0,0,1,2.8,1.78,4.37,4.37,0,0,1,.56,2.18,3.88,3.88,0,0,1-.07.75q0,.24-.12.51" transform="translate(-169.05 -28.34)"/><polyline class="cls-11" points="303.79 275.19 309.19 278.3 309.2 278.31 313.46 280.76"/><path class="cls-11" d="M474.82,231.87a2.78,2.78,0,0,1-2.1,2.17" transform="translate(-169.05 -28.34)"/><path class="cls-11" d="M469.57,227.29a2.1,2.1,0,0,1,1.28-.52,2.77,2.77,0,0,1,2.29,1.28,4.8,4.8,0,0,1,.69,4" transform="translate(-169.05 -28.34)"/><polyline class="cls-11" points="312.37 280.92 308.86 278.89 308.85 278.89 303.72 275.92"/><path class="cls-11" d="M473.83,232a2.87,2.87,0,0,1-1.87,2.13,2.1,2.1,0,0,1-1.42-.13" transform="translate(-169.05 -28.34)"/><polyline class="cls-11" points="273.75 208.4 247.3 304.32 247.03 305.29 246.61 306.81 246.43 307.49 246.14 308.51"/><polyline class="cls-11" points="246.14 308.51 388.01 390.41 389.94 391.53 404.44 399.9"/><line class="cls-11" x1="404.44" y1="399.9" x2="459.28" y2="201.04"/><path class="cls-11" d="M486.06,236a2.61,2.61,0,0,1,2.54,1.62,3.94,3.94,0,0,1,.34,3.13" transform="translate(-169.05 -28.34)"/><path class="cls-11" d="M452.41,282a3.39,3.39,0,0,1-1.58-3.83" transform="translate(-169.05 -28.34)"/><path class="cls-11" d="M488.94,240.74a2.51,2.51,0,0,1-1.91,2" transform="translate(-169.05 -28.34)"/><path class="cls-11" d="M487,235.52a2.89,2.89,0,0,1,2.8,1.77,4.46,4.46,0,0,1,.56,2.19,3.75,3.75,0,0,1-.07.73c0,.17-.07.34-.12.52" transform="translate(-169.05 -28.34)"/><path class="cls-11" d="M450.83,278.2a3.41,3.41,0,0,1,2.77-2.46h.09l1.42-.21,1.08-.15.24,0,1.14-.16" transform="translate(-169.05 -28.34)"/><path class="cls-11" d="M490.17,240.73a2.77,2.77,0,0,1-2.1,2.17" transform="translate(-169.05 -28.34)"/><path class="cls-11" d="M484.92,236.16a2.11,2.11,0,0,1,1.28-.53,2.79,2.79,0,0,1,2.29,1.28,4.8,4.8,0,0,1,.69,4" transform="translate(-169.05 -28.34)"/><path class="cls-11" d="M489.18,240.87a2.88,2.88,0,0,1-1.89,2.14,2.11,2.11,0,0,1-1.4-.14" transform="translate(-169.05 -28.34)"/><path class="cls-11" d="M520.38,256.85a.09.09,0,0,1,.09,0" transform="translate(-169.05 -28.34)"/><path class="cls-11" d="M520.13,257.44c-.24-.14,0-.56.25-.59" transform="translate(-169.05 -28.34)"/><path class="cls-11" d="M515,253.83a.43.43,0,0,0-.24.41" transform="translate(-169.05 -28.34)"/><path class="cls-11" d="M497,260.87a2.6,2.6,0,0,1,2.54,1.62,3.91,3.91,0,0,1,.34,3.12" transform="translate(-169.05 -28.34)"/><path class="cls-11" d="M499.91,265.61a2.51,2.51,0,0,1-1.91,2" transform="translate(-169.05 -28.34)"/><path class="cls-11" d="M498,260.39a2.89,2.89,0,0,1,2.8,1.77,4.52,4.52,0,0,1,.56,2.19,3.78,3.78,0,0,1-.07.74,4.7,4.7,0,0,1-.12.51" transform="translate(-169.05 -28.34)"/><path class="cls-11" d="M495.89,261a2.19,2.19,0,0,1,1.25-.52,2.73,2.73,0,0,1,2.32,1.28,4.84,4.84,0,0,1,.7,4" transform="translate(-169.05 -28.34)"/><path class="cls-11" d="M500.16,265.75a2.94,2.94,0,0,1-1.88,2.13,2,2,0,0,1-1.41-.14" transform="translate(-169.05 -28.34)"/><path class="cls-11" d="M516,272.86a.11.11,0,0,1,.08,0" transform="translate(-169.05 -28.34)"/><path class="cls-11" d="M515.75,273.46c-.24-.14,0-.57.26-.6" transform="translate(-169.05 -28.34)"/><path class="cls-11" d="M510.64,269.84a.42.42,0,0,0-.23.42" transform="translate(-169.05 -28.34)"/><path class="cls-11" d="M466.33,243.14a2.61,2.61,0,0,1,2.54,1.62,4,4,0,0,1,.35,3.13" transform="translate(-169.05 -28.34)"/><line class="cls-11" x1="305.88" y1="262.6" x2="305.12" y2="262.71"/><path class="cls-11" d="M469.22,247.89a2.53,2.53,0,0,1-1.92,2" transform="translate(-169.05 -28.34)"/><path class="cls-11" d="M467.27,242.67a2.88,2.88,0,0,1,2.8,1.77,4.49,4.49,0,0,1,.56,2.19,3.85,3.85,0,0,1-.07.74c0,.16-.07.34-.12.51" transform="translate(-169.05 -28.34)"/><line class="cls-11" x1="304" y1="255.33" x2="304.81" y2="255.21"/><path class="cls-11" d="M470.44,247.88a2.77,2.77,0,0,1-2.1,2.17" transform="translate(-169.05 -28.34)"/><path class="cls-11" d="M465.19,243.31a2.16,2.16,0,0,1,1.28-.53,2.79,2.79,0,0,1,2.29,1.28,4.8,4.8,0,0,1,.69,4" transform="translate(-169.05 -28.34)"/><path class="cls-11" d="M473.89,290.74l-1.14.17-2.75.4h-.06a3.15,3.15,0,0,1-2.18-.42" transform="translate(-169.05 -28.34)"/><path class="cls-11" d="M469.45,248a2.86,2.86,0,0,1-1.87,2.13,2.1,2.1,0,0,1-1.42-.13" transform="translate(-169.05 -28.34)"/><path class="cls-11" d="M511.62,288.87a.09.09,0,0,1,.09,0" transform="translate(-169.05 -28.34)"/><path class="cls-11" d="M511.37,289.47c-.24-.14,0-.57.25-.6" transform="translate(-169.05 -28.34)"/><path class="cls-11" d="M506.26,285.85a.45.45,0,0,0-.24.42" transform="translate(-169.05 -28.34)"/><path class="cls-11" d="M481.68,252a2.61,2.61,0,0,1,2.54,1.62,3.94,3.94,0,0,1,.34,3.13" transform="translate(-169.05 -28.34)"/><path class="cls-11" d="M467.76,290.89a3.39,3.39,0,0,1-1.58-3.83" transform="translate(-169.05 -28.34)"/><path class="cls-11" d="M484.56,256.75a2.51,2.51,0,0,1-1.91,2" transform="translate(-169.05 -28.34)"/><path class="cls-11" d="M482.62,251.52a2.89,2.89,0,0,1,2.8,1.79,4.35,4.35,0,0,1,.56,2.18,3.78,3.78,0,0,1-.07.74c0,.17-.07.33-.11.51" transform="translate(-169.05 -28.34)"/><polyline class="cls-11" points="308.18 259.17 313.57 262.29 313.58 262.29 317.84 264.75"/><path class="cls-11" d="M485.8,256.74a2.81,2.81,0,0,1-2.11,2.18" transform="translate(-169.05 -28.34)"/><path class="cls-11" d="M480.54,252.17a2.11,2.11,0,0,1,1.28-.53,2.78,2.78,0,0,1,2.29,1.29,4.79,4.79,0,0,1,.69,4" transform="translate(-169.05 -28.34)"/><polyline class="cls-11" points="316.75 264.91 313.24 262.88 313.23 262.88 308.1 259.91"/><path class="cls-11" d="M484.8,256.89a2.91,2.91,0,0,1-1.87,2.13,2.11,2.11,0,0,1-1.42-.14" transform="translate(-169.05 -28.34)"/><path class="cls-11" d="M507.24,304.88a.13.13,0,0,1,.09,0" transform="translate(-169.05 -28.34)"/><path class="cls-11" d="M507,305.48c-.24-.14,0-.56.25-.6" transform="translate(-169.05 -28.34)"/><path class="cls-11" d="M501.89,301.86a.43.43,0,0,0-.24.42" transform="translate(-169.05 -28.34)"/><path class="cls-11" d="M492.65,276.88a2.62,2.62,0,0,1,2.55,1.62,4,4,0,0,1,.33,3.12" transform="translate(-169.05 -28.34)"/><path class="cls-11" d="M466.18,287.06A3.41,3.41,0,0,1,469,284.6H469l1.41-.2,1.09-.16.24,0,1.14-.17" transform="translate(-169.05 -28.34)"/><path class="cls-11" d="M495.53,281.62a2.51,2.51,0,0,1-1.9,2" transform="translate(-169.05 -28.34)"/><path class="cls-11" d="M493.59,276.4a2.9,2.9,0,0,1,2.8,1.78,4.47,4.47,0,0,1,.57,2.18,4.65,4.65,0,0,1-.08.74c0,.17-.07.34-.11.51" transform="translate(-169.05 -28.34)"/><path class="cls-11" d="M496.77,281.61a2.81,2.81,0,0,1-2.11,2.18" transform="translate(-169.05 -28.34)"/><path class="cls-11" d="M491.51,277a2.18,2.18,0,0,1,1.28-.52,2.77,2.77,0,0,1,2.29,1.28,4.84,4.84,0,0,1,.7,4" transform="translate(-169.05 -28.34)"/><path class="cls-11" d="M495.78,281.76a2.92,2.92,0,0,1-1.88,2.13,2.1,2.1,0,0,1-1.42-.13" transform="translate(-169.05 -28.34)"/><path class="cls-11" d="M502.87,320.89H503" transform="translate(-169.05 -28.34)"/><path class="cls-11" d="M502.61,321.5c-.24-.14,0-.57.26-.61" transform="translate(-169.05 -28.34)"/><path class="cls-11" d="M497.51,317.88a.41.41,0,0,0-.24.41" transform="translate(-169.05 -28.34)"/><path class="cls-11" d="M462,259.15a2.64,2.64,0,0,1,2.55,1.62,4,4,0,0,1,.33,3.13" transform="translate(-169.05 -28.34)"/><line class="cls-11" x1="316.85" y1="287.47" x2="316.08" y2="287.58"/><path class="cls-11" d="M464.83,263.9a2.51,2.51,0,0,1-1.91,2" transform="translate(-169.05 -28.34)"/><path class="cls-11" d="M462.89,258.68a2.87,2.87,0,0,1,2.8,1.78,4.45,4.45,0,0,1,.56,2.18,3.78,3.78,0,0,1-.07.74c0,.17-.07.33-.12.51" transform="translate(-169.05 -28.34)"/><path class="cls-11" d="M466.06,263.89a2.75,2.75,0,0,1-2.1,2.17" transform="translate(-169.05 -28.34)"/><path class="cls-11" d="M460.82,259.32a2.11,2.11,0,0,1,1.27-.53,2.82,2.82,0,0,1,2.3,1.29,4.82,4.82,0,0,1,.68,4" transform="translate(-169.05 -28.34)"/><path class="cls-11" d="M465.07,264a2.87,2.87,0,0,1-1.87,2.13,2.17,2.17,0,0,1-1.42-.13" transform="translate(-169.05 -28.34)"/><path class="cls-11" d="M524.54,259.21c.08,0,.09.14.06.26" transform="translate(-169.05 -28.34)"/><path class="cls-11" d="M524.15,259.54a.42.42,0,0,1,.26-.33.17.17,0,0,1,.12,0" transform="translate(-169.05 -28.34)"/><path class="cls-11" d="M507,323.71c-.06.09-.1.14-.21.15" transform="translate(-169.05 -28.34)"/><path class="cls-11" d="M506.78,323.86c-.09,0-.13,0-.15-.05a.28.28,0,0,1,0-.22" transform="translate(-169.05 -28.34)"/><path class="cls-11" d="M477.3,268a2.6,2.6,0,0,1,2.54,1.62,4,4,0,0,1,.35,3.12" transform="translate(-169.05 -28.34)"/><line class="cls-11" x1="314.97" y1="280.2" x2="315.78" y2="280.09"/><path class="cls-11" d="M480.19,272.76a2.53,2.53,0,0,1-1.92,2" transform="translate(-169.05 -28.34)"/><path class="cls-11" d="M478.24,267.54a2.89,2.89,0,0,1,2.8,1.77,4.62,4.62,0,0,1,.57,2.19,5,5,0,0,1-.08.75q0,.24-.12.51" transform="translate(-169.05 -28.34)"/><path class="cls-11" d="M484.86,315.62l-1.14.16-2.75.4h-.06a3.15,3.15,0,0,1-2.18-.42" transform="translate(-169.05 -28.34)"/><path class="cls-11" d="M481.41,272.76a2.76,2.76,0,0,1-2.1,2.16" transform="translate(-169.05 -28.34)"/><path class="cls-11" d="M476.16,268.18a2.14,2.14,0,0,1,1.28-.52,2.74,2.74,0,0,1,2.29,1.28,4.84,4.84,0,0,1,.7,4" transform="translate(-169.05 -28.34)"/><path class="cls-11" d="M478.73,315.77a3.37,3.37,0,0,1-1.57-3.83" transform="translate(-169.05 -28.34)"/><path class="cls-11" d="M480.43,272.9a2.9,2.9,0,0,1-1.88,2.13,2.06,2.06,0,0,1-1.42-.14h0" transform="translate(-169.05 -28.34)"/><path class="cls-11" d="M519.78,275.55a.5.5,0,0,1,0-.36" transform="translate(-169.05 -28.34)"/><path class="cls-11" d="M519.6,275.67c0-.09.11-.08.18-.12" transform="translate(-169.05 -28.34)"/><path class="cls-11" d="M488.27,292.89a2.62,2.62,0,0,1,2.55,1.62,4,4,0,0,1,.33,3.13" transform="translate(-169.05 -28.34)"/><path class="cls-11" d="M477.16,311.94a3.37,3.37,0,0,1,2.76-2.46H480l1.41-.21,1.09-.16.24,0,1.14-.17" transform="translate(-169.05 -28.34)"/><path class="cls-11" d="M491.15,297.64a2.51,2.51,0,0,1-1.91,2" transform="translate(-169.05 -28.34)"/><path class="cls-11" d="M489.21,292.41a2.89,2.89,0,0,1,2.8,1.78,4.62,4.62,0,0,1,.57,2.19,4.91,4.91,0,0,1-.08.74c0,.17-.07.33-.12.51" transform="translate(-169.05 -28.34)"/><polyline class="cls-11" points="312.55 243.16 317.94 246.28 317.96 246.28 322.22 248.74"/><path class="cls-11" d="M492.38,297.63a2.78,2.78,0,0,1-2.1,2.17" transform="translate(-169.05 -28.34)"/><path class="cls-11" d="M487.13,293.05a2.14,2.14,0,0,1,1.28-.52,2.76,2.76,0,0,1,2.29,1.29,4.81,4.81,0,0,1,.7,3.95" transform="translate(-169.05 -28.34)"/><polyline class="cls-11" points="321.13 248.9 317.62 246.87 317.61 246.86 312.48 243.91"/><path class="cls-11" d="M491.4,297.77a2.88,2.88,0,0,1-1.88,2.13,2.11,2.11,0,0,1-1.42-.13h0" transform="translate(-169.05 -28.34)"/><path class="cls-11" d="M515.4,291.56a.5.5,0,0,1,0-.36" transform="translate(-169.05 -28.34)"/><path class="cls-11" d="M515.23,291.69c0-.1.1-.1.17-.13" transform="translate(-169.05 -28.34)"/><path class="cls-11" d="M511,307.58a.68.68,0,0,1,0-.37" transform="translate(-169.05 -28.34)"/><path class="cls-11" d="M457.57,275.17a2.61,2.61,0,0,1,2.54,1.61,3.94,3.94,0,0,1,.34,3.13" transform="translate(-169.05 -28.34)"/><path class="cls-11" d="M460.45,279.91a2.51,2.51,0,0,1-1.9,2" transform="translate(-169.05 -28.34)"/><path class="cls-11" d="M458.51,274.69a2.9,2.9,0,0,1,2.8,1.78,4.47,4.47,0,0,1,.57,2.18,4.78,4.78,0,0,1-.08.74c0,.17-.07.34-.11.52" transform="translate(-169.05 -28.34)"/><path class="cls-11" d="M461.69,279.91a2.78,2.78,0,0,1-2.11,2.16" transform="translate(-169.05 -28.34)"/><path class="cls-11" d="M456.43,275.33a2.14,2.14,0,0,1,1.28-.52,2.75,2.75,0,0,1,2.3,1.28,4.86,4.86,0,0,1,.69,4" transform="translate(-169.05 -28.34)"/><line class="cls-11" x1="286.15" y1="269.74" x2="285.38" y2="269.86"/><path class="cls-11" d="M460.7,280.05a2.92,2.92,0,0,1-1.88,2.13,2,2,0,0,1-1.41-.14h0" transform="translate(-169.05 -28.34)"/><path class="cls-11" d="M510.85,307.7c0-.1.1-.09.17-.12" transform="translate(-169.05 -28.34)"/><path class="cls-11" d="M506.64,323.59a.52.52,0,0,1,0-.37" transform="translate(-169.05 -28.34)"/><path class="cls-11" d="M507.19,323.64c0,.13-.12.1-.2.07" transform="translate(-169.05 -28.34)"/><path class="cls-11" d="M472.92,284a2.62,2.62,0,0,1,2.55,1.62,4,4,0,0,1,.34,3.12" transform="translate(-169.05 -28.34)"/><line class="cls-11" x1="284.28" y1="262.48" x2="285.08" y2="262.36"/><path class="cls-11" d="M475.81,288.77a2.52,2.52,0,0,1-1.92,2" transform="translate(-169.05 -28.34)"/><path class="cls-11" d="M473.86,283.55a2.89,2.89,0,0,1,2.8,1.78,4.58,4.58,0,0,1,.57,2.18,4.78,4.78,0,0,1-.08.74,4.7,4.7,0,0,1-.12.51" transform="translate(-169.05 -28.34)"/><path class="cls-11" d="M477,288.76a2.78,2.78,0,0,1-2.1,2.18" transform="translate(-169.05 -28.34)"/><path class="cls-11" d="M471.78,284.2a2.16,2.16,0,0,1,1.28-.53,2.79,2.79,0,0,1,2.3,1.28,4.87,4.87,0,0,1,.69,4" transform="translate(-169.05 -28.34)"/><path class="cls-11" d="M476.05,288.91a2.92,2.92,0,0,1-1.88,2.14,2.18,2.18,0,0,1-1.42-.14" transform="translate(-169.05 -28.34)"/><path class="cls-11" d="M524.69,259.61c-.05.06-.11,0-.17,0a.94.94,0,0,1-.37-.11" transform="translate(-169.05 -28.34)"/><path class="cls-11" d="M524.6,259.47s.16.06.1.13" transform="translate(-169.05 -28.34)"/><polyline class="cls-11" points="328.38 217.09 329.89 216.87 330.97 216.71 331.21 216.68 332.36 216.52"/><path class="cls-11" d="M483.89,308.9a2.64,2.64,0,0,1,2.55,1.62,4,4,0,0,1,.34,3.12" transform="translate(-169.05 -28.34)"/><path class="cls-11" d="M454.17,297.89l-1.15.17-2.75.39h-.06a3.2,3.2,0,0,1-2.18-.41" transform="translate(-169.05 -28.34)"/><path class="cls-11" d="M486.78,313.64a2.52,2.52,0,0,1-1.92,2" transform="translate(-169.05 -28.34)"/><path class="cls-11" d="M484.84,308.43a2.85,2.85,0,0,1,2.79,1.77,4.65,4.65,0,0,1,.57,2.19,4.91,4.91,0,0,1-.08.74c0,.17-.07.33-.12.51" transform="translate(-169.05 -28.34)"/><path class="cls-11" d="M448,298.05a3.41,3.41,0,0,1-1.57-3.84" transform="translate(-169.05 -28.34)"/><path class="cls-11" d="M488,313.64a2.75,2.75,0,0,1-2.1,2.17" transform="translate(-169.05 -28.34)"/><path class="cls-11" d="M482.75,309.07a2.16,2.16,0,0,1,1.28-.53,2.82,2.82,0,0,1,2.3,1.29,4.85,4.85,0,0,1,.69,3.95" transform="translate(-169.05 -28.34)"/><line class="cls-11" x1="283" y1="263" x2="284.14" y2="262.84"/><path class="cls-11" d="M446.46,294.21a3.38,3.38,0,0,1,2.76-2.46h.09l1.41-.21,1.09-.15.24,0" transform="translate(-169.05 -28.34)"/><path class="cls-11" d="M487,313.78a2.88,2.88,0,0,1-1.89,2.14,2.14,2.14,0,0,1-1.41-.14" transform="translate(-169.05 -28.34)"/><path class="cls-11" d="M464.67,225.2a1.26,1.26,0,0,1,.08-.18c.07-.12.19-.22.32-.15" transform="translate(-169.05 -28.34)"/><path class="cls-11" d="M447.21,289.51c-.12-.07-.08-.16-.06-.26" transform="translate(-169.05 -28.34)"/><path class="cls-11" d="M464.67,225.2s-.1,0-.11-.08,0,0,0-.06.11,0,.17,0h0" transform="translate(-169.05 -28.34)"/><path class="cls-11" d="M453.19,291.18a2.64,2.64,0,0,1,2.55,1.62,4,4,0,0,1,.34,3.12" transform="translate(-169.05 -28.34)"/><path class="cls-11" d="M456.08,295.92a2.52,2.52,0,0,1-1.91,2" transform="translate(-169.05 -28.34)"/><path class="cls-11" d="M454.13,290.7a2.88,2.88,0,0,1,2.8,1.78,4.5,4.5,0,0,1,.57,2.18,4.9,4.9,0,0,1-.08.75c0,.16-.07.33-.11.51" transform="translate(-169.05 -28.34)"/><polyline class="cls-11" points="316.93 227.15 322.33 230.26 322.33 230.27 326.59 232.73"/><path class="cls-11" d="M457.31,295.92a2.78,2.78,0,0,1-2.11,2.16" transform="translate(-169.05 -28.34)"/><path class="cls-11" d="M452.05,291.35h0a2.17,2.17,0,0,1,1.28-.52,2.76,2.76,0,0,1,2.29,1.28,4.84,4.84,0,0,1,.7,4" transform="translate(-169.05 -28.34)"/><polyline class="cls-11" points="325.51 232.88 325.5 232.88 322 230.85 321.99 230.85 316.86 227.89"/><path class="cls-11" d="M456.32,296.06a2.89,2.89,0,0,1-1.89,2.14,2.14,2.14,0,0,1-1.41-.14" transform="translate(-169.05 -28.34)"/><path class="cls-11" d="M447.15,289.25s-.12,0-.1-.12" transform="translate(-169.05 -28.34)"/><path class="cls-11" d="M468.55,300a2.62,2.62,0,0,1,2.54,1.62,4,4,0,0,1,.33,3.13" transform="translate(-169.05 -28.34)"/><path class="cls-11" d="M471.42,304.79a2.52,2.52,0,0,1-1.9,2" transform="translate(-169.05 -28.34)"/><path class="cls-11" d="M469.48,299.56a2.89,2.89,0,0,1,2.8,1.78,4.48,4.48,0,0,1,.57,2.19,4.65,4.65,0,0,1-.08.73c0,.17-.07.34-.11.52" transform="translate(-169.05 -28.34)"/><line class="cls-11" x1="301.5" y1="278.61" x2="300.74" y2="278.72"/><path class="cls-11" d="M472.66,304.78a2.79,2.79,0,0,1-2.11,2.17" transform="translate(-169.05 -28.34)"/><path class="cls-11" d="M467.4,300.2a2.21,2.21,0,0,1,1.28-.52A2.77,2.77,0,0,1,471,301a4.89,4.89,0,0,1,.69,4" transform="translate(-169.05 -28.34)"/><line class="cls-11" x1="299.63" y1="271.34" x2="300.43" y2="271.22"/><path class="cls-11" d="M471.67,304.93a2.87,2.87,0,0,1-1.88,2.12,2.08,2.08,0,0,1-1.41-.13" transform="translate(-169.05 -28.34)"/><path class="cls-11" d="M451.53,273.23a.62.62,0,0,0,.28.39" transform="translate(-169.05 -28.34)"/><path class="cls-11" d="M452.16,273h0" transform="translate(-169.05 -28.34)"/><path class="cls-11" d="M452.15,273c-.1,0-.55.17-.62.2" transform="translate(-169.05 -28.34)"/><path class="cls-11" d="M469.52,306.76l-1.14.16h0l-2.75.4h-.06a3.2,3.2,0,0,1-2.18-.42" transform="translate(-169.05 -28.34)"/><path class="cls-11" d="M464.67,225.2a.71.71,0,0,0,.27.39" transform="translate(-169.05 -28.34)"/><path class="cls-11" d="M460.91,241c-.09,0-.55.17-.62.2" transform="translate(-169.05 -28.34)"/><path class="cls-11" d="M460.92,241h0" transform="translate(-169.05 -28.34)"/><path class="cls-11" d="M460.29,241.21a.65.65,0,0,0,.28.39" transform="translate(-169.05 -28.34)"/><path class="cls-11" d="M456.53,257c-.1,0-.55.17-.62.21" transform="translate(-169.05 -28.34)"/><path class="cls-11" d="M463.38,306.91a3.4,3.4,0,0,1-1.58-3.83" transform="translate(-169.05 -28.34)"/><path class="cls-11" d="M461.8,303.08a3.39,3.39,0,0,1,2.77-2.46l.09,0,1.42-.2,1.08-.16.24,0,1.15-.16" transform="translate(-169.05 -28.34)"/><path class="cls-11" d="M455.91,257.23a.66.66,0,0,0,.28.38" transform="translate(-169.05 -28.34)"/><polyline class="cls-11" points="278 260.79 282.36 244.86 286.74 228.85 291.12 212.84 295.51 196.78 295.52 196.74"/><polyline class="cls-11" points="333.33 223.23 332.18 223.39 329.38 223.8"/><polyline class="cls-11" points="321.28 211.12 321.31 211.14 326.71 214.25 326.71 214.26 330.97 216.71"/><polyline class="cls-11" points="329.89 216.87 326.38 214.84 326.37 214.84 321.24 211.87 321.23 211.87"/><polyline class="cls-11" points="282.92 245.38 281.69 249.83 278.72 260.71"/><line class="cls-11" x1="334.36" y1="223.42" x2="333.6" y2="223.53"/><line class="cls-11" x1="332.49" y1="216.15" x2="333.3" y2="216.04"/><polyline class="cls-11" points="287.3 229.36 286.07 233.82 283.1 244.7"/><path class="cls-11" d="M498.43,252.14a3.15,3.15,0,0,1-2.18-.42" transform="translate(-169.05 -28.34)"/><path class="cls-11" d="M496.25,251.72a3.4,3.4,0,0,1-1.58-3.83" transform="translate(-169.05 -28.34)"/><polyline class="cls-11" points="291.67 213.35 290.46 217.81 287.48 228.69"/><line class="cls-11" x1="328.21" y1="290.07" x2="324.21" y2="287.76"/><path class="cls-11" d="M494.67,247.89a3.39,3.39,0,0,1,2.76-2.46" transform="translate(-169.05 -28.34)"/><line class="cls-11" x1="324.55" y1="287.17" x2="328.55" y2="289.48"/><polyline class="cls-11" points="296.06 197.34 294.83 201.8 291.86 212.68"/><polyline class="cls-11" points="324.2 287.75 319.07 284.79 319.06 284.79"/><polyline class="cls-11" points="319.11 284.03 319.14 284.05 324.54 287.16"/><line class="cls-11" x1="303.66" y1="205.7" x2="302.9" y2="205.8"/><line class="cls-11" x1="278.72" y1="260.71" x2="282.76" y2="263.04"/><polyline class="cls-11" points="350.68 246.85 350.73 246.67 354.93 231.33 354.93 231.32"/><polyline class="cls-11" points="346.31 262.86 346.36 262.68 350.55 247.34 350.55 247.33"/><polyline class="cls-11" points="341.93 278.87 341.97 278.69 346.17 263.36 346.17 263.35"/><polyline class="cls-11" points="337.55 294.88 337.59 294.7 341.79 279.36 341.79 279.36"/><polyline class="cls-11" points="355.65 231.26 355.64 231.27 338.13 295.3"/><polyline class="cls-11" points="281.67 263.2 281.67 263.19 278.16 261.17"/><polyline class="cls-11" points="333.9 292.56 333.97 292.61 337.59 294.7"/><polyline class="cls-11" points="337.58 295.47 333.63 293.2 333.56 293.15"/><line class="cls-11" x1="301.79" y1="198.43" x2="302.6" y2="198.31"/><polyline class="cls-11" points="338.28 276.56 338.35 276.59 341.97 278.69"/><line class="cls-11" x1="338.01" y1="277.18" x2="337.94" y2="277.14"/><line class="cls-11" x1="341.79" y1="279.36" x2="338.01" y2="277.18"/><path class="cls-11" d="M471.68,233.84l-1.14.17-2.75.4h-.06a3.14,3.14,0,0,1-2.18-.41" transform="translate(-169.05 -28.34)"/><path class="cls-11" d="M465.55,234a3.41,3.41,0,0,1-1.58-3.84" transform="translate(-169.05 -28.34)"/><polyline class="cls-11" points="342.66 260.54 342.73 260.59 346.36 262.68"/><polyline class="cls-11" points="346.17 263.36 342.39 261.17 342.32 261.13"/><path class="cls-11" d="M464,230.16a3.41,3.41,0,0,1,2.76-2.46h.1l1.41-.2,1.08-.16.25,0,1.14-.16" transform="translate(-169.05 -28.34)"/><polyline class="cls-11" points="283.1 244.69 283.1 244.7 283.1 244.7 287.14 247.03"/><polyline class="cls-11" points="347.04 244.53 347.11 244.57 350.73 246.67"/><line class="cls-11" x1="346.77" y1="245.16" x2="346.7" y2="245.12"/><line class="cls-11" x1="350.55" y1="247.34" x2="346.77" y2="245.16"/><polyline class="cls-11" points="286.05 247.18 282.92 245.38 282.75 245.28"/><polyline class="cls-11" points="351.42 228.52 351.49 228.56 355.48 230.86 355.48 230.87"/><polyline class="cls-11" points="354.93 231.33 351.15 229.15 351.08 229.1"/><path class="cls-11" d="M501.62,319.42l.21,0" transform="translate(-169.05 -28.34)"/><path class="cls-11" d="M501.83,319.39c1-.15,1.19.77,1.19,1.56" transform="translate(-169.05 -28.34)"/><path class="cls-11" d="M498.49,317.47c1.08-.16.87.66,1.38,1.15a3,3,0,0,0,1.75.8" transform="translate(-169.05 -28.34)"/><path class="cls-11" d="M502.68,321.54c-.48.27-1.22.62-1.73.09-.23-.23-.24-.57-.46-.81a2.78,2.78,0,0,0-.75-.56,2.25,2.25,0,0,0-.87-.33c-.31,0-.6.12-.93,0-.62-.24-.67-1-.67-1.51v-.12" transform="translate(-169.05 -28.34)"/><line class="cls-11" x1="319.02" y1="214.56" x2="318.24" y2="214.68"/><path class="cls-11" d="M497.51,317.88l.1-.06a2.43,2.43,0,0,1,.88-.35" transform="translate(-169.05 -28.34)"/><line class="cls-11" x1="332.59" y1="274.06" x2="328.59" y2="271.74"/><line class="cls-11" x1="317.14" y1="207.29" x2="317.95" y2="207.18"/><polyline class="cls-11" points="287.47 228.68 287.48 228.68 287.48 228.69 287.48 228.69 291.51 231.02"/><line class="cls-11" x1="328.93" y1="271.16" x2="332.93" y2="273.47"/><polyline class="cls-11" points="290.43 231.17 290.43 231.17 287.3 229.36 287.13 229.27"/><line class="cls-11" x1="328.58" y1="271.73" x2="323.44" y2="268.78"/><line class="cls-11" x1="323.52" y1="268.04" x2="328.92" y2="271.15"/><path class="cls-11" d="M487,242.71l-1.14.16-2.75.4h-.06a3.15,3.15,0,0,1-2.18-.43" transform="translate(-169.05 -28.34)"/><path class="cls-11" d="M480.9,242.85a3.37,3.37,0,0,1-1.58-3.82" transform="translate(-169.05 -28.34)"/><path class="cls-11" d="M479.32,239a3.39,3.39,0,0,1,2.76-2.46l.1,0,1.41-.2,1.08-.15.25,0,1.14-.17" transform="translate(-169.05 -28.34)"/><path class="cls-11" d="M506,303.41l.21,0" transform="translate(-169.05 -28.34)"/><path class="cls-11" d="M506.21,303.37c1-.14,1.19.78,1.19,1.56" transform="translate(-169.05 -28.34)"/><path class="cls-11" d="M502.87,301.45c1.08-.15.87.67,1.39,1.15a2.92,2.92,0,0,0,1.74.81" transform="translate(-169.05 -28.34)"/><path class="cls-11" d="M507.06,305.52h0c-.49.28-1.22.63-1.73.1-.23-.24-.24-.57-.46-.81a2.42,2.42,0,0,0-.75-.56,2.1,2.1,0,0,0-.87-.33c-.31,0-.6.11-.93,0-.62-.24-.67-1-.67-1.51v-.12" transform="translate(-169.05 -28.34)"/><polyline class="cls-11" points="291.85 212.67 291.86 212.68 291.86 212.68 295.89 215"/><path class="cls-11" d="M501.89,301.86l.1-.05a2.64,2.64,0,0,1,.88-.36" transform="translate(-169.05 -28.34)"/><line class="cls-11" x1="336.97" y1="258.04" x2="332.96" y2="255.73"/><polyline class="cls-11" points="294.81 215.16 291.67 213.35 291.51 213.26"/><line class="cls-11" x1="333.3" y1="255.14" x2="337.31" y2="257.46"/><path class="cls-11" d="M501.14,265.6a2.75,2.75,0,0,1-2.1,2.17l-.76.11" transform="translate(-169.05 -28.34)"/><line class="cls-11" x1="332.96" y1="255.73" x2="327.83" y2="252.76"/><line class="cls-11" x1="327.9" y1="252.02" x2="333.3" y2="255.14"/><polyline class="cls-11" points="328 232.18 328.08 232.17 328.92 232.05"/><path class="cls-11" d="M498,267.58l-1.13.16h0l-2.75.4h-.06a3.15,3.15,0,0,1-2.18-.42" transform="translate(-169.05 -28.34)"/><line class="cls-11" x1="296.02" y1="196.53" x2="300.27" y2="198.99"/><path class="cls-11" d="M510.38,287.4l.21,0" transform="translate(-169.05 -28.34)"/><polyline class="cls-11" points="299.19 199.15 296.06 197.34 296.06 197.34 295.89 197.25"/><path class="cls-11" d="M510.59,287.36c1-.15,1.19.78,1.19,1.57" transform="translate(-169.05 -28.34)"/><path class="cls-11" d="M507.25,285.45c1.08-.16.87.65,1.38,1.14a3,3,0,0,0,1.75.81" transform="translate(-169.05 -28.34)"/><path class="cls-11" d="M511.44,289.51c-.49.28-1.22.63-1.73.1-.23-.24-.24-.57-.46-.82a2.69,2.69,0,0,0-.75-.55,2.1,2.1,0,0,0-.87-.33c-.31,0-.6.11-.93,0-.62-.23-.67-1-.67-1.51a.45.45,0,0,1,0-.11" transform="translate(-169.05 -28.34)"/><path class="cls-11" d="M491.87,267.73a3.39,3.39,0,0,1-1.58-3.83" transform="translate(-169.05 -28.34)"/><path class="cls-11" d="M506.26,285.85l.1-.05h0a2.37,2.37,0,0,1,.89-.35" transform="translate(-169.05 -28.34)"/><path class="cls-11" d="M514.76,271.39l.21,0" transform="translate(-169.05 -28.34)"/><path class="cls-11" d="M490.29,263.9a3.39,3.39,0,0,1,2.76-2.46h.1l1.41-.21,1.08-.15.25,0,1.14-.16" transform="translate(-169.05 -28.34)"/><path class="cls-11" d="M515,271.35c1-.15,1.19.78,1.19,1.56" transform="translate(-169.05 -28.34)"/><path class="cls-11" d="M511.63,269.43c1.08-.15.87.66,1.38,1.15a3,3,0,0,0,1.75.81" transform="translate(-169.05 -28.34)"/><path class="cls-11" d="M515.82,273.5h0c-.49.27-1.22.62-1.73.1-.23-.24-.24-.57-.46-.81a2.76,2.76,0,0,0-.75-.57,2.25,2.25,0,0,0-.87-.33c-.32,0-.61.12-.93,0-.62-.23-.67-1-.67-1.51v-.11" transform="translate(-169.05 -28.34)"/><path class="cls-11" d="M510.64,269.84l.1-.06a2.48,2.48,0,0,1,.89-.35" transform="translate(-169.05 -28.34)"/><polyline class="cls-11" points="341.35 242.03 337.35 239.72 337.34 239.71 332.2 236.75"/><polyline class="cls-11" points="332.28 236.01 337.68 239.13 337.69 239.13 341.69 241.44"/><line class="cls-11" x1="299.28" y1="221.71" x2="298.52" y2="221.82"/><path class="cls-11" d="M519.14,255.37l.21,0" transform="translate(-169.05 -28.34)"/><line class="cls-11" x1="297.41" y1="214.44" x2="298.22" y2="214.33"/><path class="cls-11" d="M519.35,255.34c1-.15,1.19.77,1.19,1.56" transform="translate(-169.05 -28.34)"/><path class="cls-11" d="M516,253.42c1.08-.16.87.66,1.38,1.15a3,3,0,0,0,1.75.8" transform="translate(-169.05 -28.34)"/><path class="cls-11" d="M520.2,257.49c-.49.28-1.22.62-1.73.09-.23-.24-.24-.57-.46-.81a2.5,2.5,0,0,0-.75-.55,2.11,2.11,0,0,0-.87-.34c-.31,0-.61.12-.93,0-.62-.23-.67-1-.67-1.51a.49.49,0,0,1,0-.12" transform="translate(-169.05 -28.34)"/><path class="cls-11" d="M467.3,249.86l-1.14.16-2.75.4h-.06a3.2,3.2,0,0,1-2.18-.42" transform="translate(-169.05 -28.34)"/><path class="cls-11" d="M515,253.83l.1-.06a2.67,2.67,0,0,1,.89-.35" transform="translate(-169.05 -28.34)"/><path class="cls-11" d="M461.17,250a3.41,3.41,0,0,1-1.58-3.84" transform="translate(-169.05 -28.34)"/><polyline class="cls-11" points="345.73 226.02 341.73 223.71 341.71 223.7 336.58 220.74"/><polyline class="cls-11" points="336.66 220 342.06 223.11 342.07 223.12 346.07 225.44"/><polyline class="cls-11" points="297.02 272.06 293.51 270.03 293.5 270.03 288.37 267.07"/><polyline class="cls-11" points="288.44 266.32 293.84 269.44 293.85 269.44 298.11 271.9"/><path class="cls-11" d="M459.59,246.17a3.4,3.4,0,0,1,2.77-2.45l.08,0,1.42-.2,1.08-.15.25,0,1.14-.17" transform="translate(-169.05 -28.34)"/><line class="cls-11" x1="314.63" y1="230.58" x2="313.88" y2="230.68"/><polyline class="cls-11" points="315 370.91 258.23 404.05 162.35 460.02"/><line class="cls-11" x1="312.76" y1="223.3" x2="313.57" y2="223.18"/><path class="cls-11" d="M482.65,258.72l-1.14.16-2.75.4h-.06a3.4,3.4,0,0,1-3.76-4.25" transform="translate(-169.05 -28.34)"/><line class="cls-11" x1="163.23" y1="349.2" x2="163.23" y2="283.28"/><path class="cls-11" d="M474.94,255a3.41,3.41,0,0,1,2.76-2.46h.1l1.41-.21,1.08-.16.25,0,1.14-.17" transform="translate(-169.05 -28.34)"/><line class="cls-11" x1="8.88" y1="371.42" x2="163.23" y2="283.28"/><polyline class="cls-11" points="162.35 460.02 66.28 404.56 8.88 371.42"/><line class="cls-11" x1="163.23" y1="283.28" x2="315" y2="370.91"/><polyline class="cls-11" points="319.79 370.91 216.42 311.23 163.24 280.52"/><line class="cls-11" x1="162.37" y1="462.8" x2="319.79" y2="370.91"/><polyline class="cls-11" points="319.79 453.99 319.79 452.42 319.79 448.07 319.79 370.91"/><line class="cls-11" x1="162.37" y1="545.88" x2="319.79" y2="453.99"/><line class="cls-11" x1="4.07" y1="371.41" x2="162.37" y2="462.8"/><line class="cls-11" x1="162.37" y1="545.88" x2="162.37" y2="462.8"/><line class="cls-11" x1="4.07" y1="454.49" x2="162.37" y2="545.88"/><polyline class="cls-11" points="301.4 256.05 297.89 254.02 297.88 254.01 292.75 251.05 292.74 251.04"/><line class="cls-11" x1="163.24" y1="280.52" x2="4.07" y2="371.41"/><line class="cls-11" x1="4.07" y1="454.49" x2="4.07" y2="371.41"/><polyline class="cls-11" points="292.79 250.29 292.82 250.31 298.22 253.43 298.23 253.43 302.49 255.89"/><line class="cls-11" x1="230.5" y1="298.3" x2="232.77" y2="298.82"/><line class="cls-11" x1="325.6" y1="255.45" x2="324.85" y2="255.56"/><line class="cls-11" x1="322.04" y1="453.54" x2="323.09" y2="449.98"/><line class="cls-11" x1="319.79" y1="448.07" x2="323.09" y2="449.98"/><line class="cls-11" x1="323.73" y1="248.18" x2="324.54" y2="248.06"/><line class="cls-11" x1="246.43" y1="307.49" x2="230.5" y2="298.3"/><path class="cls-11" d="M487.49,283.75a3.2,3.2,0,0,0,2.18.41h.06l2.75-.4,1.15-.17" transform="translate(-169.05 -28.34)"/><line class="cls-11" x1="319.79" y1="452.42" x2="322.12" y2="453.77"/><polyline class="cls-11" points="297.2 234.3 302.6 237.41 302.61 237.42 306.87 239.88"/><line class="cls-11" x1="319.79" y1="453.99" x2="322.12" y2="453.77"/><path class="cls-11" d="M487.49,283.75a3.41,3.41,0,0,1-1.58-3.84" transform="translate(-169.05 -28.34)"/><line class="cls-11" x1="230.5" y1="298.3" x2="216.42" y2="311.23"/><path class="cls-11" d="M485.91,279.91a3.42,3.42,0,0,1,2.76-2.46h.1l1.41-.2,1.09-.16.24,0,1.14-.16" transform="translate(-169.05 -28.34)"/><path class="cls-11" d="M455.21,262.19a3.41,3.41,0,0,1,2.77-2.46l.09,0,1.41-.2,1.09-.15.24,0h0l1.13-.17" transform="translate(-169.05 -28.34)"/><path class="cls-11" d="M462.92,265.87l-1.14.16-2.75.4H459a3.15,3.15,0,0,1-2.18-.42" transform="translate(-169.05 -28.34)"/><polyline class="cls-11" points="305.78 240.03 302.27 238.01 302.26 238 297.13 235.04"/><line class="cls-11" x1="232.77" y1="298.82" x2="246.61" y2="306.81"/><line class="cls-11" x1="283.1" y1="244.7" x2="283.1" y2="244.7"/><line class="cls-11" x1="287.48" y1="228.69" x2="287.48" y2="228.69"/><line class="cls-11" x1="291.86" y1="212.67" x2="291.86" y2="212.68"/><line class="cls-11" x1="341.8" y1="279.37" x2="341.79" y2="279.36"/><line class="cls-11" x1="346.18" y1="263.36" x2="346.17" y2="263.36"/><line class="cls-11" x1="350.55" y1="247.35" x2="350.55" y2="247.34"/><line class="cls-11" x1="354.94" y1="231.33" x2="354.93" y2="231.33"/><line class="cls-11" x1="233.79" y1="297.65" x2="232.77" y2="298.82"/><path class="cls-11" d="M489.91,239.21h0" transform="translate(-169.05 -28.34)"/><path class="cls-11" d="M505.26,248.08h0" transform="translate(-169.05 -28.34)"/></svg>