<svg id="Caja_3" xmlns="http://www.w3.org/2000/svg" viewBox="0 0 497.75 541.71"><defs><style>.cls-1{fill:#0071bc;}.cls-2{fill:#1b1464;}.cls-3{fill:#a67c52;}.cls-4{fill:#754c24;}.cls-5{fill:#b3b3b3;}.cls-6{fill:#c69c6d;}.cls-7{fill:#8c6239;}.cls-8{fill:#ccc;}.cls-9{fill:#c7b299;}.cls-10{fill:none;stroke:#000;stroke-linecap:round;stroke-linejoin:round;stroke-width:0.5px;}</style></defs><path class="cls-1" d="M531.77,177.13a4.42,4.42,0,0,1,.39,3.5,2.84,2.84,0,0,1-2.14,2.21l-1.28.19-3.08.44h-.07a3.53,3.53,0,0,1-2.44-.47,3.8,3.8,0,0,1,1.33-7l.1,0,1.59-.23,1.21-.17.27,0,1.28-.19A2.92,2.92,0,0,1,531.77,177.13Z" transform="translate(-170.93 -29.15)"/><path class="cls-1" d="M549,187.05a4.46,4.46,0,0,1,.37,3.5,2.81,2.81,0,0,1-2.13,2.21l-1.28.18h0l-3.08.45h-.07a3.55,3.55,0,0,1-2.44-.48,3.79,3.79,0,0,1,1.33-7l.1,0,1.59-.23,1.21-.17.27,0,1.28-.19A3,3,0,0,1,549,187.05Z" transform="translate(-170.93 -29.15)"/><path class="cls-1" d="M566.14,197a4.46,4.46,0,0,1,.37,3.5,2.78,2.78,0,0,1-2.13,2.2l-1.28.19-3.08.45H560a3.6,3.6,0,0,1-2.44-.47,3.8,3.8,0,0,1,1.33-7l.1,0,1.58-.23,1.22-.17.27,0,1.28-.19A3,3,0,0,1,566.14,197Z" transform="translate(-170.93 -29.15)"/><path class="cls-1" d="M555.62,213.48l1.22-.17.27,0h0l1.28-.18a3,3,0,0,1,2.85,1.81,4.5,4.5,0,0,1,.38,3.5,2.83,2.83,0,0,1-2.15,2.21l-1.27.18h0l-3.08.44-.06,0a3.6,3.6,0,0,1-2.44-.48,3.79,3.79,0,0,1,1.33-7l.1,0Z" transform="translate(-170.93 -29.15)"/><path class="cls-1" d="M544.06,205a4.46,4.46,0,0,1,.37,3.5,2.81,2.81,0,0,1-2.13,2.21l-1.28.18-3.09.45h-.06a3.54,3.54,0,0,1-2.44-.46,3.8,3.8,0,0,1,1.33-7h.1l1.58-.23,1.22-.17.27,0,1.28-.19A3,3,0,0,1,544.06,205Z" transform="translate(-170.93 -29.15)"/><path class="cls-1" d="M526.88,195.06a4.43,4.43,0,0,1,.37,3.49,2.8,2.8,0,0,1-2.13,2.21l-1.28.18h0l-3.08.45h-.07a3.54,3.54,0,0,1-2.44-.47,3.8,3.8,0,0,1,1.33-7l.1,0,1.58-.23,1.22-.17.27,0,1.28-.18A2.94,2.94,0,0,1,526.88,195.06Z" transform="translate(-170.93 -29.15)"/><path class="cls-1" d="M522,213a4.43,4.43,0,0,1,.37,3.49,2.8,2.8,0,0,1-2.13,2.21l-1.29.19-3.08.44h-.06a3.54,3.54,0,0,1-2.44-.47,3.8,3.8,0,0,1,1.33-7h.1l1.58-.23,1.22-.18.27,0,1.28-.19A3,3,0,0,1,522,213Z" transform="translate(-170.93 -29.15)"/><path class="cls-1" d="M539.16,222.9a4.52,4.52,0,0,1,.38,3.49,2.83,2.83,0,0,1-2.15,2.21l-1.27.18h0l-3.08.45H533a3.53,3.53,0,0,1-2.44-.47,3.79,3.79,0,0,1,1.33-7l.1,0,1.58-.23,1.22-.17.27,0,1.28-.18A2.94,2.94,0,0,1,539.16,222.9Z" transform="translate(-170.93 -29.15)"/><path class="cls-1" d="M556.34,232.81a4.55,4.55,0,0,1,.38,3.5,2.85,2.85,0,0,1-2.15,2.21l-1.28.18-3.08.45h-.06a3.53,3.53,0,0,1-2.44-.46,3.8,3.8,0,0,1,1.32-7.05h.11l1.58-.23,1.22-.17.27,0,1.28-.18A2.94,2.94,0,0,1,556.34,232.81Z" transform="translate(-170.93 -29.15)"/><path class="cls-1" d="M551.43,250.73a4.46,4.46,0,0,1,.38,3.5,2.82,2.82,0,0,1-2.14,2.21l-1.27.18h0l-3.08.45h-.06a3.57,3.57,0,0,1-2.45-.47,3.8,3.8,0,0,1,1.33-7l.11,0,1.57-.22h0l1.22-.18.26,0,1.28-.19A3,3,0,0,1,551.43,250.73Z" transform="translate(-170.93 -29.15)"/><path class="cls-1" d="M534.25,240.81a4.51,4.51,0,0,1,.39,3.5,2.85,2.85,0,0,1-2.15,2.21l-1.28.19-3.08.44h-.06a3.53,3.53,0,0,1-2.44-.47,3.79,3.79,0,0,1,1.32-7h.11l1.58-.23,1.22-.18.26,0,1.29-.19A2.94,2.94,0,0,1,534.25,240.81Z" transform="translate(-170.93 -29.15)"/><path class="cls-1" d="M517.08,230.89a4.57,4.57,0,0,1,.38,3.51,2.82,2.82,0,0,1-2.15,2.2l-1.27.19h0l-3.08.44h-.06a3.53,3.53,0,0,1-2.44-.47,3.79,3.79,0,0,1,1.32-7l.11,0,1.58-.23,1.22-.17.27,0,1.28-.18A2.94,2.94,0,0,1,517.08,230.89Z" transform="translate(-170.93 -29.15)"/><path class="cls-1" d="M512.17,248.82a4.44,4.44,0,0,1,.38,3.49,2.79,2.79,0,0,1-2.14,2.21l-1.28.18-3.08.45H506a3.57,3.57,0,0,1-2.45-.47,3.8,3.8,0,0,1,1.33-7l.11,0,1.58-.22h0l1.22-.18.26,0h0l1.27-.18A2.92,2.92,0,0,1,512.17,248.82Z" transform="translate(-170.93 -29.15)"/><path class="cls-1" d="M546.53,268.65a4.46,4.46,0,0,1,.38,3.5,2.84,2.84,0,0,1-2.14,2.21l-1.28.18-3.07.45h-.07a3.56,3.56,0,0,1-2.45-.46,3.8,3.8,0,0,1,1.33-7h.11l1.58-.23,1.21-.17.27,0,1.28-.19A2.93,2.93,0,0,1,546.53,268.65Z" transform="translate(-170.93 -29.15)"/><path class="cls-1" d="M529.35,258.74a4.45,4.45,0,0,1,.38,3.5,2.81,2.81,0,0,1-2.14,2.2l-1.27.18h0l-3.08.45h-.06a3.57,3.57,0,0,1-2.45-.47,3.8,3.8,0,0,1,1.33-7l.11,0,1.58-.23,1.22-.17.26,0,1.28-.18A2.92,2.92,0,0,1,529.35,258.74Z" transform="translate(-170.93 -29.15)"/><path class="cls-1" d="M513.51,248.46a5.11,5.11,0,0,1,.63,2.45,4,4,0,0,1-.09.83q0,.27-.12.57a3.13,3.13,0,0,1-2.36,2.43l-.85.12a3.23,3.23,0,0,0,2.1-2.39,5.4,5.4,0,0,0-.77-4.43,3.14,3.14,0,0,0-2.58-1.44l.91-.13A3.22,3.22,0,0,1,513.51,248.46Z" transform="translate(-170.93 -29.15)"/><path class="cls-1" d="M530.69,258.38a5.11,5.11,0,0,1,.63,2.45,5,5,0,0,1-.09.83q0,.27-.12.57a3.13,3.13,0,0,1-2.36,2.43l-.85.12h0a3.2,3.2,0,0,0,2.1-2.38,5.4,5.4,0,0,0-.78-4.43,3.07,3.07,0,0,0-2.57-1.43h0l.91-.13A3.23,3.23,0,0,1,530.69,258.38Z" transform="translate(-170.93 -29.15)"/><path class="cls-1" d="M547.87,268.3a5.1,5.1,0,0,1,.63,2.44,4.79,4.79,0,0,1-.09.83,4.35,4.35,0,0,1-.13.58,3.1,3.1,0,0,1-2.35,2.43l-.85.12h0a3.23,3.23,0,0,0,2.1-2.38,5.43,5.43,0,0,0-.77-4.43,3.13,3.13,0,0,0-2.58-1.44l.91-.13A3.23,3.23,0,0,1,547.87,268.3Z" transform="translate(-170.93 -29.15)"/><path class="cls-1" d="M552.77,250.38a5.07,5.07,0,0,1,.63,2.44,4.79,4.79,0,0,1-.09.83c0,.19-.07.38-.12.58a3.1,3.1,0,0,1-2.36,2.42l-.86.13a3.22,3.22,0,0,0,2.11-2.39,5.43,5.43,0,0,0-.77-4.43,3.1,3.1,0,0,0-2.6-1.44l.93-.13A3.22,3.22,0,0,1,552.77,250.38Z" transform="translate(-170.93 -29.15)"/><path class="cls-1" d="M535.59,240.46a5.1,5.1,0,0,1,.63,2.44,4.67,4.67,0,0,1-.08.83c0,.19-.08.38-.13.58a3.13,3.13,0,0,1-2.36,2.43l-.85.12a3.25,3.25,0,0,0,2.1-2.39,5.39,5.39,0,0,0-.77-4.43,3.11,3.11,0,0,0-2.57-1.44l.9-.13A3.21,3.21,0,0,1,535.59,240.46Z" transform="translate(-170.93 -29.15)"/><path class="cls-1" d="M518.41,230.54A5.11,5.11,0,0,1,519,233a4.65,4.65,0,0,1-.08.82c0,.19-.08.38-.13.58a3.11,3.11,0,0,1-2.36,2.43l-.85.12h0a3.25,3.25,0,0,0,2.1-2.39,5.39,5.39,0,0,0-.77-4.43,3.08,3.08,0,0,0-2.57-1.43h0l.9-.13A3.24,3.24,0,0,1,518.41,230.54Z" transform="translate(-170.93 -29.15)"/><path class="cls-1" d="M523.31,212.62a5,5,0,0,1,.63,2.44,4.67,4.67,0,0,1-.08.83c0,.19-.08.38-.13.58a3.1,3.1,0,0,1-2.36,2.42l-.84.13a3.29,3.29,0,0,0,2.1-2.39,5.44,5.44,0,0,0-.78-4.43,3.11,3.11,0,0,0-2.57-1.44l.9-.13A3.22,3.22,0,0,1,523.31,212.62Z" transform="translate(-170.93 -29.15)"/><path class="cls-1" d="M540.49,222.54a5.07,5.07,0,0,1,.63,2.44,5,5,0,0,1-.08.84c0,.18-.08.37-.13.57a3.1,3.1,0,0,1-2.36,2.42l-.86.13h0a3.19,3.19,0,0,0,2.11-2.38,5.42,5.42,0,0,0-.77-4.44,3.1,3.1,0,0,0-2.57-1.43h0l.9-.13A3.22,3.22,0,0,1,540.49,222.54Z" transform="translate(-170.93 -29.15)"/><path class="cls-1" d="M557.67,232.46a5.1,5.1,0,0,1,.63,2.44,4.76,4.76,0,0,1-.08.83c0,.19-.08.38-.13.57a3.12,3.12,0,0,1-2.36,2.44l-.85.12h0a3.21,3.21,0,0,0,2.1-2.39,5.4,5.4,0,0,0-.77-4.43,3.13,3.13,0,0,0-2.57-1.43l.9-.13A3.22,3.22,0,0,1,557.67,232.46Z" transform="translate(-170.93 -29.15)"/><path class="cls-1" d="M563.2,217a4.76,4.76,0,0,1-.08.83c0,.19-.08.38-.13.58a3.11,3.11,0,0,1-2.36,2.42l-.85.13a3.27,3.27,0,0,0,2.1-2.39,5.38,5.38,0,0,0-.77-4.43,3.11,3.11,0,0,0-2.57-1.44h0l.9-.13a3.21,3.21,0,0,1,3.13,2A5,5,0,0,1,563.2,217Z" transform="translate(-170.93 -29.15)"/><path class="cls-1" d="M545.39,204.62a5,5,0,0,1,.63,2.44,4.76,4.76,0,0,1-.08.83c0,.19-.08.38-.13.57a3.12,3.12,0,0,1-2.36,2.44l-.86.12h0a3.22,3.22,0,0,0,2.12-2.38,5.43,5.43,0,0,0-.78-4.43,3.11,3.11,0,0,0-2.57-1.44l.9-.13A3.21,3.21,0,0,1,545.39,204.62Z" transform="translate(-170.93 -29.15)"/><path class="cls-1" d="M528.21,194.7a4.89,4.89,0,0,1,.63,2.45,4.74,4.74,0,0,1-.08.82c0,.19-.08.38-.13.58a3.11,3.11,0,0,1-2.36,2.43l-.84.12h0a3.24,3.24,0,0,0,2.1-2.38,5.47,5.47,0,0,0-.78-4.44,3.13,3.13,0,0,0-2.57-1.43h0l.9-.13A3.23,3.23,0,0,1,528.21,194.7Z" transform="translate(-170.93 -29.15)"/><path class="cls-1" d="M567.47,196.62a5,5,0,0,1,.63,2.44,4.85,4.85,0,0,1-.08.83c0,.19-.08.37-.13.57a3.1,3.1,0,0,1-2.36,2.43l-.86.13h0a3.24,3.24,0,0,0,2.12-2.39,5.44,5.44,0,0,0-.78-4.43,3.1,3.1,0,0,0-2.57-1.43l.9-.13A3.22,3.22,0,0,1,567.47,196.62Z" transform="translate(-170.93 -29.15)"/><path class="cls-1" d="M550.29,186.7a4.86,4.86,0,0,1,.63,2.44,4.76,4.76,0,0,1-.08.83c0,.19-.08.38-.13.58a3.09,3.09,0,0,1-2.36,2.42l-.86.13h0a3.24,3.24,0,0,0,2.12-2.38,5.45,5.45,0,0,0-.78-4.44,3.1,3.1,0,0,0-2.57-1.43h0l.9-.13A3.22,3.22,0,0,1,550.29,186.7Z" transform="translate(-170.93 -29.15)"/><path class="cls-1" d="M533.11,176.78a5,5,0,0,1,.64,2.44,5.85,5.85,0,0,1-.09.83,4.35,4.35,0,0,1-.13.58,3.11,3.11,0,0,1-2.36,2.43l-.84.12a3.29,3.29,0,0,0,2.1-2.39,5.42,5.42,0,0,0-.78-4.43,3.11,3.11,0,0,0-2.57-1.44l.9-.13A3.21,3.21,0,0,1,533.11,176.78Z" transform="translate(-170.93 -29.15)"/><path class="cls-2" d="M566,196.19a5.44,5.44,0,0,1,.78,4.43,3.24,3.24,0,0,1-2.12,2.39,2.3,2.3,0,0,1-1.57-.15l1.28-.19a2.78,2.78,0,0,0,2.13-2.2,4.46,4.46,0,0,0-.37-3.5,3,3,0,0,0-2.85-1.81l-1.28.19a2.4,2.4,0,0,1,1.43-.59A3.1,3.1,0,0,1,566,196.19Z" transform="translate(-170.93 -29.15)"/><path class="cls-2" d="M548.83,186.27a5.45,5.45,0,0,1,.78,4.44,3.24,3.24,0,0,1-2.12,2.38,2.31,2.31,0,0,1-1.57-.15l1.28-.18a2.81,2.81,0,0,0,2.13-2.21,4.46,4.46,0,0,0-.37-3.5,3,3,0,0,0-2.85-1.81l-1.28.19a2.4,2.4,0,0,1,1.43-.59A3.1,3.1,0,0,1,548.83,186.27Z" transform="translate(-170.93 -29.15)"/><path class="cls-2" d="M531.65,176.36a5.42,5.42,0,0,1,.78,4.43,3.29,3.29,0,0,1-2.1,2.39,2.49,2.49,0,0,1-1.59-.15l1.28-.19a2.84,2.84,0,0,0,2.14-2.21,4.42,4.42,0,0,0-.39-3.5,2.92,2.92,0,0,0-2.84-1.81l-1.28.19a2.4,2.4,0,0,1,1.43-.59A3.11,3.11,0,0,1,531.65,176.36Z" transform="translate(-170.93 -29.15)"/><path class="cls-2" d="M526.75,194.27a5.47,5.47,0,0,1,.78,4.44,3.24,3.24,0,0,1-2.1,2.38,2.36,2.36,0,0,1-1.59-.15l1.28-.18a2.8,2.8,0,0,0,2.13-2.21,4.43,4.43,0,0,0-.37-3.49,2.94,2.94,0,0,0-2.85-1.81l-1.28.18a2.46,2.46,0,0,1,1.43-.59A3.13,3.13,0,0,1,526.75,194.27Z" transform="translate(-170.93 -29.15)"/><path class="cls-2" d="M543.93,204.2a5.43,5.43,0,0,1,.78,4.43,3.22,3.22,0,0,1-2.12,2.38,2.3,2.3,0,0,1-1.57-.15l1.28-.18a2.81,2.81,0,0,0,2.13-2.21,4.46,4.46,0,0,0-.37-3.5,3,3,0,0,0-2.85-1.81l-1.28.19a2.4,2.4,0,0,1,1.43-.59A3.11,3.11,0,0,1,543.93,204.2Z" transform="translate(-170.93 -29.15)"/><path class="cls-2" d="M561.11,214.12a5.38,5.38,0,0,1,.77,4.43,3.27,3.27,0,0,1-2.1,2.39,2.41,2.41,0,0,1-1.58-.16l1.27-.18a2.83,2.83,0,0,0,2.15-2.21,4.5,4.5,0,0,0-.38-3.5,3,3,0,0,0-2.85-1.81l-1.28.18a2.42,2.42,0,0,1,1.43-.58A3.11,3.11,0,0,1,561.11,214.12Z" transform="translate(-170.93 -29.15)"/><path class="cls-2" d="M512.05,248a5.4,5.4,0,0,1,.77,4.43,3.23,3.23,0,0,1-2.1,2.39,2.37,2.37,0,0,1-1.59-.15h0l1.28-.18a2.79,2.79,0,0,0,2.14-2.21,4.44,4.44,0,0,0-.38-3.49,2.92,2.92,0,0,0-2.85-1.81l-1.27.18a2.44,2.44,0,0,1,1.42-.59A3.14,3.14,0,0,1,512.05,248Z" transform="translate(-170.93 -29.15)"/><path class="cls-2" d="M517,230.12a5.39,5.39,0,0,1,.77,4.43,3.25,3.25,0,0,1-2.1,2.39,2.46,2.46,0,0,1-1.58-.15l1.27-.19a2.82,2.82,0,0,0,2.15-2.2,4.57,4.57,0,0,0-.38-3.51,2.94,2.94,0,0,0-2.85-1.8l-1.28.18a2.36,2.36,0,0,1,1.43-.58A3.08,3.08,0,0,1,517,230.12Z" transform="translate(-170.93 -29.15)"/><path class="cls-2" d="M521.85,212.2a5.44,5.44,0,0,1,.78,4.43,3.29,3.29,0,0,1-2.1,2.39,2.46,2.46,0,0,1-1.6-.15l1.29-.19a2.8,2.8,0,0,0,2.13-2.21A4.43,4.43,0,0,0,522,213a3,3,0,0,0-2.85-1.82l-1.28.19a2.4,2.4,0,0,1,1.43-.59A3.11,3.11,0,0,1,521.85,212.2Z" transform="translate(-170.93 -29.15)"/><path class="cls-2" d="M539,222.11a5.42,5.42,0,0,1,.77,4.44,3.19,3.19,0,0,1-2.11,2.38,2.31,2.31,0,0,1-1.57-.15l1.27-.18a2.83,2.83,0,0,0,2.15-2.21,4.52,4.52,0,0,0-.38-3.49,2.94,2.94,0,0,0-2.85-1.81l-1.28.18a2.38,2.38,0,0,1,1.43-.59A3.1,3.1,0,0,1,539,222.11Z" transform="translate(-170.93 -29.15)"/><path class="cls-2" d="M534.13,240a5.39,5.39,0,0,1,.77,4.43,3.25,3.25,0,0,1-2.1,2.39,2.5,2.5,0,0,1-1.59-.15l1.28-.19a2.85,2.85,0,0,0,2.15-2.21,4.51,4.51,0,0,0-.39-3.5,2.94,2.94,0,0,0-2.84-1.81l-1.29.19a2.43,2.43,0,0,1,1.44-.59A3.11,3.11,0,0,1,534.13,240Z" transform="translate(-170.93 -29.15)"/><polygon class="cls-3" points="480.58 102.54 497.5 138.35 497.25 138.38 496.92 138.7 494.28 139.38 478.12 105.18 480.58 102.54"/><polygon class="cls-3" points="497.5 138.35 434.75 365.88 434.5 365.92 432.93 363.75 494.31 141.19 496.92 138.7 497.25 138.61 497.5 138.35"/><polygon class="cls-4" points="496.92 138.7 494.31 141.19 317.15 38.9 318.31 37.8 494.28 139.38 496.92 138.7"/><path class="cls-5" d="M665.24,170.33,603.86,392.9,426.7,290.62,488.08,68Zm-75.89,41.34c.07-.08,0-.11-.11-.15s0-.28-.08-.3l-4.46-2.58c0-.88-.21-1.91-1.33-1.74l-.24,0a3.25,3.25,0,0,1-2-.9c-.57-.54-.33-1.46-1.54-1.28a2.77,2.77,0,0,0-1,.39l-4.49-2.59h0l-6-3.49a5,5,0,0,0-.63-2.44,3.22,3.22,0,0,0-3.13-2l-.9.13a2.4,2.4,0,0,0-1.43.59l-.27,0h0L557,192.64h0l-6-3.49a4.86,4.86,0,0,0-.63-2.44,3.22,3.22,0,0,0-3.13-2l-.9.13h0a2.4,2.4,0,0,0-1.43.59l-.27,0-4.77-2.75h0l-6-3.49a5,5,0,0,0-.64-2.44,3.21,3.21,0,0,0-3.13-2l-.9.13a2.4,2.4,0,0,0-1.43.59l-.27,0-4.77-2.76c-.15-.08-.27,0-.35.18s-.13,0-.19,0a.15.15,0,0,0,0,.06l-4.91,18L512.23,209l-4.9,17.92-4.88,17.82c0,.09.06.1.12.14s-.07.21.06.29l3.93,2.27-1.58.22-.11,0a3.8,3.8,0,0,0-1.33,7,3.57,3.57,0,0,0,2.45.47h.06l3.08-.45h0a2.37,2.37,0,0,0,1.59.15l.85-.12a3.13,3.13,0,0,0,2.36-2.43q.08-.3.12-.57h0l5.74,3.31h0l3.93,2.26-1.58.23-.11,0a3.8,3.8,0,0,0-1.33,7,3.57,3.57,0,0,0,2.45.47h.06l3.08-.45h0a2.34,2.34,0,0,0,1.58.15h0l.85-.12a3.13,3.13,0,0,0,2.36-2.43q.07-.3.12-.57h0L537,265h0l3.93,2.27-1.58.23h-.11a3.8,3.8,0,0,0-1.33,7,3.56,3.56,0,0,0,2.45.46h.07l3.07-.45a2.36,2.36,0,0,0,1.59.15h0l.85-.12a3.1,3.1,0,0,0,2.35-2.43,4.35,4.35,0,0,0,.13-.58h0l5.74,3.32h0l4.48,2.59h0c0,.6.06,1.43.75,1.69.37.14.7,0,1,0a2.45,2.45,0,0,1,1,.38,3.2,3.2,0,0,1,.85.62c.24.27.25.64.5.91.57.59,1.4.2,1.94-.11l4.42,2.55c0,.05.07.07.16.06a.31.31,0,0,0,.24-.17c.1,0,.19.06.22-.08l19.6-71.66Z" transform="translate(-170.93 -29.15)"/><polygon class="cls-6" points="478.12 105.18 494.28 139.38 318.31 37.8 317.12 37.1 300.96 2.9 478.12 105.18"/><polygon class="cls-3" points="480.58 102.54 478.12 105.18 300.96 2.9 303.42 0.25 480.58 102.54"/><polygon class="cls-7" points="434.75 365.88 433.44 367.48 433.36 367.23 256.2 264.95 257.35 263.63 434.5 365.92 434.75 365.88"/><polygon class="cls-3" points="432.93 363.75 434.5 365.92 257.35 263.63 255.77 261.47 432.93 363.75"/><polygon class="cls-3" points="433.36 367.23 433.44 367.48 356.2 438.36 356.12 438.11 357.29 434.13 430.83 366.65 433.36 367.23"/><polygon class="cls-3" points="433.36 367.23 430.83 366.65 253.66 264.37 256.2 264.95 433.36 367.23"/><polygon class="cls-6" points="430.83 366.65 357.29 434.13 353.59 431.99 353.59 345.63 237.9 278.84 253.66 264.37 430.83 366.65"/><path class="cls-8" d="M578.75,247.58h0c0-.1.12-.1.19-.14a.61.61,0,0,1,0-.4l.05-.21h0l4.69-17.16h0c0-.1.12-.1.19-.13a.64.64,0,0,1,0-.41l.05-.2,4.7-17.17h0c0-.1.12-.1.19-.13a1,1,0,0,0,.41.12c.07,0,.13,0,.2,0l-19.6,71.66c0,.14-.12.11-.22.08a.11.11,0,0,0-.08,0,.82.82,0,0,1-.31-.11.72.72,0,0,1,0-.41l.06-.2h0l4.7-17.17h0c0-.1.12-.09.19-.13a.64.64,0,0,1,0-.41l0-.2h0Z" transform="translate(-170.93 -29.15)"/><path class="cls-8" d="M589.16,211.22a.15.15,0,0,0-.13,0,.46.46,0,0,0-.29.37c-.07,0-.16,0-.19.13h0l-4.23-2.44-.08-.05c-.27-.15,0-.63.28-.67a.12.12,0,0,1,.1,0l.08,0Z" transform="translate(-170.93 -29.15)"/><path class="cls-5" d="M588.55,211.74l-4.7,17.17-4.05-2.35c0-.87-.21-1.91-1.34-1.75l-.23.05a3.32,3.32,0,0,1-2-.91c-.57-.55-.33-1.46-1.55-1.28a2.67,2.67,0,0,0-1,.39l-4.48-2.59h0l-6-3.49a5,5,0,0,0-.63-2.44,3.21,3.21,0,0,0-3.13-2l-.9.13h0a2.42,2.42,0,0,0-1.43.58h0l-.27,0-4.77-2.76h0l-6-3.49a5,5,0,0,0-.63-2.44,3.21,3.21,0,0,0-3.13-2l-.9.13a2.4,2.4,0,0,0-1.43.59l-.27,0-4.77-2.75h0l-6-3.48a4.89,4.89,0,0,0-.63-2.45,3.23,3.23,0,0,0-3.13-2l-.9.13h0a2.46,2.46,0,0,0-1.43.59l-.27,0L518,190.86l3.32-12.17.1,0a3.8,3.8,0,0,0,1.76,4.29,3.53,3.53,0,0,0,2.44.47h.07l3.08-.44a2.49,2.49,0,0,0,1.59.15l.84-.12a3.11,3.11,0,0,0,2.36-2.43,4.35,4.35,0,0,0,.13-.58l5.74,3.32h0l3.94,2.27-1.59.23-.1,0a3.79,3.79,0,0,0-1.33,7,3.55,3.55,0,0,0,2.44.48h.07l3.08-.45h0a2.31,2.31,0,0,0,1.57.15h0l.86-.13a3.09,3.09,0,0,0,2.36-2.42c0-.2.1-.39.13-.58l5.74,3.31h0l3.93,2.27-1.58.23-.1,0a3.8,3.8,0,0,0-1.33,7,3.6,3.6,0,0,0,2.44.47H560l3.08-.45a2.3,2.3,0,0,0,1.57.15h0l.86-.13a3.1,3.1,0,0,0,2.36-2.43c.05-.2.1-.38.13-.57l5.74,3.31h0l4.48,2.59h0c0,.6.06,1.43.75,1.69.36.14.69,0,1,0a2.4,2.4,0,0,1,1,.38,3,3,0,0,1,.85.62c.24.27.25.64.51.91.57.59,1.39.2,1.94-.11Z" transform="translate(-170.93 -29.15)"/><path class="cls-9" d="M584.7,208.64l-.08,0a.12.12,0,0,0-.1,0c-.27,0-.55.52-.28.67l.08.05c-.55.31-1.37.7-1.94.11-.26-.27-.27-.64-.51-.91a3,3,0,0,0-.85-.62,2.4,2.4,0,0,0-1-.38c-.35,0-.68.13-1,0-.69-.26-.75-1.09-.75-1.69a.62.62,0,0,1,0-.13.49.49,0,0,1,.27-.46l.12-.07a2.77,2.77,0,0,1,1-.39c1.21-.18,1,.74,1.54,1.28a3.25,3.25,0,0,0,2,.9l.24,0C584.49,206.73,584.69,207.76,584.7,208.64Z" transform="translate(-170.93 -29.15)"/><path class="cls-8" d="M583.85,228.91l-.05.2a.64.64,0,0,0,0,.41c-.07,0-.16,0-.19.13h0l-4.23-2.44h0l-.07,0c-.28-.17,0-.64.28-.68a.16.16,0,0,1,.1,0l.08,0Z" transform="translate(-170.93 -29.15)"/><path class="cls-5" d="M583.65,229.66,579,246.82h0l-4.05-2.34c0-.88-.21-1.91-1.34-1.74l-.23,0a3.25,3.25,0,0,1-2-.9c-.57-.54-.34-1.46-1.55-1.28a2.68,2.68,0,0,0-1,.4l-4.48-2.6h0l-6-3.49a5.1,5.1,0,0,0-.63-2.44,3.22,3.22,0,0,0-3.13-2l-.9.13a2.38,2.38,0,0,0-1.43.59l-.27,0h0l-4.77-2.75h0l-6-3.49a5.07,5.07,0,0,0-.63-2.44,3.22,3.22,0,0,0-3.13-2l-.9.13h0a2.38,2.38,0,0,0-1.43.59l-.27,0L530,218.56h0l-6-3.49a5,5,0,0,0-.63-2.44,3.22,3.22,0,0,0-3.13-2l-.9.13a2.4,2.4,0,0,0-1.43.59l-.27,0-4.52-2.6,3.33-12.17.1,0a3.78,3.78,0,0,0,1.76,4.29,3.54,3.54,0,0,0,2.44.47h.07l3.08-.45h0a2.36,2.36,0,0,0,1.59.15h0l.84-.12a3.11,3.11,0,0,0,2.36-2.43c0-.2.1-.39.13-.58l5.74,3.32h0l3.93,2.27-1.58.23h-.1a3.8,3.8,0,0,0-1.33,7,3.54,3.54,0,0,0,2.44.46h.06l3.09-.45a2.3,2.3,0,0,0,1.57.15h0l.86-.12a3.12,3.12,0,0,0,2.36-2.44c.05-.19.1-.38.13-.57l5.74,3.32h0l3.93,2.27-1.58.23-.1,0a3.79,3.79,0,0,0-1.33,7,3.6,3.6,0,0,0,2.44.48l.06,0,3.08-.44h0a2.41,2.41,0,0,0,1.58.16l.85-.13a3.11,3.11,0,0,0,2.36-2.42c0-.2.09-.39.13-.58l5.74,3.31h0l4.48,2.59h0c0,.6,0,1.43.75,1.69.36.14.69,0,1,0a2.54,2.54,0,0,1,1,.37,3.25,3.25,0,0,1,.84.63c.25.27.26.64.52.91.57.59,1.39.2,1.93-.11h0Z" transform="translate(-170.93 -29.15)"/><path class="cls-9" d="M579.8,226.56l-.08,0a.16.16,0,0,0-.1,0c-.27,0-.56.51-.28.68l.07,0c-.54.31-1.36.7-1.93.11-.26-.27-.27-.64-.52-.91a3.25,3.25,0,0,0-.84-.63,2.54,2.54,0,0,0-1-.37c-.35,0-.68.13-1,0-.7-.26-.75-1.09-.75-1.69a.57.57,0,0,1,0-.13.49.49,0,0,1,.27-.46l.11-.07a2.67,2.67,0,0,1,1-.39c1.22-.18,1,.73,1.55,1.28a3.32,3.32,0,0,0,2,.91l.23-.05C579.59,224.65,579.79,225.69,579.8,226.56Z" transform="translate(-170.93 -29.15)"/><path class="cls-8" d="M574.9,244.48l4.05,2.34-.05.21a.61.61,0,0,0,0,.4c-.07,0-.16,0-.19.14h0l-4.23-2.44-.08,0c-.28-.15,0-.63.28-.67a.12.12,0,0,1,.1,0Z" transform="translate(-170.93 -29.15)"/><path class="cls-5" d="M578.75,247.58l-4.69,17.17h0L570,262.4c0-.87-.2-1.91-1.33-1.74l-.23,0a3.32,3.32,0,0,1-2-.91c-.57-.54-.34-1.45-1.55-1.28a3.06,3.06,0,0,0-1,.39l-4.48-2.58h0l-6-3.49a5.07,5.07,0,0,0-.63-2.44,3.22,3.22,0,0,0-3.13-2l-.93.13a2.44,2.44,0,0,0-1.41.59l-.26,0-4.77-2.75h0l-6-3.49a5.1,5.1,0,0,0-.63-2.44,3.21,3.21,0,0,0-3.13-2l-.9.13a2.43,2.43,0,0,0-1.44.59l-.26,0-4.77-2.75h0L519,233a5.11,5.11,0,0,0-.63-2.45,3.24,3.24,0,0,0-3.13-2l-.9.13h0a2.36,2.36,0,0,0-1.43.58l-.27,0-4.52-2.61,3.33-12.17.1,0a3.78,3.78,0,0,0,1.76,4.29,3.54,3.54,0,0,0,2.44.47h.06l3.08-.44a2.46,2.46,0,0,0,1.6.15l.84-.13a3.1,3.1,0,0,0,2.36-2.42c0-.2.1-.39.13-.58l5.74,3.32h0l3.93,2.26-1.58.23-.1,0a3.79,3.79,0,0,0-1.33,7,3.53,3.53,0,0,0,2.44.47H533l3.08-.45h0a2.31,2.31,0,0,0,1.57.15h0l.86-.13a3.1,3.1,0,0,0,2.36-2.42c.05-.2.09-.39.13-.57l5.74,3.31h0l3.93,2.27-1.58.23H549a3.8,3.8,0,0,0-1.32,7.05,3.53,3.53,0,0,0,2.44.46h.06l3.08-.45a2.37,2.37,0,0,0,1.59.15h0l.85-.12a3.12,3.12,0,0,0,2.36-2.44c0-.19.09-.38.13-.57h0l5.74,3.32h0l4.48,2.59h0c0,.6.06,1.43.75,1.69.36.15.69,0,1,0a2.4,2.4,0,0,1,1,.38,3.2,3.2,0,0,1,.85.62c.24.27.25.64.51.91.56.59,1.39.2,1.94-.11Z" transform="translate(-170.93 -29.15)"/><path class="cls-8" d="M578.64,205.14l-.12.07a.49.49,0,0,0-.27.46.62.62,0,0,0,0,.13h0l-4.48-2.59h0L568,199.89a4.85,4.85,0,0,0,.08-.83l6,3.49h0Z" transform="translate(-170.93 -29.15)"/><path class="cls-9" d="M574.9,244.48l-.08,0a.12.12,0,0,0-.1,0c-.27,0-.56.52-.28.67l.08,0c-.55.31-1.38.7-1.94.11-.26-.27-.27-.64-.51-.91a3.2,3.2,0,0,0-.85-.62,2.4,2.4,0,0,0-1-.38c-.35,0-.68.14-1,0-.69-.26-.75-1.09-.75-1.69a.57.57,0,0,1,0-.13.49.49,0,0,1,.27-.46l.11-.06a2.68,2.68,0,0,1,1-.4c1.21-.18,1,.74,1.55,1.28a3.25,3.25,0,0,0,2,.9l.23,0C574.69,242.57,574.89,243.6,574.9,244.48Z" transform="translate(-170.93 -29.15)"/><path class="cls-8" d="M570,262.4l4.06,2.35,0,.2a.64.64,0,0,0,0,.41c-.07,0-.16,0-.19.13h0l-4.24-2.44h0l-.08,0c-.27-.16,0-.64.29-.68a.13.13,0,0,1,.09,0Z" transform="translate(-170.93 -29.15)"/><path class="cls-5" d="M573.85,265.5l-4.7,17.17h0l-4.06-2.35c0-.87-.21-1.91-1.33-1.74l-.24,0a3.36,3.36,0,0,1-1.95-.9c-.57-.55-.34-1.47-1.55-1.29a2.68,2.68,0,0,0-1,.4l-4.48-2.6h0l-6-3.49a5.1,5.1,0,0,0-.63-2.44,3.23,3.23,0,0,0-3.13-2l-.91.13a2.4,2.4,0,0,0-1.43.59l-.27,0-4.76-2.75h0l-6-3.48a5.11,5.11,0,0,0-.63-2.45,3.23,3.23,0,0,0-3.13-2l-.91.13h0a2.38,2.38,0,0,0-1.43.58l-.26,0-4.77-2.75h0l-6-3.48a5.11,5.11,0,0,0-.63-2.45,3.22,3.22,0,0,0-3.13-2l-.91.13a2.44,2.44,0,0,0-1.42.59h0l-.26,0-4.52-2.6,3.33-12.18.09,0a3.8,3.8,0,0,0,1.77,4.29,3.53,3.53,0,0,0,2.44.47H511l3.08-.44h0a2.46,2.46,0,0,0,1.58.15h0l.85-.12a3.11,3.11,0,0,0,2.36-2.43c0-.2.1-.39.13-.58l5.74,3.32h0l3.93,2.28-1.58.23H527a3.79,3.79,0,0,0-1.32,7,3.53,3.53,0,0,0,2.44.47h.06l3.08-.44a2.5,2.5,0,0,0,1.59.15l.85-.12a3.13,3.13,0,0,0,2.36-2.43c0-.2.09-.39.13-.58h0l5.74,3.32h0l3.92,2.28-1.57.22-.11,0a3.8,3.8,0,0,0-1.33,7,3.57,3.57,0,0,0,2.45.47h.06l3.08-.45h0a2.31,2.31,0,0,0,1.57.16l.86-.13a3.1,3.1,0,0,0,2.36-2.42c0-.2.09-.39.12-.58h0l5.74,3.31h0l4.48,2.59h0c0,.6.05,1.43.75,1.7.36.13.69,0,1,0a2.3,2.3,0,0,1,1,.37,3.2,3.2,0,0,1,.85.62c.24.27.25.64.51.91.56.59,1.39.2,1.93-.11h0Z" transform="translate(-170.93 -29.15)"/><path class="cls-8" d="M573.73,223.06l-.11.07a.49.49,0,0,0-.27.46.57.57,0,0,0,0,.13h0l-4.48-2.59h0l-5.74-3.31a4.76,4.76,0,0,0,.08-.83l6,3.49h0Z" transform="translate(-170.93 -29.15)"/><path class="cls-9" d="M570,262.4l-.08,0a.13.13,0,0,0-.09,0c-.28,0-.56.52-.29.68l.08,0c-.54.31-1.37.7-1.93.11-.26-.27-.27-.64-.51-.91a3.2,3.2,0,0,0-.85-.62,2.3,2.3,0,0,0-1-.37c-.35,0-.68.12-1,0-.7-.27-.75-1.1-.75-1.7a.53.53,0,0,1,0-.13.49.49,0,0,1,.27-.46l.11-.07a3.06,3.06,0,0,1,1-.39c1.21-.17,1,.74,1.55,1.28a3.32,3.32,0,0,0,2,.91l.23,0C569.79,260.49,570,261.53,570,262.4Z" transform="translate(-170.93 -29.15)"/><path class="cls-8" d="M565.09,280.32l4.06,2.35-.06.2a.72.72,0,0,0,0,.41.36.36,0,0,0,0,.25L564.71,281l-.08,0c-.27-.16,0-.64.29-.67a.1.1,0,0,1,.09,0Z" transform="translate(-170.93 -29.15)"/><path class="cls-8" d="M568.83,241l-.11.06a.49.49,0,0,0-.27.46.57.57,0,0,0,0,.13h0L564,239.05h0l-5.74-3.32h0a4.76,4.76,0,0,0,.08-.83l6,3.49h0Z" transform="translate(-170.93 -29.15)"/><path class="cls-9" d="M565.09,280.32l-.08,0a.1.1,0,0,0-.09,0c-.28,0-.56.51-.29.67l.08,0c-.54.31-1.37.7-1.94.11-.25-.27-.26-.64-.5-.91a3.2,3.2,0,0,0-.85-.62,2.45,2.45,0,0,0-1-.38c-.34,0-.67.13-1,0-.69-.26-.75-1.09-.75-1.69v-.13a.46.46,0,0,1,.27-.46l.11-.06a2.68,2.68,0,0,1,1-.4c1.21-.18,1,.74,1.55,1.29a3.36,3.36,0,0,0,1.95.9l.24,0C564.88,278.41,565.09,279.45,565.09,280.32Z" transform="translate(-170.93 -29.15)"/><path class="cls-8" d="M563.93,258.9l-.11.07a.49.49,0,0,0-.27.46.53.53,0,0,0,0,.13h0L559.07,257h0l-5.74-3.31h0a4.79,4.79,0,0,0,.09-.83l6,3.49h0Z" transform="translate(-170.93 -29.15)"/><path class="cls-8" d="M561.74,195.38h0l-1.22.17-3.93-2.27h0L550.84,190a4.76,4.76,0,0,0,.08-.83l6,3.49h0Z" transform="translate(-170.93 -29.15)"/><path class="cls-8" d="M559,276.83l-.11.06a.46.46,0,0,0-.27.46v.13h0l-4.48-2.59h0l-5.74-3.32h0a4.79,4.79,0,0,0,.09-.83l6,3.49h0Z" transform="translate(-170.93 -29.15)"/><path class="cls-2" d="M556.21,232a5.4,5.4,0,0,1,.77,4.43,3.21,3.21,0,0,1-2.1,2.39,2.37,2.37,0,0,1-1.59-.15l1.28-.18a2.85,2.85,0,0,0,2.15-2.21,4.55,4.55,0,0,0-.38-3.5,2.94,2.94,0,0,0-2.85-1.8l-1.28.18a2.38,2.38,0,0,1,1.43-.59A3.13,3.13,0,0,1,556.21,232Z" transform="translate(-170.93 -29.15)"/><path class="cls-8" d="M556.84,213.31l-1.22.17-3.93-2.27h0l-5.74-3.32a4.76,4.76,0,0,0,.08-.83l6,3.49h0Z" transform="translate(-170.93 -29.15)"/><path class="cls-2" d="M550,256.78a2.31,2.31,0,0,1-1.57-.16l1.27-.18a2.82,2.82,0,0,0,2.14-2.21,4.46,4.46,0,0,0-.38-3.5,3,3,0,0,0-2.85-1.81l-1.28.19a2.44,2.44,0,0,1,1.41-.59,3.1,3.1,0,0,1,2.6,1.44,5.43,5.43,0,0,1,.77,4.43A3.22,3.22,0,0,1,550,256.78Z" transform="translate(-170.93 -29.15)"/><path class="cls-8" d="M551.94,231.23h0l-1.22.17-3.93-2.27h0L541,225.82a5,5,0,0,0,.08-.84l6,3.49h0Z" transform="translate(-170.93 -29.15)"/><path class="cls-2" d="M546.41,267.88a5.43,5.43,0,0,1,.77,4.43,3.23,3.23,0,0,1-2.1,2.38,2.36,2.36,0,0,1-1.59-.15l1.28-.18a2.84,2.84,0,0,0,2.14-2.21,4.46,4.46,0,0,0-.38-3.5,2.93,2.93,0,0,0-2.85-1.81l-1.28.19a2.4,2.4,0,0,1,1.43-.59A3.13,3.13,0,0,1,546.41,267.88Z" transform="translate(-170.93 -29.15)"/><path class="cls-8" d="M547,249.15l-1.22.18h0l-3.92-2.28h0l-5.74-3.32h0a4.67,4.67,0,0,0,.08-.83l6,3.49h0Z" transform="translate(-170.93 -29.15)"/><path class="cls-8" d="M544.56,185.47l-1.21.17-3.94-2.27h0l-5.74-3.32a5.85,5.85,0,0,0,.09-.83l6,3.49h0Z" transform="translate(-170.93 -29.15)"/><path class="cls-8" d="M542.13,267.07l-1.21.17L537,265h0l-5.74-3.31h0a5,5,0,0,0,.09-.83l6,3.48h0Z" transform="translate(-170.93 -29.15)"/><path class="cls-8" d="M539.66,203.39l-1.22.17-3.93-2.27h0L528.76,198a4.74,4.74,0,0,0,.08-.82l6,3.48h0Z" transform="translate(-170.93 -29.15)"/><path class="cls-8" d="M534.76,221.31l-1.22.17-3.93-2.26h0l-5.74-3.32a4.67,4.67,0,0,0,.08-.83l6,3.49h0Z" transform="translate(-170.93 -29.15)"/><path class="cls-2" d="M529.22,258a5.4,5.4,0,0,1,.78,4.43,3.2,3.2,0,0,1-2.1,2.38,2.34,2.34,0,0,1-1.58-.15l1.27-.18a2.81,2.81,0,0,0,2.14-2.2,4.45,4.45,0,0,0-.38-3.5,2.92,2.92,0,0,0-2.85-1.81l-1.28.18a2.38,2.38,0,0,1,1.43-.58A3.07,3.07,0,0,1,529.22,258Z" transform="translate(-170.93 -29.15)"/><path class="cls-8" d="M529.86,239.23l-1.22.18-3.93-2.28h0L519,233.81A4.65,4.65,0,0,0,519,233l6,3.48h0Z" transform="translate(-170.93 -29.15)"/><polygon class="cls-7" points="357.29 434.13 356.12 438.11 353.59 436.65 353.59 431.99 357.29 434.13"/><path class="cls-8" d="M527.38,175.55l-1.21.17-3.51-2h0l-.18-.1a.72.72,0,0,1-.31-.44,1.54,1.54,0,0,1,.09-.19c.08-.14.2-.26.35-.18Z" transform="translate(-170.93 -29.15)"/><polygon class="cls-4" points="356.2 438.36 353.59 438.61 353.59 436.86 356.2 438.36"/><path class="cls-5" d="M526.17,175.72l-1.59.23-.1,0a3.78,3.78,0,0,0-3.09,2.75l-.1,0,1.37-5Z" transform="translate(-170.93 -29.15)"/><path class="cls-8" d="M525,257.15l-1.22.17-3.93-2.26h0l-5.74-3.31h0a4,4,0,0,0,.09-.83l6,3.48h0Z" transform="translate(-170.93 -29.15)"/><polygon class="cls-6" points="353.59 436.86 353.59 438.61 177.41 541.46 177.41 448.47 353.59 345.63 353.59 431.99 353.59 436.65 353.59 436.86"/><path class="cls-3" d="M524.52,374.77,348.35,477.62,171.18,375.34,349.32,273.62,408.83,308ZM441.76,420l77.41-45.19L349.3,276.71,176.57,375.35l78.27,45.19,93.49,54L441.75,420Z" transform="translate(-170.93 -29.15)"/><path class="cls-8" d="M522.66,173.7h0l-1.37,5L518,190.86h0c-.1-.06-.61.18-.68.22l-.14,0,4.91-18c0,.05.09.07.13.09a.72.72,0,0,0,.31.44Z" transform="translate(-170.93 -29.15)"/><path class="cls-8" d="M522.48,193.47l-1.22.17-3.5-2-.18-.1a.72.72,0,0,1-.31-.44c.07,0,.58-.28.68-.22h0Z" transform="translate(-170.93 -29.15)"/><path class="cls-5" d="M521.26,193.64l-1.58.23-.1,0a3.77,3.77,0,0,0-3.09,2.75l-.1,0,1.37-5h0Z" transform="translate(-170.93 -29.15)"/><polygon class="cls-5" points="348.23 345.63 270.82 390.83 270.82 390.83 178.37 337.45 178.37 321.33 178.37 247.56 348.23 345.63"/><path class="cls-8" d="M517.76,191.62h0l-1.37,5-3.33,12.17h0c-.1-.05-.61.19-.68.23l-.14,0,4.9-17.93.14,0a.72.72,0,0,0,.31.44Z" transform="translate(-170.93 -29.15)"/><path class="cls-8" d="M517.58,211.39l-1.22.18-3.5-2h0l-.18-.1a.73.73,0,0,1-.31-.43c.07,0,.58-.28.68-.23h0Z" transform="translate(-170.93 -29.15)"/><path class="cls-5" d="M516.36,211.57l-1.58.23h-.1a3.77,3.77,0,0,0-3.09,2.75l-.1,0,1.37-5Z" transform="translate(-170.93 -29.15)"/><path class="cls-8" d="M512.86,209.54h0l-1.37,5-3.33,12.17h0c-.1,0-.61.19-.68.22l-.14,0,4.9-17.92.14,0a.73.73,0,0,0,.31.43Z" transform="translate(-170.93 -29.15)"/><path class="cls-8" d="M512.68,229.31l-1.22.17-3.5-2-.18-.1a.64.64,0,0,1-.31-.44c.07,0,.58-.27.68-.22h0Z" transform="translate(-170.93 -29.15)"/><path class="cls-5" d="M511.46,229.48l-1.58.23-.11,0a3.81,3.81,0,0,0-3.09,2.75l-.09,0,1.37-5Z" transform="translate(-170.93 -29.15)"/><path class="cls-8" d="M507.78,227.36l.18.1-1.37,5-3.33,12.18h0c-.1-.05-.61.19-.68.23s-.14,0-.12-.14l4.88-17.82.14,0A.64.64,0,0,0,507.78,227.36Z" transform="translate(-170.93 -29.15)"/><path class="cls-8" d="M503.26,244.63l4.52,2.6-1.22.18h0l-3.93-2.27c-.13-.08-.09-.18-.06-.29s.58-.28.68-.23h0Z" transform="translate(-170.93 -29.15)"/><polygon class="cls-5" points="178.37 337.45 270.82 390.83 177.4 445.37 83.91 391.39 178.37 337.45"/><polygon class="cls-5" points="178.37 321.33 178.37 337.45 83.91 391.39 5.63 346.2 178.37 247.56 178.37 321.33"/><polygon class="cls-6" points="177.41 448.47 177.41 541.46 0.25 439.18 0.25 346.19 177.41 448.47"/><path class="cls-10" d="M566.79,200.62a3.24,3.24,0,0,1-2.12,2.39,2.3,2.3,0,0,1-1.57-.15" transform="translate(-170.93 -29.15)"/><path class="cls-10" d="M567.89,200.46a3.1,3.1,0,0,1-2.36,2.43" transform="translate(-170.93 -29.15)"/><path class="cls-10" d="M564.34,194.63a3.22,3.22,0,0,1,3.13,2,5,5,0,0,1,.63,2.44,4.85,4.85,0,0,1-.08.83c0,.19-.08.37-.13.57" transform="translate(-170.93 -29.15)"/><path class="cls-10" d="M588.55,211.73c0-.1.12-.1.19-.13" transform="translate(-170.93 -29.15)"/><path class="cls-10" d="M589.35,211.68c-.07.07-.13,0-.2,0a1,1,0,0,1-.41-.12" transform="translate(-170.93 -29.15)"/><path class="cls-10" d="M589.24,211.52c.07,0,.18.07.11.15" transform="translate(-170.93 -29.15)"/><path class="cls-10" d="M569.75,283.34c0,.14-.12.11-.22.08a.11.11,0,0,0-.08,0,.82.82,0,0,1-.31-.11" transform="translate(-170.93 -29.15)"/><polyline class="cls-10" points="418.42 182.52 418.42 182.53 398.82 254.19"/><path class="cls-10" d="M569.14,283.28a.72.72,0,0,1,0-.41" transform="translate(-170.93 -29.15)"/><path class="cls-10" d="M573.85,265.49c0-.1.12-.09.19-.13" transform="translate(-170.93 -29.15)"/><path class="cls-10" d="M574,265.36a.64.64,0,0,1,0-.41" transform="translate(-170.93 -29.15)"/><path class="cls-10" d="M578.75,247.57c0-.1.12-.1.19-.14" transform="translate(-170.93 -29.15)"/><polyline class="cls-10" points="379.99 160 386.03 163.49 386.04 163.49 390.81 166.24"/><path class="cls-10" d="M578.94,247.43a.61.61,0,0,1,0-.4" transform="translate(-170.93 -29.15)"/><path class="cls-10" d="M583.65,229.65c0-.1.12-.1.19-.13" transform="translate(-170.93 -29.15)"/><polyline class="cls-10" points="382.47 223.68 388.5 227.16 388.51 227.17 393 229.76"/><polyline class="cls-10" points="357.71 210.26 353.78 207.99 353.76 207.98 348.02 204.67"/><path class="cls-10" d="M583.84,229.52a.64.64,0,0,1,0-.41" transform="translate(-170.93 -29.15)"/><polyline class="cls-10" points="348.11 203.84 354.15 207.32 354.16 207.34 358.92 210.08"/><line class="cls-10" x1="417.81" y1="182.45" x2="418.31" y2="182.38"/><polyline class="cls-10" points="394.08 251.13 394.16 251.18 398.21 253.52"/><path class="cls-10" d="M569.29,283.59c-.09,0-.14,0-.16-.06a.36.36,0,0,1,0-.25" transform="translate(-170.93 -29.15)"/><path class="cls-10" d="M569.53,283.42a.31.31,0,0,1-.24.17" transform="translate(-170.93 -29.15)"/><polyline class="cls-10" points="398.19 254.38 393.78 251.84 393.7 251.79"/><path class="cls-10" d="M588.74,211.6a.46.46,0,0,1,.29-.37.15.15,0,0,1,.13,0c.1,0,.12.16.08.3" transform="translate(-170.93 -29.15)"/><path class="cls-10" d="M558.92,276.89a.46.46,0,0,0-.27.46" transform="translate(-170.93 -29.15)"/><path class="cls-10" d="M564.63,280.94c-.27-.16,0-.64.29-.67" transform="translate(-170.93 -29.15)"/><path class="cls-10" d="M564.92,280.27a.1.1,0,0,1,.09,0" transform="translate(-170.93 -29.15)"/><path class="cls-10" d="M568.43,260.7l.23,0" transform="translate(-170.93 -29.15)"/><polyline class="cls-10" points="398.98 233.21 399.06 233.26 403.12 235.6"/><path class="cls-10" d="M568.66,260.66c1.13-.17,1.33.87,1.33,1.74" transform="translate(-170.93 -29.15)"/><polyline class="cls-10" points="352.81 228.18 348.88 225.91 348.86 225.91 343.13 222.59"/><polyline class="cls-10" points="343.21 221.76 349.24 225.25 349.25 225.25 354.02 228.01"/><path class="cls-10" d="M564.92,258.51c1.21-.17,1,.74,1.55,1.28a3.32,3.32,0,0,0,2,.91" transform="translate(-170.93 -29.15)"/><path class="cls-10" d="M566.51,200.47a2.78,2.78,0,0,1-2.13,2.2" transform="translate(-170.93 -29.15)"/><path class="cls-10" d="M563.29,195.16a3,3,0,0,1,2.85,1.81,4.46,4.46,0,0,1,.37,3.5" transform="translate(-170.93 -29.15)"/><path class="cls-10" d="M532.43,180.79a3.29,3.29,0,0,1-2.1,2.39,2.49,2.49,0,0,1-1.59-.15" transform="translate(-170.93 -29.15)"/><path class="cls-10" d="M527.65,175.51a2.4,2.4,0,0,1,1.43-.59,3.11,3.11,0,0,1,2.57,1.44,5.42,5.42,0,0,1,.78,4.43" transform="translate(-170.93 -29.15)"/><polyline class="cls-10" points="375.09 177.92 381.13 181.4 381.14 181.41 385.9 184.16"/><polyline class="cls-10" points="384.69 184.34 384.68 184.33 380.76 182.07 380.75 182.06 375 178.75"/><path class="cls-10" d="M563.82,259a.49.49,0,0,0-.27.46" transform="translate(-170.93 -29.15)"/><polyline class="cls-10" points="331.52 215.56 336.39 197.74 341.3 179.82 346.2 161.9 351.11 143.93"/><path class="cls-10" d="M569.53,263c-.27-.16,0-.64.29-.68" transform="translate(-170.93 -29.15)"/><path class="cls-10" d="M569.61,263.06c-.54.31-1.37.7-1.93.11-.26-.27-.27-.64-.51-.91a3.2,3.2,0,0,0-.85-.62,2.3,2.3,0,0,0-1-.37c-.35,0-.68.12-1,0-.7-.27-.75-1.1-.75-1.7a.53.53,0,0,1,0-.13" transform="translate(-170.93 -29.15)"/><polyline class="cls-10" points="337.03 198.32 335.66 203.31 332.33 215.48"/><path class="cls-10" d="M569.82,262.34a.13.13,0,0,1,.09,0" transform="translate(-170.93 -29.15)"/><polyline class="cls-10" points="402.91 236.36 398.68 233.91 398.68 233.91 398.6 233.87"/><path class="cls-10" d="M563.82,259l.11-.07a3.06,3.06,0,0,1,1-.39" transform="translate(-170.93 -29.15)"/><polyline class="cls-10" points="341.93 180.4 340.56 185.39 337.23 197.56"/><polyline class="cls-10" points="346.82 162.48 345.46 167.47 342.13 179.64"/><path class="cls-10" d="M533.53,180.63a3.11,3.11,0,0,1-2.36,2.43" transform="translate(-170.93 -29.15)"/><path class="cls-10" d="M530,174.79a3.21,3.21,0,0,1,3.13,2,5,5,0,0,1,.64,2.44,5.85,5.85,0,0,1-.09.83,4.35,4.35,0,0,1-.13.58" transform="translate(-170.93 -29.15)"/><path class="cls-10" d="M532.16,180.63a2.84,2.84,0,0,1-2.14,2.21" transform="translate(-170.93 -29.15)"/><path class="cls-10" d="M528.93,175.32a2.92,2.92,0,0,1,2.84,1.81,4.42,4.42,0,0,1,.39,3.5" transform="translate(-170.93 -29.15)"/><polyline class="cls-10" points="351.72 144.56 350.36 149.55 347.03 161.72"/><path class="cls-10" d="M568.72,241.05a.49.49,0,0,0-.27.46" transform="translate(-170.93 -29.15)"/><polyline class="cls-10" points="377.56 241.6 383.6 245.08 383.61 245.09 388.1 247.68"/><path class="cls-10" d="M574.44,245.09c-.28-.15,0-.63.28-.67" transform="translate(-170.93 -29.15)"/><line class="cls-10" x1="332.33" y1="215.48" x2="336.84" y2="218.09"/><path class="cls-10" d="M574.72,244.42a.12.12,0,0,1,.1,0" transform="translate(-170.93 -29.15)"/><line class="cls-10" x1="335.62" y1="218.26" x2="331.7" y2="215.99"/><path class="cls-10" d="M573.62,223.13a.49.49,0,0,0-.27.46" transform="translate(-170.93 -29.15)"/><polyline class="cls-10" points="403.88 215.29 403.96 215.34 408.02 217.68"/><path class="cls-10" d="M579.34,227.18c-.28-.17,0-.64.28-.68" transform="translate(-170.93 -29.15)"/><polyline class="cls-10" points="370.19 195.84 376.23 199.33 376.24 199.33 381 202.08"/><polyline class="cls-10" points="379.79 202.26 375.86 199.99 375.85 199.98 370.1 196.67"/><path class="cls-10" d="M579.62,226.5a.16.16,0,0,1,.1,0" transform="translate(-170.93 -29.15)"/><polyline class="cls-10" points="397.52 212.49 393.04 209.91 393.02 209.9 387.29 206.59"/><polyline class="cls-10" points="337.22 197.55 337.22 197.56 337.23 197.56 341.75 200.17"/><polyline class="cls-10" points="340.53 200.34 337.03 198.32 336.84 198.21"/><polyline class="cls-10" points="387.37 205.75 393.4 209.24 393.42 209.25 397.9 211.84"/><polyline class="cls-10" points="407.81 218.44 403.58 216 403.5 215.95"/><polyline class="cls-10" points="387.72 248.34 383.23 245.75 383.22 245.74 377.49 242.43"/><path class="cls-10" d="M549.61,190.71a3.24,3.24,0,0,1-2.12,2.38,2.31,2.31,0,0,1-1.57-.15" transform="translate(-170.93 -29.15)"/><path class="cls-10" d="M544.83,185.43a2.4,2.4,0,0,1,1.43-.59,3.1,3.1,0,0,1,2.57,1.43,5.45,5.45,0,0,1,.78,4.44" transform="translate(-170.93 -29.15)"/><path class="cls-10" d="M550.71,190.55a3.09,3.09,0,0,1-2.36,2.42" transform="translate(-170.93 -29.15)"/><path class="cls-10" d="M547.16,184.71a3.22,3.22,0,0,1,3.13,2,4.86,4.86,0,0,1,.63,2.44,4.76,4.76,0,0,1-.08.83c0,.19-.08.38-.13.58" transform="translate(-170.93 -29.15)"/><line class="cls-10" x1="342.13" y1="179.64" x2="346.65" y2="182.24"/><line class="cls-10" x1="342.12" y1="179.64" x2="342.13" y2="179.64"/><polyline class="cls-10" points="345.43 182.42 341.93 180.4 341.93 180.4 341.75 180.29"/><path class="cls-10" d="M578.52,205.21a.49.49,0,0,0-.27.46" transform="translate(-170.93 -29.15)"/><path class="cls-10" d="M584.24,209.25c-.27-.15,0-.63.28-.67" transform="translate(-170.93 -29.15)"/><line class="cls-10" x1="403.22" y1="173.41" x2="407.7" y2="176"/><path class="cls-10" d="M573.33,242.77l.23,0" transform="translate(-170.93 -29.15)"/><path class="cls-10" d="M584.52,208.58a.12.12,0,0,1,.1,0" transform="translate(-170.93 -29.15)"/><polyline class="cls-10" points="408.78 197.37 408.86 197.41 412.92 199.76"/><polyline class="cls-10" points="347.02 161.71 347.03 161.72 347.03 161.72 351.55 164.33"/><polyline class="cls-10" points="350.33 164.5 346.82 162.47 346.65 162.37"/><path class="cls-10" d="M573.56,242.74c1.13-.17,1.33.86,1.34,1.74" transform="translate(-170.93 -29.15)"/><polyline class="cls-10" points="365.29 213.76 371.32 217.24 371.33 217.25 376.1 220"/><polyline class="cls-10" points="374.88 220.18 370.95 217.91 370.94 217.9 365.21 214.59"/><path class="cls-10" d="M569.82,240.59c1.21-.18,1,.74,1.55,1.28a3.25,3.25,0,0,0,2,.9" transform="translate(-170.93 -29.15)"/><path class="cls-10" d="M549.33,190.55a2.81,2.81,0,0,1-2.13,2.21" transform="translate(-170.93 -29.15)"/><path class="cls-10" d="M546.11,185.24a3,3,0,0,1,2.85,1.81,4.46,4.46,0,0,1,.37,3.5" transform="translate(-170.93 -29.15)"/><path class="cls-10" d="M561.88,218.55a3.27,3.27,0,0,1-2.1,2.39,2.41,2.41,0,0,1-1.58-.16" transform="translate(-170.93 -29.15)"/><path class="cls-10" d="M557.11,213.26a2.42,2.42,0,0,1,1.43-.58,3.11,3.11,0,0,1,2.57,1.44,5.38,5.38,0,0,1,.77,4.43" transform="translate(-170.93 -29.15)"/><line class="cls-10" x1="351.68" y1="143.65" x2="356.45" y2="146.4"/><polyline class="cls-10" points="355.23 146.58 351.72 144.56 351.72 144.55 351.54 144.45"/><path class="cls-10" d="M574.52,245.14c-.55.31-1.38.7-1.94.11-.26-.27-.27-.64-.51-.91a3.2,3.2,0,0,0-.85-.62,2.4,2.4,0,0,0-1-.38c-.35,0-.68.14-1,0-.69-.26-.75-1.09-.75-1.69a.57.57,0,0,1,0-.13" transform="translate(-170.93 -29.15)"/><line class="cls-10" x1="408.48" y1="198.07" x2="408.4" y2="198.03"/><line class="cls-10" x1="412.72" y1="200.52" x2="408.48" y2="198.07"/><path class="cls-10" d="M568.72,241.05l.11-.06a2.68,2.68,0,0,1,1-.4" transform="translate(-170.93 -29.15)"/><line class="cls-10" x1="357.81" y1="235.51" x2="356.97" y2="235.63"/><line class="cls-10" x1="355.72" y1="227.37" x2="356.63" y2="227.25"/><path class="cls-10" d="M526.31,264.62l-3.08.45h-.06a3.57,3.57,0,0,1-2.45-.47" transform="translate(-170.93 -29.15)"/><line class="cls-10" x1="356.66" y1="235.3" x2="355.38" y2="235.48"/><path class="cls-10" d="M520.72,264.61a3.81,3.81,0,0,1-1.76-4.29" transform="translate(-170.93 -29.15)"/><path class="cls-10" d="M519,260.32a3.79,3.79,0,0,1,3.09-2.75l.11,0,1.58-.23,1.22-.17.26,0,1.28-.18" transform="translate(-170.93 -29.15)"/><line class="cls-10" x1="340.64" y1="225.59" x2="339.79" y2="225.71"/><path class="cls-10" d="M563,218.39a3.11,3.11,0,0,1-2.36,2.42" transform="translate(-170.93 -29.15)"/><path class="cls-10" d="M559.44,212.55a3.21,3.21,0,0,1,3.13,2,5,5,0,0,1,.63,2.44,4.76,4.76,0,0,1-.08.83c0,.19-.08.38-.13.58" transform="translate(-170.93 -29.15)"/><path class="cls-10" d="M561.62,218.39a2.83,2.83,0,0,1-2.15,2.21" transform="translate(-170.93 -29.15)"/><path class="cls-10" d="M558.39,213.08a3,3,0,0,1,2.85,1.81,4.5,4.5,0,0,1,.38,3.5" transform="translate(-170.93 -29.15)"/><path class="cls-10" d="M527.53,198.71a3.24,3.24,0,0,1-2.1,2.38,2.36,2.36,0,0,1-1.59-.15" transform="translate(-170.93 -29.15)"/><path class="cls-10" d="M522.75,193.43a2.46,2.46,0,0,1,1.43-.59,3.13,3.13,0,0,1,2.57,1.43,5.47,5.47,0,0,1,.78,4.44" transform="translate(-170.93 -29.15)"/><line class="cls-10" x1="338.54" y1="217.46" x2="339.45" y2="217.32"/><path class="cls-10" d="M510.41,254.52l-1.28.18-3.08.45H506a3.57,3.57,0,0,1-2.45-.47" transform="translate(-170.93 -29.15)"/><path class="cls-10" d="M503.54,254.69a3.8,3.8,0,0,1-1.76-4.29" transform="translate(-170.93 -29.15)"/><line class="cls-10" x1="337.12" y1="218.04" x2="338.39" y2="217.86"/><path class="cls-10" d="M501.78,250.4a3.81,3.81,0,0,1,3.09-2.75l.11,0,1.58-.22h0l1.22-.18.26,0" transform="translate(-170.93 -29.15)"/><line class="cls-10" x1="374.99" y1="245.43" x2="374.15" y2="245.55"/><line class="cls-10" x1="372.9" y1="237.29" x2="373.8" y2="237.17"/><path class="cls-10" d="M544.77,274.36l-1.28.18-3.07.45h-.07a3.56,3.56,0,0,1-2.45-.46" transform="translate(-170.93 -29.15)"/><path class="cls-10" d="M537.9,274.53a3.81,3.81,0,0,1-1.76-4.29" transform="translate(-170.93 -29.15)"/><path class="cls-10" d="M536.14,270.24a3.83,3.83,0,0,1,3.09-2.76h.11l1.58-.23,1.21-.17.27,0,1.28-.19" transform="translate(-170.93 -29.15)"/><line class="cls-10" x1="362.72" y1="217.59" x2="361.87" y2="217.71"/><line class="cls-10" x1="360.62" y1="209.46" x2="361.53" y2="209.32"/><path class="cls-10" d="M528.63,198.55a3.11,3.11,0,0,1-2.36,2.43" transform="translate(-170.93 -29.15)"/><path class="cls-10" d="M525.08,192.71a3.23,3.23,0,0,1,3.13,2,4.89,4.89,0,0,1,.63,2.45,4.74,4.74,0,0,1-.08.82c0,.19-.08.38-.13.58" transform="translate(-170.93 -29.15)"/><path class="cls-10" d="M527.25,198.55a2.8,2.8,0,0,1-2.13,2.21" transform="translate(-170.93 -29.15)"/><path class="cls-10" d="M524,193.25a2.94,2.94,0,0,1,2.85,1.81,4.43,4.43,0,0,1,.37,3.49" transform="translate(-170.93 -29.15)"/><path class="cls-10" d="M544.71,208.63a3.22,3.22,0,0,1-2.12,2.38,2.3,2.3,0,0,1-1.57-.15" transform="translate(-170.93 -29.15)"/><path class="cls-10" d="M539.93,203.35a2.4,2.4,0,0,1,1.43-.59,3.11,3.11,0,0,1,2.57,1.44,5.43,5.43,0,0,1,.78,4.43" transform="translate(-170.93 -29.15)"/><path class="cls-10" d="M532.49,246.52l-1.28.19-3.08.44h-.06a3.53,3.53,0,0,1-2.44-.47" transform="translate(-170.93 -29.15)"/><path class="cls-10" d="M525.63,246.69a3.8,3.8,0,0,1-1.77-4.29" transform="translate(-170.93 -29.15)"/><path class="cls-10" d="M523.86,242.4a3.79,3.79,0,0,1,3.09-2.75h.11l1.58-.23,1.22-.18.26,0,1.29-.19" transform="translate(-170.93 -29.15)"/><line class="cls-10" x1="345.54" y1="207.67" x2="344.69" y2="207.8"/><line class="cls-10" x1="343.44" y1="199.54" x2="344.35" y2="199.41"/><path class="cls-10" d="M514,236.79l-3.08.44h-.06a3.53,3.53,0,0,1-2.44-.47" transform="translate(-170.93 -29.15)"/><line class="cls-10" x1="344.38" y1="207.46" x2="343.11" y2="207.64"/><path class="cls-10" d="M508.45,236.77a3.8,3.8,0,0,1-1.77-4.29" transform="translate(-170.93 -29.15)"/><path class="cls-10" d="M506.68,232.48a3.81,3.81,0,0,1,3.09-2.75l.11,0,1.58-.23,1.22-.17.27,0,1.28-.18" transform="translate(-170.93 -29.15)"/><polyline class="cls-10" points="379.89 227.51 379.04 227.63 378.87 227.66"/><polyline class="cls-10" points="377.68 219.39 377.78 219.38 378.71 219.24"/><path class="cls-10" d="M548.39,256.62l-3.08.45h-.06a3.57,3.57,0,0,1-2.45-.47" transform="translate(-170.93 -29.15)"/><line class="cls-10" x1="378.74" y1="227.29" x2="377.46" y2="227.48"/><path class="cls-10" d="M545.81,208.46a3.12,3.12,0,0,1-2.36,2.44" transform="translate(-170.93 -29.15)"/><path class="cls-10" d="M542.26,202.63a3.21,3.21,0,0,1,3.13,2,5,5,0,0,1,.63,2.44,4.76,4.76,0,0,1-.08.83c0,.19-.08.38-.13.57" transform="translate(-170.93 -29.15)"/><path class="cls-10" d="M544.43,208.47a2.81,2.81,0,0,1-2.13,2.21" transform="translate(-170.93 -29.15)"/><path class="cls-10" d="M541.21,203.16a3,3,0,0,1,2.85,1.81,4.46,4.46,0,0,1,.37,3.5" transform="translate(-170.93 -29.15)"/><path class="cls-10" d="M557,236.46a3.21,3.21,0,0,1-2.1,2.39,2.37,2.37,0,0,1-1.59-.15" transform="translate(-170.93 -29.15)"/><path class="cls-10" d="M552.21,231.19a2.38,2.38,0,0,1,1.43-.59,3.13,3.13,0,0,1,2.57,1.43,5.4,5.4,0,0,1,.77,4.43" transform="translate(-170.93 -29.15)"/><path class="cls-10" d="M542.8,256.61a3.81,3.81,0,0,1-1.76-4.29" transform="translate(-170.93 -29.15)"/><path class="cls-10" d="M541,252.32a3.79,3.79,0,0,1,3.09-2.75l.11,0,1.57-.22h0l1.22-.18.26,0,1.28-.19" transform="translate(-170.93 -29.15)"/><line class="cls-10" x1="367.62" y1="199.67" x2="366.76" y2="199.8"/><line class="cls-10" x1="365.52" y1="191.53" x2="366.43" y2="191.4"/><path class="cls-10" d="M536.11,228.78l-3.08.45H533a3.53,3.53,0,0,1-2.44-.47" transform="translate(-170.93 -29.15)"/><line class="cls-10" x1="366.46" y1="199.45" x2="365.19" y2="199.64"/><path class="cls-10" d="M530.53,228.77a3.81,3.81,0,0,1-1.77-4.29" transform="translate(-170.93 -29.15)"/><path class="cls-10" d="M528.76,224.48a3.79,3.79,0,0,1,3.1-2.75l.1,0,1.58-.23,1.22-.17.27,0,1.28-.18" transform="translate(-170.93 -29.15)"/><line class="cls-10" x1="350.44" y1="189.75" x2="349.59" y2="189.87"/><line class="cls-10" x1="348.34" y1="181.62" x2="349.24" y2="181.48"/><path class="cls-10" d="M520.22,218.68l-1.29.19-3.08.44h-.06a3.54,3.54,0,0,1-2.44-.47" transform="translate(-170.93 -29.15)"/><path class="cls-10" d="M513.35,218.85a3.78,3.78,0,0,1-1.76-4.29" transform="translate(-170.93 -29.15)"/><path class="cls-10" d="M558.09,236.3a3.12,3.12,0,0,1-2.36,2.44" transform="translate(-170.93 -29.15)"/><path class="cls-10" d="M554.54,230.47a3.22,3.22,0,0,1,3.13,2,5.1,5.1,0,0,1,.63,2.44,4.76,4.76,0,0,1-.08.83c0,.19-.08.38-.13.57" transform="translate(-170.93 -29.15)"/><path class="cls-10" d="M556.72,236.31a2.85,2.85,0,0,1-2.15,2.21" transform="translate(-170.93 -29.15)"/><path class="cls-10" d="M553.49,231a2.94,2.94,0,0,1,2.85,1.8,4.55,4.55,0,0,1,.38,3.5" transform="translate(-170.93 -29.15)"/><path class="cls-10" d="M522.63,216.63a3.29,3.29,0,0,1-2.1,2.39,2.46,2.46,0,0,1-1.6-.15" transform="translate(-170.93 -29.15)"/><path class="cls-10" d="M517.85,211.35a2.4,2.4,0,0,1,1.43-.59,3.11,3.11,0,0,1,2.57,1.44,5.44,5.44,0,0,1,.78,4.43" transform="translate(-170.93 -29.15)"/><path class="cls-10" d="M511.59,214.56a3.77,3.77,0,0,1,3.09-2.75h.1l1.58-.23,1.22-.18.27,0,1.28-.19" transform="translate(-170.93 -29.15)"/><line class="cls-10" x1="384.8" y1="209.59" x2="383.95" y2="209.71"/><line class="cls-10" x1="382.7" y1="201.45" x2="383.61" y2="201.32"/><path class="cls-10" d="M554.57,238.52l-1.28.18-3.08.45h-.06a3.53,3.53,0,0,1-2.44-.46" transform="translate(-170.93 -29.15)"/><path class="cls-10" d="M547.71,238.69a3.81,3.81,0,0,1-1.77-4.29" transform="translate(-170.93 -29.15)"/><path class="cls-10" d="M545.94,234.4a3.82,3.82,0,0,1,3.09-2.76h.11l1.58-.23,1.22-.17.27,0,1.28-.18" transform="translate(-170.93 -29.15)"/><line class="cls-10" x1="372.52" y1="181.75" x2="371.66" y2="181.87"/><line class="cls-10" x1="370.42" y1="173.61" x2="371.32" y2="173.49"/><path class="cls-10" d="M542.3,210.68l-1.28.18-3.09.45h-.06a3.54,3.54,0,0,1-2.44-.46" transform="translate(-170.93 -29.15)"/><path class="cls-10" d="M535.43,210.85a3.78,3.78,0,0,1-1.76-4.29" transform="translate(-170.93 -29.15)"/><path class="cls-10" d="M533.67,206.56a3.79,3.79,0,0,1,3.09-2.76h.1l1.58-.23,1.22-.17.27,0,1.28-.19" transform="translate(-170.93 -29.15)"/><path class="cls-10" d="M523.73,216.47a3.1,3.1,0,0,1-2.36,2.42" transform="translate(-170.93 -29.15)"/><path class="cls-10" d="M520.18,210.63a3.22,3.22,0,0,1,3.13,2,5,5,0,0,1,.63,2.44,4.67,4.67,0,0,1-.08.83c0,.19-.08.38-.13.58" transform="translate(-170.93 -29.15)"/><path class="cls-10" d="M522.35,216.47a2.8,2.8,0,0,1-2.13,2.21" transform="translate(-170.93 -29.15)"/><path class="cls-10" d="M519.13,211.16A3,3,0,0,1,522,213a4.43,4.43,0,0,1,.37,3.49" transform="translate(-170.93 -29.15)"/><path class="cls-10" d="M539.8,226.55a3.19,3.19,0,0,1-2.11,2.38,2.31,2.31,0,0,1-1.57-.15h0" transform="translate(-170.93 -29.15)"/><path class="cls-10" d="M535,221.27a2.38,2.38,0,0,1,1.43-.59,3.1,3.1,0,0,1,2.57,1.43,5.42,5.42,0,0,1,.77,4.44" transform="translate(-170.93 -29.15)"/><line class="cls-10" x1="355.34" y1="171.83" x2="354.49" y2="171.95"/><line class="cls-10" x1="353.25" y1="163.69" x2="354.15" y2="163.57"/><path class="cls-10" d="M525.12,200.76l-1.28.18h0l-3.08.45h-.07a3.54,3.54,0,0,1-2.44-.47" transform="translate(-170.93 -29.15)"/><path class="cls-10" d="M518.25,200.93a3.78,3.78,0,0,1-1.76-4.29" transform="translate(-170.93 -29.15)"/><path class="cls-10" d="M516.49,196.64a3.77,3.77,0,0,1,3.09-2.75l.1,0,1.58-.23,1.22-.17.27,0,1.28-.18" transform="translate(-170.93 -29.15)"/><line class="cls-10" x1="389.7" y1="191.67" x2="388.85" y2="191.79"/><line class="cls-10" x1="387.6" y1="183.53" x2="388.51" y2="183.4"/><path class="cls-10" d="M559.47,220.6l-1.27.18h0l-3.08.44-.06,0a3.6,3.6,0,0,1-2.44-.48" transform="translate(-170.93 -29.15)"/><path class="cls-10" d="M552.61,220.76a3.79,3.79,0,0,1-1.77-4.28" transform="translate(-170.93 -29.15)"/><path class="cls-10" d="M550.84,216.48a3.79,3.79,0,0,1,3.1-2.75l.1,0,1.58-.23,1.22-.17.27,0h0l1.28-.18" transform="translate(-170.93 -29.15)"/><path class="cls-10" d="M540.91,226.39a3.1,3.1,0,0,1-2.36,2.42" transform="translate(-170.93 -29.15)"/><path class="cls-10" d="M537.36,220.55a3.22,3.22,0,0,1,3.13,2,5.07,5.07,0,0,1,.63,2.44,5,5,0,0,1-.08.84c0,.18-.08.37-.13.57" transform="translate(-170.93 -29.15)"/><path class="cls-10" d="M539.54,226.39a2.83,2.83,0,0,1-2.15,2.21" transform="translate(-170.93 -29.15)"/><path class="cls-10" d="M536.31,221.09a2.94,2.94,0,0,1,2.85,1.81,4.52,4.52,0,0,1,.38,3.49" transform="translate(-170.93 -29.15)"/><path class="cls-10" d="M552.08,254.39a3.22,3.22,0,0,1-2.11,2.39,2.31,2.31,0,0,1-1.57-.16h0" transform="translate(-170.93 -29.15)"/><path class="cls-10" d="M547.3,249.11a2.44,2.44,0,0,1,1.41-.59,3.1,3.1,0,0,1,2.6,1.44,5.43,5.43,0,0,1,.77,4.43" transform="translate(-170.93 -29.15)"/><line class="cls-10" x1="377.42" y1="163.83" x2="376.56" y2="163.96"/><line class="cls-10" x1="375.33" y1="155.69" x2="376.23" y2="155.56"/><path class="cls-10" d="M547.2,192.76l-1.28.18h0l-3.08.45h-.07a3.55,3.55,0,0,1-2.44-.48" transform="translate(-170.93 -29.15)"/><path class="cls-10" d="M540.33,192.92a3.77,3.77,0,0,1-1.76-4.28" transform="translate(-170.93 -29.15)"/><path class="cls-10" d="M538.57,188.64a3.77,3.77,0,0,1,3.09-2.75l.1,0,1.59-.23,1.21-.17.27,0,1.28-.19" transform="translate(-170.93 -29.15)"/><line class="cls-10" x1="360.24" y1="153.91" x2="359.4" y2="154.03"/><line class="cls-10" x1="358.15" y1="145.78" x2="359.05" y2="145.64"/><path class="cls-10" d="M530,182.84l-1.28.19-3.08.44h-.07a3.53,3.53,0,0,1-2.44-.47" transform="translate(-170.93 -29.15)"/><path class="cls-10" d="M523.15,183a3.8,3.8,0,0,1-1.76-4.29" transform="translate(-170.93 -29.15)"/><path class="cls-10" d="M521.39,178.72a3.78,3.78,0,0,1,3.09-2.75l.1,0,1.59-.23,1.21-.17.27,0,1.28-.19" transform="translate(-170.93 -29.15)"/><path class="cls-10" d="M553.19,254.23a3.1,3.1,0,0,1-2.36,2.42" transform="translate(-170.93 -29.15)"/><path class="cls-10" d="M549.64,248.39a3.22,3.22,0,0,1,3.13,2,5.07,5.07,0,0,1,.63,2.44,4.79,4.79,0,0,1-.09.83c0,.19-.07.38-.12.58" transform="translate(-170.93 -29.15)"/><path class="cls-10" d="M551.81,254.23a2.82,2.82,0,0,1-2.14,2.21" transform="translate(-170.93 -29.15)"/><path class="cls-10" d="M548.58,248.92a3,3,0,0,1,2.85,1.81,4.46,4.46,0,0,1,.38,3.5" transform="translate(-170.93 -29.15)"/><path class="cls-10" d="M517.72,234.55a3.25,3.25,0,0,1-2.1,2.39,2.46,2.46,0,0,1-1.58-.15h0" transform="translate(-170.93 -29.15)"/><path class="cls-10" d="M513,229.27a2.36,2.36,0,0,1,1.43-.58,3.08,3.08,0,0,1,2.57,1.43,5.39,5.39,0,0,1,.77,4.43" transform="translate(-170.93 -29.15)"/><line class="cls-10" x1="394.6" y1="173.75" x2="393.74" y2="173.87"/><line class="cls-10" x1="392.5" y1="165.61" x2="393.4" y2="165.48"/><path class="cls-10" d="M564.38,202.67l-1.28.19-3.08.45H560a3.6,3.6,0,0,1-2.44-.47" transform="translate(-170.93 -29.15)"/><path class="cls-10" d="M557.51,202.85a3.8,3.8,0,0,1-1.76-4.3" transform="translate(-170.93 -29.15)"/><path class="cls-10" d="M555.75,198.55a3.77,3.77,0,0,1,3.09-2.74l.1,0,1.58-.23,1.22-.17.27,0,1.28-.19" transform="translate(-170.93 -29.15)"/><path class="cls-10" d="M578.23,224.86l.23-.05" transform="translate(-170.93 -29.15)"/><line class="cls-10" x1="270.82" y1="390.83" x2="177.4" y2="445.36"/><line class="cls-10" x1="348.23" y1="345.63" x2="270.82" y2="390.83"/><path class="cls-10" d="M578.46,224.81c1.13-.16,1.33.88,1.34,1.75" transform="translate(-170.93 -29.15)"/><path class="cls-10" d="M574.72,222.67c1.22-.18,1,.73,1.55,1.28a3.32,3.32,0,0,0,2,.91" transform="translate(-170.93 -29.15)"/><polyline class="cls-10" points="360.39 231.68 366.42 235.17 366.43 235.17 371.2 237.92"/><line class="cls-10" x1="178.37" y1="321.33" x2="178.37" y2="247.56"/><polyline class="cls-10" points="369.99 238.1 366.05 235.83 366.04 235.82 360.31 232.51"/><path class="cls-10" d="M518.83,234.39a3.11,3.11,0,0,1-2.36,2.43" transform="translate(-170.93 -29.15)"/><path class="cls-10" d="M515.28,228.55a3.24,3.24,0,0,1,3.13,2A5.11,5.11,0,0,1,519,233a4.65,4.65,0,0,1-.08.82c0,.19-.08.38-.13.58" transform="translate(-170.93 -29.15)"/><path class="cls-10" d="M517.46,234.4a2.82,2.82,0,0,1-2.15,2.2" transform="translate(-170.93 -29.15)"/><path class="cls-10" d="M514.23,229.09a2.94,2.94,0,0,1,2.85,1.8,4.57,4.57,0,0,1,.38,3.51" transform="translate(-170.93 -29.15)"/><path class="cls-10" d="M534.9,244.47a3.25,3.25,0,0,1-2.1,2.39,2.5,2.5,0,0,1-1.59-.15" transform="translate(-170.93 -29.15)"/><path class="cls-10" d="M530.12,239.19a2.43,2.43,0,0,1,1.44-.59,3.11,3.11,0,0,1,2.57,1.44,5.39,5.39,0,0,1,.77,4.43" transform="translate(-170.93 -29.15)"/><line class="cls-10" x1="5.63" y1="346.2" x2="178.37" y2="247.56"/><polyline class="cls-10" points="177.4 445.37 83.91 391.39 5.63 346.2"/><line class="cls-10" x1="178.37" y1="247.56" x2="348.23" y2="345.63"/><polyline class="cls-10" points="353.59 345.63 237.9 278.84 178.39 244.47"/><path class="cls-10" d="M579.42,227.22h0c-.54.31-1.36.7-1.93.11-.26-.27-.27-.64-.52-.91a3.25,3.25,0,0,0-.84-.63,2.54,2.54,0,0,0-1-.37c-.35,0-.68.13-1,0-.7-.26-.75-1.09-.75-1.69a.57.57,0,0,1,0-.13" transform="translate(-170.93 -29.15)"/><line class="cls-10" x1="177.41" y1="448.47" x2="353.59" y2="345.63"/><polyline class="cls-10" points="353.59 438.61 353.59 436.86 353.59 436.65 353.59 431.99 353.59 345.63"/><line class="cls-10" x1="177.41" y1="541.46" x2="353.59" y2="438.61"/><line class="cls-10" x1="0.25" y1="346.19" x2="177.41" y2="448.47"/><line class="cls-10" x1="177.41" y1="541.46" x2="177.41" y2="448.47"/><line class="cls-10" x1="0.25" y1="439.18" x2="177.41" y2="541.46"/><polyline class="cls-10" points="413.69 179.45 413.77 179.5 418.23 182.07 418.24 182.08"/><line class="cls-10" x1="178.39" y1="244.47" x2="0.25" y2="346.19"/><line class="cls-10" x1="0.25" y1="439.18" x2="0.25" y2="346.19"/><path class="cls-10" d="M573.62,223.13l.11-.07a2.67,2.67,0,0,1,1-.39" transform="translate(-170.93 -29.15)"/><path class="cls-10" d="M536,244.31a3.13,3.13,0,0,1-2.36,2.43" transform="translate(-170.93 -29.15)"/><path class="cls-10" d="M532.46,238.47a3.21,3.21,0,0,1,3.13,2,5.1,5.1,0,0,1,.63,2.44,4.67,4.67,0,0,1-.08.83c0,.19-.08.38-.13.58" transform="translate(-170.93 -29.15)"/><path class="cls-10" d="M534.64,244.31a2.85,2.85,0,0,1-2.15,2.21" transform="translate(-170.93 -29.15)"/><path class="cls-10" d="M531.41,239a2.94,2.94,0,0,1,2.84,1.81,4.51,4.51,0,0,1,.39,3.5" transform="translate(-170.93 -29.15)"/><path class="cls-10" d="M547.18,272.31a3.23,3.23,0,0,1-2.1,2.38,2.36,2.36,0,0,1-1.59-.15" transform="translate(-170.93 -29.15)"/><path class="cls-10" d="M542.4,267a2.4,2.4,0,0,1,1.43-.59,3.13,3.13,0,0,1,2.58,1.44,5.43,5.43,0,0,1,.77,4.43" transform="translate(-170.93 -29.15)"/><line class="cls-10" x1="430.83" y1="366.65" x2="433.36" y2="367.23"/><line class="cls-10" x1="253.66" y1="264.37" x2="256.2" y2="264.95"/><polyline class="cls-10" points="417.62 182.6 413.38 180.16 413.31 180.11"/><line class="cls-10" x1="356.12" y1="438.11" x2="357.29" y2="434.13"/><line class="cls-10" x1="353.59" y1="431.99" x2="357.29" y2="434.13"/><line class="cls-10" x1="430.83" y1="366.65" x2="253.66" y2="264.37"/><line class="cls-10" x1="353.59" y1="436.86" x2="356.2" y2="438.36"/><line class="cls-10" x1="353.59" y1="436.65" x2="356.12" y2="438.11"/><polyline class="cls-10" points="402.42 194.57 397.94 191.98 397.93 191.98 392.18 188.67 392.18 188.66"/><polyline class="cls-10" points="392.23 187.81 392.27 187.84 398.31 191.32 398.32 191.33 402.8 193.92"/><line class="cls-10" x1="253.66" y1="264.37" x2="237.9" y2="278.84"/><polyline class="cls-10" points="412.87 199.96 412.92 199.76 417.62 182.6 417.62 182.59"/><path class="cls-10" d="M548.28,272.15a3.1,3.1,0,0,1-2.35,2.43" transform="translate(-170.93 -29.15)"/><path class="cls-10" d="M544.74,266.31a3.23,3.23,0,0,1,3.13,2,5.1,5.1,0,0,1,.63,2.44,4.79,4.79,0,0,1-.09.83,4.35,4.35,0,0,1-.13.58" transform="translate(-170.93 -29.15)"/><path class="cls-10" d="M546.91,272.15a2.84,2.84,0,0,1-2.14,2.21" transform="translate(-170.93 -29.15)"/><path class="cls-10" d="M543.68,266.84a2.93,2.93,0,0,1,2.85,1.81,4.46,4.46,0,0,1,.38,3.5" transform="translate(-170.93 -29.15)"/><path class="cls-10" d="M512.82,252.47a3.23,3.23,0,0,1-2.1,2.39,2.37,2.37,0,0,1-1.59-.15" transform="translate(-170.93 -29.15)"/><path class="cls-10" d="M508,247.19h0a2.44,2.44,0,0,1,1.42-.59,3.14,3.14,0,0,1,2.58,1.44,5.4,5.4,0,0,1,.77,4.43" transform="translate(-170.93 -29.15)"/><path class="cls-10" d="M563.52,278.62l.24,0" transform="translate(-170.93 -29.15)"/><polyline class="cls-10" points="372.41 156.49 368.48 154.23 368.47 154.22 362.73 150.91"/><path class="cls-10" d="M522.17,173.16a.72.72,0,0,0,.31.44" transform="translate(-170.93 -29.15)"/><path class="cls-10" d="M518,190.86c-.1-.06-.61.18-.68.22" transform="translate(-170.93 -29.15)"/><path class="cls-10" d="M518,190.87h0" transform="translate(-170.93 -29.15)"/><polyline class="cls-10" points="362.81 150.08 368.85 153.56 368.86 153.57 373.63 156.32"/><line class="cls-10" x1="256.2" y1="264.95" x2="433.36" y2="367.23"/><path class="cls-10" d="M517.27,191.08a.72.72,0,0,0,.31.44" transform="translate(-170.93 -29.15)"/><path class="cls-10" d="M513.05,208.78c-.1-.05-.61.19-.68.23" transform="translate(-170.93 -29.15)"/><path class="cls-10" d="M513.06,208.79h0" transform="translate(-170.93 -29.15)"/><line class="cls-10" x1="433.44" y1="367.48" x2="433.36" y2="367.23"/><line class="cls-10" x1="356.2" y1="438.36" x2="433.44" y2="367.48"/><path class="cls-10" d="M512.37,209a.73.73,0,0,0,.31.43" transform="translate(-170.93 -29.15)"/><path class="cls-10" d="M508.15,226.7c-.1,0-.61.19-.68.22" transform="translate(-170.93 -29.15)"/><path class="cls-10" d="M508.16,226.71h0" transform="translate(-170.93 -29.15)"/><line class="cls-10" x1="356.2" y1="438.36" x2="356.12" y2="438.11"/><line class="cls-10" x1="357.29" y1="434.13" x2="430.83" y2="366.65"/><path class="cls-10" d="M507.47,226.92a.64.64,0,0,0,.31.44" transform="translate(-170.93 -29.15)"/><path class="cls-10" d="M503.25,244.62c-.1-.05-.61.19-.68.23" transform="translate(-170.93 -29.15)"/><path class="cls-10" d="M503.26,244.63h0" transform="translate(-170.93 -29.15)"/><polyline class="cls-10" points="407.96 217.88 408.02 217.68 408.02 217.68 412.72 200.52 412.72 200.5"/><polyline class="cls-10" points="497.25 138.61 496.92 138.7 494.28 139.38"/><path class="cls-10" d="M502.57,244.85c-.06,0-.14,0-.12-.14" transform="translate(-170.93 -29.15)"/><polyline class="cls-10" points="317.12 37.1 318.31 37.8 494.28 139.38"/><path class="cls-10" d="M522.17,173.16s-.12,0-.13-.09a.15.15,0,0,1,0-.06c.06-.08.11,0,.19,0" transform="translate(-170.93 -29.15)"/><path class="cls-10" d="M583.13,206.93l.24,0" transform="translate(-170.93 -29.15)"/><path class="cls-10" d="M563.76,278.58c1.12-.17,1.33.87,1.33,1.74" transform="translate(-170.93 -29.15)"/><path class="cls-10" d="M583.37,206.9c1.12-.17,1.32.86,1.33,1.74" transform="translate(-170.93 -29.15)"/><path class="cls-10" d="M502.63,245.14c-.13-.08-.09-.18-.06-.29" transform="translate(-170.93 -29.15)"/><line class="cls-10" x1="300.96" y1="2.9" x2="317.11" y2="37.1"/><line class="cls-10" x1="478.12" y1="105.18" x2="300.96" y2="2.9"/><line class="cls-10" x1="303.42" y1="0.25" x2="300.96" y2="2.9"/><line class="cls-10" x1="480.59" y1="102.54" x2="303.42" y2="0.25"/><line class="cls-10" x1="494.28" y1="139.38" x2="478.12" y2="105.18"/><line class="cls-10" x1="480.59" y1="102.54" x2="478.12" y2="105.18"/><line class="cls-10" x1="497.5" y1="138.35" x2="480.59" y2="102.54"/><line class="cls-10" x1="497.5" y1="138.35" x2="497.26" y2="138.61"/><polyline class="cls-10" points="494.31 141.19 496.92 138.7 497.25 138.38"/><line class="cls-10" x1="317.15" y1="38.9" x2="318.31" y2="37.8"/><line class="cls-10" x1="257.34" y1="263.63" x2="255.77" y2="261.47"/><line class="cls-10" x1="434.5" y1="365.92" x2="432.93" y2="363.75"/><line class="cls-10" x1="255.77" y1="261.47" x2="432.93" y2="363.75"/><line class="cls-10" x1="494.31" y1="141.18" x2="317.15" y2="38.9"/><line class="cls-10" x1="257.34" y1="263.63" x2="434.5" y2="365.92"/><line class="cls-10" x1="317.15" y1="38.9" x2="255.77" y2="261.47"/><path class="cls-10" d="M579.63,204.75c1.21-.18,1,.74,1.54,1.28a3.25,3.25,0,0,0,2,.9" transform="translate(-170.93 -29.15)"/><path class="cls-10" d="M584.32,209.3c-.55.31-1.37.7-1.94.11-.26-.27-.27-.64-.51-.91a3,3,0,0,0-.85-.62,2.4,2.4,0,0,0-1-.38c-.35,0-.68.13-1,0-.69-.26-.75-1.09-.75-1.69a.62.62,0,0,1,0-.13" transform="translate(-170.93 -29.15)"/><path class="cls-10" d="M560,276.43c1.21-.18,1,.74,1.55,1.29a3.36,3.36,0,0,0,1.95.9" transform="translate(-170.93 -29.15)"/><path class="cls-10" d="M578.52,205.21l.12-.07a2.77,2.77,0,0,1,1-.39" transform="translate(-170.93 -29.15)"/><polyline class="cls-10" points="367.51 174.42 363.58 172.15 363.57 172.14 357.83 168.82"/><line class="cls-10" x1="497.5" y1="138.35" x2="497.25" y2="138.38"/><line class="cls-10" x1="434.75" y1="365.88" x2="497.5" y2="138.35"/><line class="cls-10" x1="434.75" y1="365.88" x2="434.5" y2="365.92"/><line class="cls-10" x1="432.93" y1="363.75" x2="494.31" y2="141.18"/><polyline class="cls-10" points="357.91 168 363.95 171.49 363.96 171.49 368.73 174.24"/><path class="cls-10" d="M564.71,281c-.54.31-1.37.7-1.94.11-.25-.27-.26-.64-.5-.91a3.2,3.2,0,0,0-.85-.62,2.45,2.45,0,0,0-1-.38c-.34,0-.67.13-1,0-.69-.26-.75-1.09-.75-1.69v-.13" transform="translate(-170.93 -29.15)"/><polyline class="cls-10" points="407.32 176.65 402.84 174.06 402.83 174.06 397.08 170.74"/><line class="cls-10" x1="397.17" y1="169.91" x2="403.21" y2="173.4"/><polyline class="cls-10" points="403.06 235.81 403.12 235.6 403.12 235.6 407.81 218.44 407.81 218.43"/><polyline class="cls-10" points="353.01 185.92 359.05 189.41 359.06 189.41 363.82 192.16"/><polyline class="cls-10" points="362.61 192.34 358.68 190.07 358.67 190.06 352.92 186.75"/><path class="cls-10" d="M522.17,173.16a1.54,1.54,0,0,1,.09-.19c.08-.14.2-.26.35-.18" transform="translate(-170.93 -29.15)"/><path class="cls-10" d="M558.92,276.89l.11-.06a2.68,2.68,0,0,1,1-.4" transform="translate(-170.93 -29.15)"/><path class="cls-10" d="M526.5,256.93a2.92,2.92,0,0,1,2.85,1.81,4.45,4.45,0,0,1,.38,3.5" transform="translate(-170.93 -29.15)"/><polyline class="cls-10" points="392.62 230.42 388.13 227.82 388.12 227.82 382.39 224.51"/><path class="cls-10" d="M529.73,262.24a2.81,2.81,0,0,1-2.14,2.2" transform="translate(-170.93 -29.15)"/><path class="cls-10" d="M527.56,256.39a3.23,3.23,0,0,1,3.13,2,5.11,5.11,0,0,1,.63,2.45,5,5,0,0,1-.09.83q0,.27-.12.57" transform="translate(-170.93 -29.15)"/><polyline class="cls-10" points="398.16 253.72 398.21 253.52 398.22 253.52 402.91 236.36 402.91 236.35"/><path class="cls-10" d="M531.11,262.23a3.13,3.13,0,0,1-2.36,2.43" transform="translate(-170.93 -29.15)"/><path class="cls-10" d="M525.22,257.11a2.38,2.38,0,0,1,1.43-.58,3.07,3.07,0,0,1,2.57,1.43,5.4,5.4,0,0,1,.78,4.43" transform="translate(-170.93 -29.15)"/><polyline class="cls-10" points="389.59 166.41 385.66 164.14 385.65 164.14 379.91 160.83"/><path class="cls-10" d="M530,262.39a3.2,3.2,0,0,1-2.1,2.38,2.34,2.34,0,0,1-1.58-.15h0" transform="translate(-170.93 -29.15)"/><path class="cls-10" d="M513.93,252.31a3.13,3.13,0,0,1-2.36,2.43" transform="translate(-170.93 -29.15)"/><path class="cls-10" d="M510.38,246.47a3.22,3.22,0,0,1,3.13,2,5.11,5.11,0,0,1,.63,2.45,4,4,0,0,1-.09.83q0,.27-.12.57" transform="translate(-170.93 -29.15)"/><path class="cls-10" d="M512.55,252.31a2.79,2.79,0,0,1-2.14,2.21" transform="translate(-170.93 -29.15)"/><path class="cls-10" d="M509.32,247a2.92,2.92,0,0,1,2.85,1.81,4.44,4.44,0,0,1,.38,3.49" transform="translate(-170.93 -29.15)"/><path class="cls-10" d="M562,195.35a2.4,2.4,0,0,1,1.43-.59,3.1,3.1,0,0,1,2.57,1.43,5.44,5.44,0,0,1,.78,4.43" transform="translate(-170.93 -29.15)"/><line class="cls-10" x1="402.92" y1="236.36" x2="402.91" y2="236.36"/><line class="cls-10" x1="407.82" y1="218.44" x2="407.81" y2="218.44"/><line class="cls-10" x1="412.72" y1="200.52" x2="412.72" y2="200.52"/><line class="cls-10" x1="417.62" y1="182.6" x2="417.62" y2="182.6"/><line class="cls-10" x1="332.33" y1="215.48" x2="332.33" y2="215.49"/><line class="cls-10" x1="337.23" y1="197.56" x2="337.23" y2="197.56"/><line class="cls-10" x1="347.03" y1="161.72" x2="347.03" y2="161.72"/><polyline class="cls-10" points="270.82 390.83 270.82 390.83 178.37 337.45"/><line class="cls-10" x1="178.37" y1="337.45" x2="83.91" y2="391.39"/><line class="cls-10" x1="178.37" y1="337.45" x2="178.37" y2="321.33"/><line class="cls-10" x1="356.2" y1="438.36" x2="353.59" y2="438.61"/><line class="cls-10" x1="433.44" y1="367.48" x2="434.75" y2="365.88"/><line class="cls-10" x1="257.34" y1="263.63" x2="256.2" y2="264.95"/></svg>